{"accessors":[{"bufferView":0,"byteOffset":0,"componentType":5126,"count":42,"max":[4.5,4.5,10],"min":[-4.5,-4.5,-9],"normalized":false,"type":"VEC3"},{"bufferView":1,"byteOffset":0,"componentType":5126,"count":42,"max":[0.000061,0,0.000015,1],"min":[-1,-1,-1,1],"normalized":false,"type":"VEC4"},{"bufferView":2,"byteOffset":0,"componentType":5126,"count":42,"max":[1,1,1],"min":[-1,-1,-0.000015],"normalized":false,"type":"VEC3"},{"bufferView":3,"byteOffset":0,"componentType":5126,"count":42,"max":[1,1],"min":[0,0],"normalized":false,"type":"VEC2"},{"bufferView":4,"byteOffset":0,"componentType":5125,"count":42,"max":[41],"min":[0],"normalized":false,"type":"SCALAR"},{"bufferView":5,"byteOffset":0,"componentType":5126,"count":66,"max":[5,5,10],"min":[-5,-5,-10],"normalized":false,"type":"VEC3"},{"bufferView":6,"byteOffset":0,"componentType":5126,"count":66,"max":[0,0,0.000076,-1],"min":[-1,-1,-1,-1],"normalized":false,"type":"VEC4"},{"bufferView":7,"byteOffset":0,"componentType":5126,"count":66,"max":[1,1,1],"min":[-1,-1,-1],"normalized":false,"type":"VEC3"},{"bufferView":8,"byteOffset":0,"componentType":5126,"count":66,"max":[1,1],"min":[0,0],"normalized":false,"type":"VEC2"},{"bufferView":9,"byteOffset":0,"componentType":5125,"count":66,"max":[65],"min":[0],"normalized":false,"type":"SCALAR"}],"asset":{"generator":"Godot Engine v4.2.2.stable.official@15073afe3856abd2aa1622492fe50026c7d63dc1","version":"2.0"},"bufferViews":[{"buffer":0,"byteLength":504,"byteOffset":0},{"buffer":0,"byteLength":672,"byteOffset":504},{"buffer":0,"byteLength":504,"byteOffset":1176},{"buffer":0,"byteLength":336,"byteOffset":1680},{"buffer":0,"byteLength":168,"byteOffset":2016},{"buffer":0,"byteLength":792,"byteOffset":2184},{"buffer":0,"byteLength":1056,"byteOffset":2976},{"buffer":0,"byteLength":792,"byteOffset":4032},{"buffer":0,"byteLength":528,"byteOffset":4824},{"buffer":0,"byteLength":264,"byteOffset":5352}],"buffers":[{"byteLength":5616,"uri":"csg_box_3d0.bin"}],"extensionsRequired":["KHR_texture_transform"],"extensionsUsed":["GODOT_single_root","KHR_texture_transform"],"images":[{"uri":"textures%2F_albedo000.png"},{"uri":"textures%2F_orm000.png"},{"uri":"textures%2F_normal000.png"}],"materials":[{"extensions":{},"normalTexture":{"index":2,"scale":1},"pbrMetallicRoughness":{"baseColorFactor":[0.99999988079071,0.99999988079071,0.99999988079071,1],"baseColorTexture":{"extensions":{"KHR_texture_transform":{"scale":[0.25,0.25]}},"index":0},"metallicFactor":0,"metallicRoughnessTexture":{"extensions":{"KHR_texture_transform":{"scale":[0.25,0.25]}},"index":1},"roughnessFactor":1}},{"extensions":{},"pbrMetallicRoughness":{"baseColorFactor":[0.99999988079071,0.99999988079071,0.99999988079071,1],"metallicFactor":0,"roughnessFactor":1}}],"meshes":[{"extras":{"targetNames":[]},"primitives":[{"attributes":{"NORMAL":2,"POSITION":0,"TANGENT":1,"TEXCOORD_0":3},"indices":4,"material":0,"mode":4},{"attributes":{"NORMAL":7,"POSITION":5,"TANGENT":6,"TEXCOORD_0":8},"indices":9,"material":1,"mode":4}]}],"nodes":[{"children":[1],"extensions":{},"mesh":0,"name":"CSGBox3D2"},{"extensions":{},"name":"CSGBox3D3","translation":[0,0,1]}],"samplers":[{"magFilter":9728,"minFilter":9728,"wrapS":10497,"wrapT":10497}],"scene":0,"scenes":[{"nodes":[0]}],"textures":[{"sampler":0,"source":0},{"sampler":0,"source":1},{"sampler":0,"source":2}]}