# Blender 4.1.1
# www.blender.org
mtllib missing.mtl
o Cube
v -0.503212 0.100776 0.500000
v 0.002799 0.593294 0.500000
v 0.000000 1.000000 0.500000
v 1.000000 0.000000 0.500000
v -0.600000 0.200000 0.500000
v 0.000000 0.800000 0.500000
v -1.000000 0.000000 0.500000
v 0.000000 -1.000000 0.500000
v 0.600000 0.200000 0.500000
v 0.000000 -0.800000 0.500000
v 0.402399 0.196834 0.500000
v -0.100000 -0.300000 0.500000
v 0.000000 -0.400000 0.500000
v -0.100000 -0.700000 0.500000
v 0.000000 -0.600000 0.500000
v 0.100000 -0.700000 0.500000
v 0.000000 0.800000 -0.500000
v 0.000000 1.000000 -0.500000
v 0.002799 0.593294 -0.500000
v -0.503212 0.100776 -0.500000
v 0.600000 0.200000 -0.500000
v 0.000000 -1.000000 -0.500000
v -1.000000 0.000000 -0.500000
v 1.000000 0.000000 -0.500000
v -0.600000 0.200000 -0.500000
v 0.402399 0.196834 -0.500000
v 0.000000 -0.400000 -0.500000
v -0.100000 -0.700000 -0.500000
v 0.000000 -0.600000 -0.500000
v -0.100000 -0.300000 -0.500000
v 0.000000 -0.800000 -0.500000
v 0.100000 -0.700000 -0.500000
vn -0.0000 -0.0000 1.0000
vn -0.0000 -0.0000 -1.0000
vn 0.7071 0.7071 -0.0000
vn 0.7071 -0.7071 -0.0000
vn -0.6975 0.7166 -0.0000
vn -0.7071 -0.7071 -0.0000
vn 0.7158 0.6983 -0.0000
vn -0.7071 0.7071 -0.0000
vn 0.7032 -0.7110 -0.0000
vn 0.7043 0.7099 -0.0000
vt 0.625000 1.000000
vt 0.616791 0.928710
vt 0.599112 0.775188
vt 0.625000 0.750000
vt 0.375000 0.750000
vt 0.449635 0.799704
vt 0.451761 0.901228
vt 0.426550 0.947531
vt 0.401397 0.950215
vt 0.401014 0.973860
vt 0.423597 0.972734
vt 0.375000 1.000000
vt 0.450835 0.758523
vt 0.477543 0.900970
vt 0.575260 0.925355
vt 0.473875 0.799887
vt 0.573117 0.800635
s 0
usemtl Material
f 7/1/1 5/2/1 6/3/1 3/4/1
f 4/5/1 9/6/1 13/7/1 15/8/1 16/9/1
f 10/10/1 14/11/1 7/1/1 8/12/1
f 3/4/1 6/3/1 9/13/1 4/5/1
f 8/12/1 4/5/1 16/9/1 10/10/1
f 15/8/1 13/7/1 12/14/1 1/15/1 14/11/1
f 1/15/1 12/14/1 11/16/1 2/17/1
f 14/11/1 1/15/1 5/2/1 7/1/1
f 23/1/2 18/4/2 17/3/2 25/2/2
f 24/5/2 32/9/2 29/8/2 27/7/2 21/6/2
f 31/10/2 22/12/2 23/1/2 28/11/2
f 18/4/2 24/5/2 21/13/2 17/3/2
f 22/12/2 31/10/2 32/9/2 24/5/2
f 29/8/2 28/11/2 20/15/2 30/14/2 27/7/2
f 20/15/2 19/17/2 26/16/2 30/14/2
f 28/11/2 23/1/2 25/2/2 20/15/2
f 13/7/3 27/7/3 30/14/3 12/14/3
f 8/12/4 22/12/4 24/5/4 4/5/4
f 2/17/5 19/17/5 20/15/5 1/15/5
f 10/10/3 31/10/3 28/11/3 14/11/3
f 6/3/6 17/3/6 21/13/6 9/13/6
f 15/8/6 29/8/6 32/9/6 16/9/6
f 1/15/7 20/15/7 25/2/7 5/2/7
f 7/1/6 23/1/6 22/12/6 8/12/6
f 16/9/8 32/9/8 31/10/8 10/10/8
f 5/2/4 25/2/4 17/3/4 6/3/4
f 4/5/3 24/5/3 18/4/3 3/4/3
f 9/6/8 21/6/8 27/7/8 13/7/8
f 14/11/4 28/11/4 29/8/4 15/8/4
f 3/4/8 18/4/8 23/1/8 7/1/8
f 12/14/9 30/14/9 26/16/9 11/16/9
f 11/16/10 26/16/10 19/17/10 2/17/10
