# Blender 4.2.0
# www.blender.org
mtllib HugeGlassFrame.mtl
o Cube
v 1.400000 0.900000 -0.100000
v 1.400000 -0.900000 -0.100000
v 1.400000 0.900000 0.100000
v 1.400000 -0.900000 0.100000
v -1.400000 0.900000 -0.100000
v -1.400000 -0.900000 -0.100000
v -1.400000 0.900000 0.100000
v -1.400000 -0.900000 0.100000
v 1.500000 -1.000000 -0.100000
v -1.500000 -1.000000 -0.100000
v 1.500000 1.000000 -0.100000
v -1.500000 -1.000000 0.100000
v -1.500000 1.000000 0.100000
v 1.500000 1.000000 0.100000
v 1.500000 -1.000000 0.100000
v -1.500000 1.000000 -0.100000
vn -0.0000 1.0000 -0.0000
vn -1.0000 -0.0000 -0.0000
vn -0.0000 -1.0000 -0.0000
vn 1.0000 -0.0000 -0.0000
vn -0.0000 -0.0000 -1.0000
vn -0.0000 -0.0000 1.0000
vt 0.750000 1.050781
vt -0.000000 1.050781
vt -0.000000 1.000000
vt 0.750000 1.000000
vt 0.902344 -0.000000
vt 0.851562 -0.000000
vt 0.851562 0.449219
vt 0.902344 0.449219
vt 0.750000 -0.000000
vt 0.750000 0.500000
vt 0.800781 0.500000
vt 0.800781 -0.000000
vt -0.000000 1.101562
vt 0.750000 1.101562
vt 0.851562 0.500000
vt 0.699219 1.152344
vt -0.000000 1.152344
vt 0.699219 1.101562
vt 0.023438 0.023438
vt 0.726562 0.023438
vt 0.000000 0.000000
vt 0.726562 0.476562
vt 0.023438 0.527344
vt 0.023438 0.976562
vt -0.000000 0.500000
vt 0.726562 0.976562
vt 0.726562 0.527344
vt 0.023438 0.476562
vt -0.000000 1.203125
vt 0.699219 1.203125
vt 0.902344 0.898438
vt 0.851562 0.898438
s 0
usemtl Material
f 11/1/1 16/2/1 13/3/1 14/4/1
f 2/5/2 4/6/2 3/7/2 1/8/2
f 12/9/2 13/10/2 16/11/2 10/12/2
f 10/13/3 9/14/3 15/1/3 12/2/3
f 9/6/4 11/15/4 14/11/4 15/12/4
f 2/16/1 6/17/1 8/13/1 4/18/1
f 6/19/5 2/20/5 9/9/5 10/21/5
f 2/20/5 1/22/5 11/10/5 9/9/5
f 8/23/6 7/24/6 13/3/6 12/25/6
f 3/26/6 4/27/6 15/10/6 14/4/6
f 5/28/5 6/19/5 10/21/5 16/25/5
f 7/24/6 3/26/6 14/4/6 13/3/6
f 4/27/6 8/23/6 12/25/6 15/10/6
f 1/22/5 5/28/5 16/25/5 11/10/5
f 3/16/3 7/17/3 5/29/3 1/30/3
f 8/7/4 6/8/4 5/31/4 7/32/4
