# Blender 4.1.1
# www.blender.org
mtllib SlidingWindow.mtl
o Window
v -1.300000 0.200000 0.100000
v -1.300000 1.800000 0.100000
v -1.300000 0.200000 0.000000
v -1.300000 1.800000 0.000000
v -0.100000 0.200000 0.100000
v -0.100000 1.800000 0.100000
v -0.100000 0.200000 0.000000
v -0.100000 1.800000 0.000000
v -1.400000 0.100000 0.100000
v -1.400000 1.900000 0.100000
v -1.400000 1.900000 0.000000
v -1.400000 0.100000 0.000000
v -0.000000 0.100000 0.000000
v -0.000000 1.900000 0.000000
v -0.000000 1.900000 0.100000
v -0.000000 0.100000 0.100000
v -0.653333 0.100000 0.000000
v -0.753333 0.100000 0.000000
v -0.753333 1.900000 0.000000
v -0.653333 1.900000 0.000000
v -0.753333 0.100000 0.100000
v -0.653333 0.100000 0.100000
v -0.653333 1.900000 0.100000
v -0.753333 1.900000 0.100000
v -0.653333 0.200000 0.000000
v -0.753333 0.200000 0.000000
v -0.753333 1.800000 0.000000
v -0.653333 1.800000 0.000000
v -0.753333 0.200000 0.100000
v -0.653333 0.200000 0.100000
v -0.653333 1.800000 0.100000
v -0.753333 1.800000 0.100000
v -1.400000 1.100000 0.100000
v -1.400000 1.200000 0.100000
v -1.400000 1.200000 0.000000
v -1.400000 1.100000 0.000000
v -0.000000 1.200000 0.000000
v -0.000000 1.100000 0.000000
v -0.000000 1.200000 0.100000
v -0.000000 1.100000 0.100000
v -1.300000 1.100000 0.100000
v -1.300000 1.200000 0.100000
v -1.300000 1.200000 0.000000
v -1.300000 1.100000 0.000000
v -0.100000 1.200000 0.000000
v -0.100000 1.100000 0.000000
v -0.100000 1.200000 0.100000
v -0.100000 1.100000 0.100000
v -0.653333 1.200000 0.100000
v -0.653333 1.100000 0.100000
v -0.753333 1.200000 0.100000
v -0.753333 1.100000 0.100000
v -0.753333 1.200000 0.000000
v -0.753333 1.100000 0.000000
v -0.653333 1.200000 0.000000
v -0.653333 1.100000 0.000000
vn -1.0000 -0.0000 -0.0000
vn 1.0000 -0.0000 -0.0000
vn -0.0000 1.0000 -0.0000
vn -0.0000 -0.0000 1.0000
vn -0.0000 -0.0000 -1.0000
vn -0.0000 -1.0000 -0.0000
vt 0.575000 0.000000
vt 0.625000 0.000000
vt 0.625000 0.250000
vt 0.575000 0.250000
vt 0.575000 0.500000
vt 0.625000 0.500000
vt 0.625000 0.750000
vt 0.575000 0.750000
vt 0.825000 0.500000
vt 0.875000 0.500000
vt 0.875000 0.750000
vt 0.825000 0.750000
vt 0.566570 0.981936
vt 0.610950 0.981935
vt 0.625000 1.000000
vt 0.575000 1.000000
vt 0.610950 0.310839
vt 0.610950 0.268065
vt 0.625000 0.300000
vt 0.566570 0.481935
vt 0.610950 0.481935
vt 0.389050 0.939161
vt 0.389050 0.981935
vt 0.375000 1.000000
vt 0.375000 0.950000
vt 0.610950 0.939161
vt 0.625000 0.950000
vt 0.610950 0.896387
vt 0.625000 0.900000
vt 0.610950 0.853613
vt 0.625000 0.850000
vt 0.389050 0.853613
vt 0.389050 0.896387
vt 0.375000 0.900000
vt 0.375000 0.850000
vt 0.610950 0.396387
vt 0.610950 0.353613
vt 0.625000 0.350000
vt 0.625000 0.400000
vt 0.389050 0.268065
vt 0.389050 0.310839
vt 0.375000 0.300000
vt 0.375000 0.250000
vt 0.389050 0.353613
vt 0.375000 0.350000
vt 0.389050 0.396387
vt 0.375000 0.400000
vt 0.225000 0.500000
vt 0.725000 0.500000
vt 0.775000 0.500000
vt 0.775000 0.750000
vt 0.725000 0.750000
vt 0.125000 0.500000
vt 0.175000 0.500000
vt 0.175000 0.750000
vt 0.125000 0.750000
vt 0.225000 0.750000
vt 0.275000 0.500000
vt 0.275000 0.750000
vt 0.566570 0.896387
vt 0.566570 0.939161
vt 0.566570 0.310839
vt 0.566570 0.353613
vt 0.522190 0.353613
vt 0.566570 0.396387
vt 0.522190 0.396387
vt 0.477810 0.310839
vt 0.522190 0.310839
vt 0.477810 0.353613
vt 0.522190 0.268065
vt 0.566570 0.268065
vt 0.477810 0.896387
vt 0.522190 0.896387
vt 0.522190 0.939161
vt 0.477810 0.939161
vt 0.522190 0.853613
vt 0.566570 0.853613
vt 0.610950 0.768065
vt 0.566570 0.768065
vt 0.522190 0.768065
vt 0.525000 0.750000
vt 0.477810 0.768065
vt 0.475000 0.750000
vt 0.477810 0.481935
vt 0.522190 0.481935
vt 0.525000 0.500000
vt 0.475000 0.500000
vt 0.525000 0.250000
vt 0.477810 0.268065
vt 0.475000 0.250000
vt 0.477810 0.981935
vt 0.522190 0.981935
vt 0.525000 1.000000
vt 0.475000 1.000000
vt 0.475000 0.000000
vt 0.525000 0.000000
s 0
f 34/1/1 10/2/1 11/3/1 35/4/1
f 37/5/2 14/6/2 15/7/2 39/8/2
f 19/9/3 11/10/3 10/11/3 24/12/3
f 42/13/4 2/14/4 10/15/4 34/16/4
f 27/17/5 4/18/5 11/3/5 19/19/5
f 45/20/5 8/21/5 14/6/5 37/5/5
f 29/22/4 1/23/4 9/24/4 21/25/4
f 2/14/4 32/26/4 24/27/4 10/15/4
f 32/26/4 31/28/4 23/29/4 24/27/4
f 31/28/4 6/30/4 15/31/4 23/29/4
f 5/32/4 30/33/4 22/34/4 16/35/4
f 30/33/4 29/22/4 21/25/4 22/34/4
f 8/36/5 28/37/5 20/38/5 14/39/5
f 28/37/5 27/17/5 19/19/5 20/38/5
f 3/40/5 26/41/5 18/42/5 12/43/5
f 26/41/5 25/44/5 17/45/5 18/42/5
f 25/44/5 7/46/5 13/47/5 17/48/5
f 14/49/3 20/50/3 23/51/3 15/52/3
f 20/50/3 19/9/3 24/12/3 23/51/3
f 12/53/6 18/54/6 21/55/6 9/56/6
f 18/54/6 17/48/6 22/57/6 21/55/6
f 17/48/6 13/58/6 16/59/6 22/57/6
f 49/60/4 31/28/4 32/26/4 51/61/4
f 53/62/5 27/17/5 28/37/5 55/63/5
f 56/64/5 55/63/5 45/65/5 46/66/5
f 26/67/5 54/68/5 56/64/5 25/69/5
f 54/68/5 53/62/5 55/63/5 56/64/5
f 44/70/5 43/71/5 53/62/5 54/68/5
f 30/72/4 50/73/4 52/74/4 29/75/4
f 50/73/4 49/60/4 51/61/4 52/74/4
f 48/76/4 47/77/4 49/60/4 50/73/4
f 6/78/4 47/79/4 39/8/4 15/7/4
f 47/79/4 48/80/4 40/81/4 39/8/4
f 48/80/4 5/82/4 16/83/4 40/81/4
f 7/84/5 46/85/5 38/86/5 13/87/5
f 46/85/5 45/20/5 37/5/5 38/86/5
f 4/18/5 43/71/5 35/4/5 11/3/5
f 43/71/5 44/70/5 36/88/5 35/4/5
f 44/70/5 3/89/5 12/90/5 36/88/5
f 1/91/4 41/92/4 33/93/4 9/94/4
f 41/92/4 42/13/4 34/16/4 33/93/4
f 52/74/4 51/61/4 42/13/4 41/92/4
f 13/87/2 38/86/2 40/81/2 16/83/2
f 38/86/2 37/5/2 39/8/2 40/81/2
f 9/95/1 33/96/1 36/88/1 12/90/1
f 33/96/1 34/1/1 35/4/1 36/88/1
f 26/41/3 3/40/3 1/23/3 29/22/3
f 7/46/3 25/44/3 30/33/3 5/32/3
f 7/84/1 5/82/1 48/80/1 46/85/1
f 56/64/6 46/66/6 48/76/6 50/73/6
f 30/72/2 25/69/2 56/64/2 50/73/2
f 29/75/1 52/74/1 54/68/1 26/67/1
f 44/70/6 54/68/6 52/74/6 41/92/6
f 1/91/2 3/89/2 44/70/2 41/92/2
f 55/63/3 49/60/3 47/77/3 45/65/3
f 28/37/6 8/36/6 6/30/6 31/28/6
f 49/60/2 55/63/2 28/37/2 31/28/2
f 45/20/1 47/79/1 6/78/1 8/21/1
f 43/71/3 42/13/3 51/61/3 53/62/3
f 51/61/1 32/26/1 27/17/1 53/62/1
f 32/26/6 2/14/6 4/18/6 27/17/6
f 42/13/2 43/71/2 4/18/2 2/14/2
