# Blender 4.2.0
# www.blender.org
o 2x2.001
v 2.500000 0.050000 -2.500000
v 2.500000 0.000000 -2.500000
v 2.500000 0.050000 2.500000
v 2.500000 0.000000 2.500000
v -2.500000 0.050000 -2.500000
v -2.500000 0.000000 -2.500000
v -2.500000 0.050000 2.500000
v -2.500000 0.000000 2.500000
vn -0.0000 1.0000 -0.0000
vn -0.0000 -0.0000 1.0000
vn -1.0000 -0.0000 -0.0000
vn -0.0000 -1.0000 -0.0000
vn 1.0000 -0.0000 -0.0000
vn -0.0000 -0.0000 -1.0000
vt 1.250000 1.250000
vt 0.000000 1.250000
vt 0.000000 0.000000
vt 1.250000 0.000000
vt 2.500000 0.000000
vt 2.500000 0.012500
vt 1.250000 0.012500
vt 1.250000 0.000000
vt 0.000000 2.500000
vt 1.250000 2.500000
vt 2.500000 0.012500
vt 2.500000 0.025000
vt 1.250000 0.025000
vt 1.250000 0.012500
s 0
f 1/1/1 5/2/1 7/3/1 3/4/1
f 4/5/2 3/6/2 7/7/2 8/8/2
f 8/8/3 7/7/3 5/6/3 6/5/3
f 6/9/4 2/10/4 4/1/4 8/2/4
f 2/11/5 1/12/5 3/13/5 4/14/5
f 6/14/6 5/13/6 1/12/6 2/11/6
