# Blender 4.2.0
# www.blender.org
mtllib Plates1x1.mtl
o Cube
v 0.500000 0.050000 -0.500000
v 0.500000 0.000000 -0.500000
v 0.500000 0.050000 0.500000
v 0.500000 0.000000 0.500000
v -0.500000 0.050000 -0.500000
v -0.500000 0.000000 -0.500000
v -0.500000 0.050000 0.500000
v -0.500000 0.000000 0.500000
vn -0.0000 1.0000 -0.0000
vn -0.0000 -0.0000 1.0000
vn -1.0000 -0.0000 -0.0000
vn -0.0000 -1.0000 -0.0000
vn 1.0000 -0.0000 -0.0000
vn -0.0000 -0.0000 -1.0000
vt 0.250000 0.250000
vt -0.000000 0.250000
vt -0.000000 0.000000
vt 0.250000 0.000000
vt 0.500000 0.000000
vt 0.500000 0.011719
vt 0.250000 0.011719
vt -0.000000 0.500000
vt 0.250000 0.500000
vt 0.500000 0.023438
vt 0.250000 0.023438
s 0
usemtl Material
f 1/1/1 5/2/1 7/3/1 3/4/1
f 4/5/2 3/6/2 7/7/2 8/4/2
f 8/4/3 7/7/3 5/6/3 6/5/3
f 6/8/4 2/9/4 4/1/4 8/2/4
f 2/6/5 1/10/5 3/11/5 4/7/5
f 6/7/6 5/11/6 1/10/6 2/6/6
