# Blender 4.1.1
# www.blender.org
mtllib AwningWindow.mtl
o Window
v -0.300000 0.200000 0.000000
v -0.300000 0.800000 0.000000
v -0.300000 0.200000 -0.100000
v -0.300000 0.800000 -0.100000
v 0.800000 0.200000 0.000000
v 0.800000 0.800000 0.000000
v 0.800000 0.200000 -0.100000
v 0.800000 0.800000 -0.100000
v -0.400000 0.100000 0.000000
v -0.400000 0.900000 0.000000
v -0.400000 0.900000 -0.100000
v -0.400000 0.100000 -0.100000
v 0.900000 0.100000 -0.100000
v 0.900000 0.900000 -0.100000
v 0.900000 0.900000 0.000000
v 0.900000 0.100000 0.000000
vn -1.0000 -0.0000 -0.0000
vn 1.0000 -0.0000 -0.0000
vn -0.0000 1.0000 -0.0000
vn -0.0000 -1.0000 -0.0000
vn -0.0000 -0.0000 1.0000
vn -0.0000 -0.0000 -1.0000
vt 0.375000 0.000000
vt 0.625000 0.000000
vt 0.625000 0.250000
vt 0.375000 0.250000
vt 0.406562 0.480577
vt 0.406562 0.769423
vt 0.593438 0.769423
vt 0.593438 0.480577
vt 0.375000 0.500000
vt 0.625000 0.500000
vt 0.625000 0.750000
vt 0.375000 0.750000
vt 0.406562 0.269423
vt 0.406562 0.980577
vt 0.125000 0.500000
vt 0.125000 0.750000
vt 0.875000 0.500000
vt 0.875000 0.750000
vt 0.593438 0.980577
vt 0.625000 1.000000
vt 0.375000 1.000000
vt 0.593438 0.269423
s 0
f 9/1/1 10/2/1 11/3/1 12/4/1
f 7/5/1 5/6/1 6/7/1 8/8/1
f 13/9/2 14/10/2 15/11/2 16/12/2
f 7/5/3 3/13/3 1/14/3 5/6/3
f 12/15/4 13/9/4 16/12/4 9/16/4
f 14/10/3 11/17/3 10/18/3 15/11/3
f 1/14/5 2/19/5 10/20/5 9/21/5
f 4/22/6 3/13/6 12/4/6 11/3/6
f 3/13/6 7/5/6 13/9/6 12/15/6
f 8/8/6 4/22/6 11/3/6 14/10/6
f 7/5/6 8/8/6 14/10/6 13/9/6
f 6/7/5 5/6/5 16/12/5 15/11/5
f 5/6/5 1/14/5 9/21/5 16/12/5
f 2/19/5 6/7/5 15/11/5 10/20/5
f 4/22/4 8/8/4 6/7/4 2/19/4
f 1/14/2 3/13/2 4/22/2 2/19/2
