<?xml version="1.0" encoding="utf-8"?>
<!-- Generator: Adobe Illustrator 26.1.0, SVG Export Plug-In . SVG Version: 6.00 Build 0)  -->
<svg version="1.1" xmlns="http://www.w3.org/2000/svg" xmlns:xlink="http://www.w3.org/1999/xlink" x="0px" y="0px"
	 viewBox="0 0 16 16" style="enable-background:new 0 0 16 16;" xml:space="preserve">
<style type="text/css">
	.st0{fill:none;stroke:#FF3F3F;}
	.st1{fill:#FFFF3F;}
	.st2{fill:#3F3FFF;}
	.st3{fill:#FF3F3F;}
</style>
<g id="图层_2">
	<path class="st0" d="M8.5,8.5L8.5,8.5v-3h1.2c0.5,0,0.8,0.4,0.8,0.8v2.2l0,0v-2L12,7.3c0.3,0.1,0.5,0.4,0.5,0.7v3.9
		c0,0.4-0.2,0.8-0.4,1l-1.1,1.1c-0.3,0.3-0.7,0.4-1,0.4H7.1c-0.4,0-0.8-0.2-1-0.4l-0.6-0.6L4,12L2.7,8.9c-0.1-0.2-0.1-0.5,0-0.8
		L3,7.5c0.2-0.4,0.8-0.4,1,0l0.5,1v-6c0-0.6,0.4-1,1-1h0c0.6,0,1,0.4,1,1v5l0,0v-3h1.2c0.5,0,0.8,0.4,0.8,0.8V8.5z"/>
</g>
<g id="图层_3">
	<rect x="2" y="11" class="st1" width="3" height="4"/>
	<rect x="1" y="10" class="st2" width="3" height="4"/>
	<rect y="12" class="st3" width="3" height="4"/>
</g>
</svg>
