# Blender 4.4.3
# www.blender.org
mtllib CenteralParkGrassGround.mtl
o GrassGround2.001
v 0.000000 0.000002 20.000000
v 0.000000 0.000002 20.000000
v 0.000000 -0.000002 -20.000000
v 0.000000 -0.000002 -20.000000
v 5.000000 0.002502 19.999996
v 5.000000 0.002502 19.999996
v 5.000000 0.002503 40.000000
v 5.000000 0.002497 -40.000000
v 5.000000 0.002498 -19.999998
v 5.000000 0.002498 -19.999998
v 6.180340 0.002501 19.021132
v 6.180340 0.002501 19.021132
v 6.180340 0.002501 19.021132
v 6.180342 0.002499 -19.021130
v 6.180342 0.002499 -19.021130
v 6.180342 0.002499 -19.021130
v 11.755704 0.002501 16.180340
v 11.755704 0.002501 16.180340
v 11.755711 0.002499 -16.180336
v 11.755711 0.002499 -16.180336
v 16.180340 0.002501 11.755705
v 16.180340 0.002501 11.755705
v 16.180340 0.002499 -11.755706
v 16.180340 0.002499 -11.755706
v 19.021126 0.000000 6.180340
v 19.021126 0.000000 6.180340
v 19.021132 -0.000000 -6.180338
v 19.021132 -0.000000 -6.180338
v 20.000000 0.000000 0.000000
v 20.000000 0.000000 5.000000
v 20.000002 -0.000000 -4.999999
v 40.000000 0.000000 5.000000
v 40.000000 0.000003 40.000000
v 40.000000 0.000003 40.000000
v 40.000000 0.000003 40.000000
v 40.000000 0.000003 40.000000
v 40.000000 -0.000000 -5.000000
v 40.000000 -0.000003 -40.000008
v 40.000000 -0.000003 -40.000008
v 40.000000 -0.000003 -40.000008
v 40.000000 -0.000003 -40.000008
v -5.000000 0.000003 40.000000
v -5.000000 -0.000002 -19.999996
v -5.000000 0.000002 20.000000
v -5.000004 -0.000003 -40.000000
v -6.180000 0.000001 19.021130
v -6.180000 0.000001 19.021130
v -6.180344 -0.000001 -19.021130
v -6.180344 -0.000001 -19.021130
v -11.755707 0.001668 16.180336
v -11.755707 0.001668 16.180336
v -11.755709 0.001666 -16.180336
v -11.755709 0.001666 -16.180336
v -16.180340 -0.000001 -11.755707
v -16.180340 -0.000001 -11.755707
v -16.180342 0.000001 11.755704
v -16.180342 0.000001 11.755704
v -19.021130 -0.000833 6.180340
v -19.021130 -0.000833 6.180340
v -19.021130 -0.000833 6.180340
v -19.021135 0.001667 -6.180340
v -19.021135 0.001667 -6.180340
v -19.021135 0.001667 -6.180340
v -19.999996 0.000000 5.000000
v -19.999996 0.000000 5.000000
v -20.000000 -0.000000 -0.000004
v -20.000000 -0.000000 -0.000004
v -20.000004 -0.000000 -5.000000
v -20.000004 -0.000000 -5.000000
v -40.000000 0.000000 5.000000
v -40.000000 -0.000000 -5.000000
v -40.000000 -0.000003 -40.000000
v -40.000000 -0.000003 -40.000000
v -40.000000 -0.000003 -40.000000
v -40.000000 -0.000003 -40.000000
v -40.000000 -0.000003 -40.000000
v -40.000008 0.000003 40.000000
v -40.000008 0.000003 40.000000
v -40.000008 0.000003 40.000000
v -40.000008 0.000003 40.000000
v -40.000008 0.000003 40.000000
v 64.000000 0.000000 5.000000
v 64.000000 0.000003 40.000000
v 64.000000 -0.000000 -5.000000
v 64.000000 -0.000003 -40.000008
vn -0.0000 1.0000 -0.0000
vn -0.0003 1.0000 0.0002
vn 0.0001 1.0000 -0.0000
vn -0.0000 1.0000 0.0001
vn 0.0100 0.9992 -0.0390
vn 0.0009 1.0000 -0.0009
vn 0.0002 1.0000 0.0003
vn 0.0005 1.0000 -0.0007
vn -0.0001 1.0000 -0.0002
vn 0.0003 1.0000 0.0002
vn -0.0010 1.0000 -0.0006
vn 0.0145 0.9998 0.0105
vn -0.0023 1.0000 -0.0000
vn -0.0006 1.0000 0.0040
vn 0.0040 1.0000 0.0049
vn -0.0017 1.0000 -0.0000
vn -0.0020 1.0000 -0.0000
vn 0.0146 0.9998 -0.0105
vn 0.0005 1.0000 0.0007
vn 0.0009 1.0000 0.0009
vn -0.0001 1.0000 0.0001
vn -0.0008 1.0000 0.0006
vn -0.0010 1.0000 0.0006
vn -0.0001 1.0000 -0.0000
vn -0.0098 0.9998 0.0158
vn 0.0100 0.9992 0.0390
vn -0.0000 1.0000 -0.0001
vt 10.335938 1.726562
vt 10.335938 10.320312
vt 5.187500 2.015625
vt 5.421875 1.726562
vt 4.484375 -2.390625
vt 10.335938 -9.320312
vt 5.187500 -1.015625
vt 3.398438 -3.476562
vt 10.335938 -0.726562
vt 5.421875 -0.726562
vt 1.742188 -4.414062
vt 1.742188 -9.320312
vt 2.031250 -4.171875
vt 0.515625 -4.414062
vt -0.718750 -4.414062
vt -1.007812 -4.171875
vt -2.375000 -3.476562
vt -3.460938 -2.390625
vt -9.312500 -9.320312
vt 4.484375 3.390625
vt 3.398438 4.476562
vt 5.421875 0.500000
vt -0.718750 -9.320312
vt -4.398438 -0.726562
vt -9.312500 -0.726562
vt -4.156250 -1.015625
vt -4.398438 0.500000
vt -4.398438 1.726562
vt -4.156250 2.015625
vt -9.312500 10.320312
vt -3.460938 3.390625
vt -2.375000 4.476562
vt -0.718750 10.320312
vt -1.007812 5.171875
vt -0.718750 5.414062
vt -9.312500 1.726562
vt 0.515625 5.414062
vt 2.031250 5.171875
vt 1.742188 5.414062
vt 1.742188 10.320312
s 1
usemtl GrassGround
f 37/1/1 38/2/1 27/3/1
f 37/1/1 27/3/1 31/4/1
f 22/5/2 36/6/2 26/7/2
f 33/6/1 21/5/1 17/8/1
f 25/7/1 33/6/1 32/9/1
f 25/7/1 32/9/1 30/10/1
f 5/11/3 7/12/3 35/6/3
f 5/11/3 35/6/3 12/13/4
f 34/6/4 18/8/4 11/13/4
f 2/14/5 6/11/5 13/13/5
f 44/15/1 1/14/1 46/16/1
f 51/17/6 56/18/6 79/19/6
f 78/19/7 47/16/7 50/17/8
f 23/20/1 38/2/1 19/21/1
f 29/22/1 31/4/1 27/3/1
f 41/2/9 24/20/9 28/3/9
f 42/23/1 44/15/1 46/16/1
f 42/23/1 46/16/1 77/19/1
f 64/24/10 70/25/1 81/19/11
f 64/24/10 81/19/11 60/26/11
f 59/26/12 80/19/12 57/18/12
f 67/27/13 65/24/14 58/26/15
f 69/28/13 66/27/16 63/29/17
f 74/30/18 61/29/18 55/31/18
f 73/30/19 54/31/19 52/32/20
f 45/33/1 72/30/1 48/34/1
f 45/33/1 48/34/1 43/35/1
f 71/36/21 68/28/22 62/29/23
f 71/36/21 62/29/23 75/30/24
f 76/30/25 53/32/25 49/34/25
f 3/37/1 43/35/1 48/34/1
f 25/7/1 30/10/1 29/22/1
f 4/37/26 16/38/26 10/39/26
f 39/2/27 14/38/27 20/21/27
f 8/40/3 9/39/1 15/38/1
f 8/40/3 15/38/1 40/2/3
f 32/9/1 33/6/1 83/6/1 82/9/1
f 38/2/1 37/1/1 84/1/1 85/2/1
