# Blender 4.4.3
# www.blender.org
mtllib CenteralParkGrassRoad.mtl
o GrassGround2
v 0.000000 0.000000 20.000000
v 0.000000 0.000000 -20.000000
v 5.000000 0.002500 19.999996
v 5.000000 0.002500 19.999996
v 5.000000 0.002500 40.000000
v 5.000000 0.002500 40.000000
v 5.000000 0.002500 -40.000000
v 5.000000 0.002500 -40.000000
v 5.000000 0.100000 20.000000
v 5.000000 0.100000 20.000000
v 5.000000 0.100000 20.000000
v 5.000000 0.100000 40.000000
v 5.000000 0.100000 40.000000
v 5.000000 0.100000 40.000000
v 5.000000 0.100000 -20.000000
v 5.000000 0.100000 -20.000000
v 5.000000 0.100000 -20.000000
v 5.000000 0.100000 -40.000000
v 5.000000 0.100000 -40.000000
v 5.000000 0.100000 -40.000000
v 5.000000 0.002500 -19.999998
v 5.000000 0.002500 -19.999998
v 20.000000 0.000000 0.000000
v 20.000000 0.000000 5.000000
v 20.000000 0.000000 5.000000
v 20.000000 0.100000 5.000000
v 20.000000 0.100000 5.000000
v 20.000000 0.100000 5.000000
v 20.000000 0.100000 -5.000000
v 20.000000 0.100000 -5.000000
v 20.000000 0.100000 -5.000000
v 20.000002 0.000000 -4.999999
v 20.000002 0.000000 -4.999999
v 40.000000 0.000000 5.000000
v 40.000000 0.000000 5.000000
v 40.000000 0.000000 -5.000000
v 40.000000 0.000000 -5.000000
v 40.000000 0.100000 5.000000
v 40.000000 0.100000 5.000000
v 40.000000 0.100000 5.000000
v 40.000000 0.100000 -5.000000
v 40.000000 0.100000 -5.000000
v 40.000000 0.100000 -5.000000
v -5.000000 0.000000 40.000000
v -5.000000 0.000000 40.000000
v -5.000000 0.000000 -19.999996
v -5.000000 0.000000 -19.999996
v -5.000000 0.100000 -20.000000
v -5.000000 0.100000 -20.000000
v -5.000000 0.100000 -20.000000
v -5.000000 0.100000 -40.000000
v -5.000000 0.100000 -40.000000
v -5.000000 0.100000 -40.000000
v -5.000000 0.100000 20.000000
v -5.000000 0.100000 20.000000
v -5.000000 0.100000 20.000000
v -5.000000 0.100000 40.000000
v -5.000000 0.100000 40.000000
v -5.000000 0.100000 40.000000
v -5.000000 0.000000 20.000000
v -5.000000 0.000000 20.000000
v -5.000004 0.000000 -40.000000
v -5.000004 0.000000 -40.000000
v -19.999996 0.000000 5.000000
v -19.999996 0.000000 5.000000
v -20.000000 0.000000 -0.000004
v -20.000000 0.100000 5.000000
v -20.000000 0.100000 5.000000
v -20.000000 0.100000 5.000000
v -20.000000 0.100000 -5.000000
v -20.000000 0.100000 -5.000000
v -20.000000 0.100000 -5.000000
v -20.000004 0.000000 -5.000000
v -20.000004 0.000000 -5.000000
v -40.000000 0.000000 5.000000
v -40.000000 0.000000 5.000000
v -40.000000 0.000000 -5.000000
v -40.000000 0.000000 -5.000000
v -40.000000 0.100000 5.000000
v -40.000000 0.100000 5.000000
v -40.000000 0.100000 5.000000
v -40.000000 0.100000 -5.000000
v -40.000000 0.100000 -5.000000
v -40.000000 0.100000 -5.000000
vn -0.0000 1.0000 -0.0000
vn -0.0000 -0.0000 -1.0000
vn -1.0000 -0.0000 -0.0000
vn -0.0000 -0.0000 1.0000
vn 1.0000 -0.0000 -0.0000
vt 7.500000 0.000000
vt 7.500000 2.500000
vt 2.500000 2.500000
vt 2.500000 0.000000
vt 2.500000 5.000000
vt 0.000000 5.000000
vt 0.000000 0.000000
vt -5.000000 0.742188
vt -5.000000 0.757812
vt 0.000000 0.757812
vt 0.000000 0.742188
vt -5.000000 0.507812
vt -5.000000 0.492188
vt -6.250000 0.492188
vt -7.500000 0.507812
vt -5.000000 1.257812
vt -7.500000 1.257812
vt -7.500000 1.242188
vt -5.000000 1.242188
vt -5.000000 1.742188
vt -5.000000 1.726562
vt 0.000000 1.742188
vt 0.000000 1.757812
vt -7.500000 1.007812
vt -5.000000 1.007812
vt -6.250000 0.992188
vt -7.500000 1.492188
vt -7.500000 1.476562
vt -6.250000 1.476562
vt -5.000000 1.492188
vt -7.500000 1.726562
vt -7.500000 1.742188
vt 0.000000 0.007812
vt 0.000000 -0.007812
vt -5.000000 -0.007812
vt -5.000000 0.007812
vt 0.000000 1.007812
vt 0.000000 0.992188
vt -5.000000 0.992188
vt -5.000000 1.007812
vt 0.000000 1.257812
vt -5.000000 1.257812
vt -5.000000 1.242188
vt 0.000000 1.242188
vt 5.000000 5.000000
vt 5.000000 7.500000
vt 0.000000 7.500000
vt -5.000000 1.476562
vt -5.000000 -0.007812
vt -5.000000 0.007812
vt -6.250000 -0.007812
vt -7.500000 0.007812
vt 0.000000 1.492188
vt 0.000000 1.507812
vt -5.000000 0.242188
vt -7.500000 0.242188
vt -7.500000 0.257812
vt -5.000000 0.257812
vt -7.500000 0.757812
vt -7.500000 0.742188
vt -5.000000 0.742188
vt -5.000000 0.757812
vt 7.500000 7.500000
vt 5.000000 2.500000
vt 0.000000 0.507812
vt -5.000000 0.507812
vt -5.000000 0.492188
vt 0.000000 0.492188
vt -7.500000 0.492188
vt -5.000000 0.992188
vt -7.500000 0.992188
vt -7.500000 -0.007812
vt -5.000000 0.257812
vt -5.000000 0.242188
vt 0.000000 0.242188
vt 0.000000 0.257812
s 0
usemtl ConcreteBricks
f 39/1/1 42/2/1 30/3/1
f 39/1/1 30/3/1 27/4/1
f 16/4/1 19/5/1 52/6/1
f 16/4/1 52/6/1 49/7/1
f 32/8/2 29/9/2 41/10/2
f 32/8/2 41/10/2 36/11/2
f 31/12/3 33/13/3 23/14/3
f 23/14/3 28/15/3 31/12/3
f 12/16/4 57/17/4 44/18/4
f 12/16/4 44/18/4 5/19/4
f 14/20/5 6/21/5 4/22/5
f 14/20/5 4/22/5 11/23/5
f 54/24/2 9/25/2 1/26/2
f 69/27/5 65/28/5 66/29/5
f 66/29/5 72/30/5 69/27/5
f 84/20/3 78/21/3 76/31/3
f 84/20/3 76/31/3 81/32/3
f 53/33/3 63/34/3 47/35/3
f 53/33/3 47/35/3 50/36/3
f 56/37/3 61/38/3 45/39/3
f 56/37/3 45/39/3 59/40/3
f 67/41/4 79/42/4 75/43/4
f 67/41/4 75/43/4 64/44/4
f 68/45/1 71/46/1 83/47/1
f 68/45/1 83/47/1 80/6/1
f 74/48/5 72/30/5 66/29/5
f 21/49/4 15/50/4 2/51/4
f 48/52/4 2/51/4 15/50/4
f 73/53/2 77/48/2 82/30/2
f 73/53/2 82/30/2 70/54/2
f 7/55/2 62/56/2 51/57/2
f 7/55/2 51/57/2 18/58/2
f 40/59/5 35/60/5 37/61/5
f 40/59/5 37/61/5 43/62/5
f 13/2/1 10/63/1 55/46/1
f 13/2/1 55/46/1 58/64/1
f 38/65/4 26/66/4 24/67/4
f 38/65/4 24/67/4 34/68/4
f 25/69/3 28/15/3 23/14/3
f 1/26/2 9/25/2 3/70/2
f 60/71/2 54/24/2 1/26/2
f 46/72/4 2/51/4 48/52/4
f 17/73/5 22/74/5 8/75/5
f 17/73/5 8/75/5 20/76/5
