# Blender 4.0.2
# www.blender.org
mtllib CentralSquareGround.mtl
o Cylinder:001
v 0.000000 -0.500000 -6.500000
v 0.000000 0.500000 -6.500000
v 2.008610 -0.500000 -6.181868
v 2.008610 0.500000 -6.181868
v 3.820604 -0.500000 -5.258611
v 3.820604 0.500000 -5.258611
v 5.258611 -0.500000 -3.820604
v 5.258611 0.500000 -3.820604
v 6.181868 -0.500000 -2.008610
v 6.181868 0.500000 -2.008610
v 6.500000 -0.500000 0.000000
v 6.500000 0.500000 -0.000000
v 6.181868 -0.500000 2.008610
v 6.181868 0.500000 2.008610
v 5.258611 -0.500000 3.820604
v 5.258611 0.500000 3.820604
v 3.820604 -0.500000 5.258611
v 3.820604 0.500000 5.258611
v 2.008610 -0.500000 6.181868
v 2.008610 0.500000 6.181868
v 0.000000 -0.500000 6.500000
v 0.000000 0.500000 6.500000
v -2.008610 -0.500000 6.181868
v -2.008610 0.500000 6.181868
v -3.820604 -0.500000 5.258611
v -3.820604 0.500000 5.258611
v -5.258611 -0.500000 3.820604
v -5.258611 0.500000 3.820604
v -6.181868 -0.500000 2.008610
v -6.181868 0.500000 2.008610
v -6.500000 -0.500000 0.000000
v -6.500000 0.500000 -0.000000
v -6.181868 -0.500000 -2.008610
v -6.181868 0.500000 -2.008610
v -5.258611 -0.500000 -3.820604
v -5.258611 0.500000 -3.820604
v -3.820604 -0.500000 -5.258611
v -3.820604 0.500000 -5.258611
v -2.008610 -0.500000 -6.181868
v -2.008610 0.500000 -6.181868
v 0.000000 -0.500001 -7.000000
v 0.000000 0.499999 -7.000000
v 2.163119 -0.500000 -6.657396
v 2.163119 0.499999 -6.657396
v 4.114497 -0.500000 -5.663119
v 4.114497 0.500000 -5.663119
v 5.663119 -0.500000 -4.114497
v 5.663119 0.500000 -4.114497
v 6.657396 -0.500000 -2.163119
v 6.657396 0.500000 -2.163119
v 7.000000 -0.500000 0.000000
v 7.000000 0.500000 -0.000000
v 6.657396 -0.500000 2.163119
v 6.657396 0.500000 2.163119
v 5.663119 -0.500000 4.114497
v 5.663119 0.500000 4.114497
v 4.114497 -0.500000 5.663119
v 4.114497 0.500000 5.663119
v 2.163119 -0.499999 6.657396
v 2.163119 0.500000 6.657396
v 0.000000 -0.499999 7.000000
v 0.000000 0.500001 7.000000
v -2.163119 -0.499999 6.657396
v -2.163119 0.500000 6.657396
v -4.114497 -0.500000 5.663119
v -4.114497 0.500000 5.663119
v -5.663119 -0.500000 4.114497
v -5.663119 0.500000 4.114497
v -6.657396 -0.500000 2.163119
v -6.657396 0.500000 2.163119
v -7.000000 -0.500000 0.000000
v -7.000000 0.500000 -0.000000
v -6.657396 -0.500000 -2.163119
v -6.657396 0.500000 -2.163119
v -5.663119 -0.500000 -4.114497
v -5.663119 0.500000 -4.114497
v -4.114497 -0.500000 -5.663119
v -4.114497 0.500000 -5.663119
v -2.163119 -0.500000 -6.657396
v -2.163119 0.499999 -6.657396
v -0.000004 -0.500001 -12.000000
v 3.708207 -0.500001 -11.412677
v 7.053426 -0.500001 -9.708201
v 9.708201 -0.500001 -7.053426
v 11.412677 -0.500000 -3.708207
v 12.000000 -0.500000 -0.000004
v 11.412677 -0.500000 3.708207
v 9.708201 -0.499999 7.053426
v 7.053426 -0.499999 9.708201
v 3.708207 -0.499999 11.412677
v 0.000004 -0.499999 12.000000
v -3.708207 -0.499999 11.412677
v -7.053426 -0.499999 9.708201
v -9.708201 -0.499999 7.053426
v -11.412677 -0.500000 3.708207
v -12.000000 -0.500000 0.000004
v -11.412677 -0.500000 -3.708207
v -9.708201 -0.500001 -7.053426
v -7.053426 -0.500001 -9.708201
v -3.708207 -0.500001 -11.412677
v -0.000001 -0.500001 -19.000000
v 5.871322 -0.500001 -18.070074
v 11.167919 -0.500001 -15.371324
v 15.371323 -0.500001 -11.167920
v 18.070074 -0.500000 -5.871324
v 19.000000 -0.500000 -0.000001
v 18.070074 -0.500000 5.871324
v 15.371323 -0.499999 11.167920
v 11.167919 -0.499999 15.371324
v 5.871322 -0.499999 18.070074
v 0.000001 -0.499999 19.000000
v -5.871322 -0.499999 18.070074
v -11.167919 -0.499999 15.371324
v -15.371323 -0.499999 11.167920
v -18.070074 -0.500000 5.871324
v -19.000000 -0.500000 -0.000001
v -18.070074 -0.500000 -5.871324
v -15.371323 -0.500001 -11.167920
v -11.167919 -0.500001 -15.371324
v -5.871322 -0.500001 -18.070074
v -0.000004 -0.500002 -21.000000
v 6.489353 -0.500001 -19.972189
v 12.343487 -0.500001 -16.989359
v 16.989355 -0.500001 -12.343493
v 19.972185 -0.500000 -6.489360
v 21.000000 -0.500000 -0.000004
v 19.972189 -0.500000 6.489353
v 16.989359 -0.499999 12.343487
v 12.343493 -0.499999 16.989355
v 6.489360 -0.499998 19.972185
v 0.000003 -0.499998 21.000000
v -6.489354 -0.499998 19.972189
v -12.343487 -0.499999 16.989359
v -16.989355 -0.499999 12.343493
v -19.972185 -0.500000 6.489360
v -21.000000 -0.500000 0.000004
v -19.972189 -0.500000 -6.489353
v -16.989359 -0.500001 -12.343487
v -12.343493 -0.500001 -16.989355
v -6.489361 -0.500001 -19.972185
v 0.000001 -0.300002 -19.500000
v 6.025832 -0.300001 -18.545601
v 11.461813 -0.300001 -15.775831
v 15.775832 -0.300001 -11.461813
v 18.545603 -0.300000 -6.025831
v 19.500000 -0.300000 0.000000
v 18.545601 -0.300000 6.025832
v 15.775831 -0.299999 11.461813
v 11.461812 -0.299999 15.775831
v 6.025831 -0.299999 18.545603
v -0.000001 -0.299999 19.500000
v -6.025832 -0.299999 18.545601
v -11.461813 -0.299999 15.775831
v -15.775832 -0.299999 11.461811
v -18.545603 -0.300000 6.025830
v -19.500000 -0.300000 -0.000001
v -18.545601 -0.300000 -6.025833
v -15.775831 -0.300001 -11.461813
v -11.461812 -0.300001 -15.775833
v -6.025831 -0.300001 -18.545603
v 0.000001 -0.300002 -20.500000
v 6.334849 -0.300002 -19.496658
v 12.049599 -0.300001 -16.584848
v 16.584848 -0.300001 -12.049597
v 19.496658 -0.300001 -6.334847
v 20.500000 -0.300000 0.000001
v 19.496658 -0.300000 6.334849
v 16.584848 -0.299999 12.049599
v 12.049597 -0.299999 16.584848
v 6.334847 -0.299999 19.496658
v -0.000001 -0.299998 20.500000
v -6.334849 -0.299999 19.496658
v -12.049599 -0.299999 16.584848
v -16.584848 -0.299999 12.049597
v -19.496658 -0.300000 6.334847
v -20.500000 -0.300000 -0.000001
v -19.496658 -0.300001 -6.334849
v -16.584848 -0.300001 -12.049599
v -12.049597 -0.300001 -16.584848
v -6.334847 -0.300002 -19.496658
vn -0.1564 -0.0000 0.9877
vn -0.4540 -0.0000 0.8910
vn -0.7071 -0.0000 0.7071
vn -0.8910 -0.0000 0.4540
vn -0.9877 -0.0000 0.1564
vn -0.9877 -0.0000 -0.1564
vn -0.8910 -0.0000 -0.4540
vn -0.7071 -0.0000 -0.7071
vn -0.4540 -0.0000 -0.8910
vn -0.1564 -0.0000 -0.9877
vn 0.1564 -0.0000 -0.9877
vn 0.4540 -0.0000 -0.8910
vn 0.7071 -0.0000 -0.7071
vn 0.8910 -0.0000 -0.4540
vn 0.9877 -0.0000 -0.1564
vn 0.9877 -0.0000 0.1564
vn 0.8910 -0.0000 0.4540
vn 0.7071 -0.0000 0.7071
vn 0.4540 -0.0000 0.8910
vn 0.1564 -0.0000 0.9877
vn -0.0000 1.0000 -0.0000
vn -0.3345 0.9269 0.1704
vn 0.2654 0.9269 -0.2654
vn -0.2654 0.9269 0.2654
vn 0.1704 0.9269 -0.3345
vn -0.1704 0.9269 0.3345
vn 0.0587 0.9269 -0.3708
vn -0.0587 0.9269 0.3707
vn -0.0587 0.9269 -0.3707
vn 0.0587 0.9269 0.3707
vn -0.1704 0.9269 -0.3345
vn 0.1704 0.9269 0.3345
vn -0.2654 0.9269 -0.2654
vn 0.2654 0.9269 0.2654
vn -0.3345 0.9269 -0.1704
vn 0.3345 0.9269 0.1704
vn -0.3708 0.9269 -0.0587
vn 0.3707 0.9269 0.0587
vn 0.3345 0.9269 -0.1704
vn 0.0587 0.9269 -0.3707
vn -0.0587 0.9269 0.3708
vn -0.3708 0.9269 0.0587
vn 0.3708 0.9269 -0.0587
vn -0.3707 0.9269 -0.0587
vn 0.3708 0.9269 0.0587
vn 0.3707 0.9269 -0.0587
vt 0.250000 0.051758
vt 0.200195 0.051758
vt 0.200195 0.031250
vt 0.250000 0.031250
vt 0.150391 0.051758
vt 0.150391 0.031250
vt 0.099609 0.051758
vt 0.099609 0.031250
vt 0.049805 0.051758
vt 0.049805 0.031250
vt 0.000000 0.051758
vt 0.000000 0.031250
vt 1.000000 0.051758
vt 0.950195 0.051758
vt 0.950195 0.031250
vt 1.000000 0.031250
vt 0.900391 0.051758
vt 0.900391 0.031250
vt 0.849609 0.051758
vt 0.849609 0.031250
vt 0.799805 0.051758
vt 0.799805 0.031250
vt 0.750000 0.051758
vt 0.750000 0.031250
vt 0.700195 0.051758
vt 0.700195 0.031250
vt 0.650391 0.051758
vt 0.650391 0.031250
vt 0.599609 0.051758
vt 0.599609 0.031250
vt 0.549805 0.051758
vt 0.549805 0.031250
vt 0.500000 0.051758
vt 0.500000 0.031250
vt 0.450195 0.051758
vt 0.450195 0.031250
vt 0.400391 0.051758
vt 0.400391 0.031250
vt 0.349609 0.051758
vt 0.349609 0.031250
vt 0.299805 0.051758
vt 0.299805 0.031250
vt 0.901367 0.724609
vt 0.810547 0.999023
vt 0.770508 0.984375
vt 0.861328 0.708984
vt 0.250000 0.000977
vt 0.250000 0.021484
vt 0.200195 0.021484
vt 0.200195 0.000977
vt 0.150391 0.021484
vt 0.150391 0.000977
vt 0.099609 0.021484
vt 0.099609 0.000977
vt 0.049805 0.021484
vt 0.049805 0.000977
vt 0.000000 0.021484
vt 0.000000 0.000977
vt 1.000000 0.000977
vt 1.000000 0.021484
vt 0.950195 0.021484
vt 0.950195 0.000977
vt 0.900391 0.021484
vt 0.900391 0.000977
vt 0.849609 0.021484
vt 0.849609 0.000977
vt 0.799805 0.021484
vt 0.799805 0.000977
vt 0.750000 0.021484
vt 0.750000 0.000977
vt 0.700195 0.021484
vt 0.700195 0.000977
vt 0.650391 0.021484
vt 0.650391 0.000977
vt 0.599609 0.021484
vt 0.599609 0.000977
vt 0.549805 0.021484
vt 0.549805 0.000977
vt 0.500000 0.021484
vt 0.500000 0.000977
vt 0.450195 0.021484
vt 0.450195 0.000977
vt 0.400391 0.021484
vt 0.400391 0.000977
vt 0.349609 0.021484
vt 0.349609 0.000977
vt 0.299805 0.021484
vt 0.299805 0.000977
vt 0.981445 0.878906
vt 0.965820 0.918945
vt 0.941406 0.958984
vt 0.981445 0.829102
vt 0.901367 0.984375
vt 0.965820 0.789062
vt 0.861328 0.999023
vt 0.941406 0.749023
vt 0.731445 0.749023
vt 0.691406 0.878906
vt 0.691406 0.829102
vt 0.706055 0.789062
vt 0.770508 0.724609
vt 0.706055 0.918945
vt 0.810547 0.708984
vt 0.731445 0.958984
vt 0.081055 0.322266
vt 0.071289 0.221680
vt 0.140625 0.221680
vt 0.130859 0.322266
vt 0.430664 0.424805
vt 0.420898 0.324219
vt 0.491211 0.324219
vt 0.481445 0.424805
vt 0.081055 0.424805
vt 0.071289 0.324219
vt 0.140625 0.324219
vt 0.130859 0.424805
vt 0.430664 0.322266
vt 0.420898 0.221680
vt 0.491211 0.221680
vt 0.481445 0.322266
vt 0.220703 0.322266
vt 0.210938 0.221680
vt 0.281250 0.221680
vt 0.270508 0.322266
vt 0.571289 0.424805
vt 0.560547 0.324219
vt 0.630859 0.324219
vt 0.621094 0.424805
vt 0.220703 0.424805
vt 0.210938 0.324219
vt 0.281250 0.324219
vt 0.270508 0.424805
vt 0.571289 0.322266
vt 0.560547 0.221680
vt 0.630859 0.221680
vt 0.621094 0.322266
vt 0.010742 0.322266
vt 0.000977 0.221680
vt 0.060547 0.322266
vt 0.361328 0.424805
vt 0.350586 0.324219
vt 0.411133 0.424805
vt 0.010742 0.424805
vt 0.000977 0.324219
vt 0.060547 0.424805
vt 0.361328 0.322266
vt 0.350586 0.221680
vt 0.411133 0.322266
vt 0.151367 0.322266
vt 0.201172 0.322266
vt 0.500977 0.424805
vt 0.550781 0.424805
vt 0.291016 0.322266
vt 0.340820 0.322266
vt 0.151367 0.424805
vt 0.201172 0.424805
vt 0.500977 0.322266
vt 0.550781 0.322266
vt 0.640625 0.424805
vt 0.701172 0.324219
vt 0.691406 0.424805
vt 0.291016 0.424805
vt 0.340820 0.424805
vt 0.640625 0.322266
vt 0.701172 0.221680
vt 0.691406 0.322266
vt 0.161133 0.807617
vt 0.130859 0.627930
vt 0.260742 0.627930
vt 0.231445 0.807617
vt 0.421875 0.616211
vt 0.391602 0.436523
vt 0.521484 0.436523
vt 0.492188 0.616211
vt 0.031250 0.999023
vt 0.000977 0.819336
vt 0.130859 0.819336
vt 0.100586 0.999023
vt 0.031250 0.807617
vt 0.000977 0.627930
vt 0.100586 0.807617
vt 0.291992 0.616211
vt 0.261719 0.436523
vt 0.362305 0.616211
vt 0.833984 0.324219
vt 0.803711 0.144531
vt 0.933594 0.144531
vt 0.904297 0.324219
vt 0.162109 0.616211
vt 0.131836 0.436523
vt 0.232422 0.616211
vt 0.863281 0.515625
vt 0.833008 0.335938
vt 0.962891 0.335938
vt 0.933594 0.515625
vt 0.032227 0.616211
vt 0.001953 0.436523
vt 0.101562 0.616211
vt 0.733398 0.515625
vt 0.703125 0.335938
vt 0.803711 0.515625
vt 0.550781 0.999023
vt 0.520508 0.819336
vt 0.650391 0.819336
vt 0.621094 0.999023
vt 0.550781 0.807617
vt 0.520508 0.627930
vt 0.650391 0.627930
vt 0.621094 0.807617
vt 0.801758 0.707031
vt 0.771484 0.527344
vt 0.901367 0.527344
vt 0.872070 0.707031
vt 0.420898 0.999023
vt 0.390625 0.819336
vt 0.491211 0.999023
vt 0.420898 0.807617
vt 0.390625 0.627930
vt 0.491211 0.807617
vt 0.671875 0.707031
vt 0.641602 0.527344
vt 0.741211 0.707031
vt 0.291016 0.999023
vt 0.260742 0.819336
vt 0.361328 0.999023
vt 0.291016 0.807617
vt 0.361328 0.807617
vt 0.551758 0.616211
vt 0.651367 0.436523
vt 0.622070 0.616211
vt 0.161133 0.999023
vt 0.231445 0.999023
vt 0.321289 0.095703
vt 0.321289 0.105469
vt 0.161133 0.105469
vt 0.161133 0.095703
vt 0.261719 0.426758
vt 0.391602 0.426758
vt 0.481445 0.095703
vt 0.481445 0.105469
vt 0.521484 0.426758
vt 0.640625 0.095703
vt 0.640625 0.105469
vt 0.651367 0.426758
vt 0.800781 0.095703
vt 0.800781 0.105469
vt 0.641602 0.517578
vt 0.771484 0.517578
vt 0.161133 0.053711
vt 0.161133 0.063477
vt 0.000977 0.063477
vt 0.000977 0.053711
vt 0.901367 0.517578
vt 0.321289 0.053711
vt 0.321289 0.063477
vt 0.703125 0.326172
vt 0.833008 0.326172
vt 0.481445 0.053711
vt 0.481445 0.063477
vt 0.962891 0.326172
vt 0.640625 0.053711
vt 0.640625 0.063477
vt 0.000977 0.618164
vt 0.130859 0.618164
vt 0.161133 0.137695
vt 0.161133 0.147461
vt 0.000977 0.147461
vt 0.000977 0.137695
vt 0.803711 0.134766
vt 0.933594 0.134766
vt 0.800781 0.053711
vt 0.800781 0.063477
vt 0.260742 0.618164
vt 0.486328 0.219727
vt 0.481445 0.189453
vt 0.640625 0.189453
vt 0.635742 0.219727
vt 0.486328 0.177734
vt 0.481445 0.147461
vt 0.640625 0.147461
vt 0.635742 0.177734
vt 0.005859 0.093750
vt 0.156250 0.093750
vt 0.326172 0.219727
vt 0.321289 0.189453
vt 0.475586 0.219727
vt 0.326172 0.177734
vt 0.321289 0.147461
vt 0.475586 0.177734
vt 0.645508 0.135742
vt 0.795898 0.135742
vt 0.166016 0.219727
vt 0.161133 0.189453
vt 0.316406 0.219727
vt 0.166016 0.177734
vt 0.316406 0.177734
vt 0.486328 0.135742
vt 0.635742 0.135742
vt 0.005859 0.219727
vt 0.000977 0.189453
vt 0.156250 0.219727
vt 0.005859 0.177734
vt 0.156250 0.177734
vt 0.326172 0.135742
vt 0.475586 0.135742
vt 0.645508 0.093750
vt 0.795898 0.093750
vt 0.166016 0.135742
vt 0.316406 0.135742
vt 0.486328 0.093750
vt 0.635742 0.093750
vt 0.005859 0.135742
vt 0.000977 0.105469
vt 0.156250 0.135742
vt 0.326172 0.093750
vt 0.475586 0.093750
vt 0.645508 0.219727
vt 0.800781 0.189453
vt 0.795898 0.219727
vt 0.645508 0.177734
vt 0.800781 0.147461
vt 0.795898 0.177734
vt 0.166016 0.093750
vt 0.316406 0.093750
vt 0.131836 0.426758
vt 0.800781 0.179688
vt 0.640625 0.179688
vt 0.520508 0.809570
vt 0.650391 0.809570
vt 0.000977 0.095703
vt 0.001953 0.426758
vt 0.481445 0.179688
vt 0.390625 0.809570
vt 0.800781 0.137695
vt 0.640625 0.137695
vt 0.520508 0.618164
vt 0.650391 0.618164
vt 0.321289 0.179688
vt 0.260742 0.809570
vt 0.481445 0.137695
vt 0.390625 0.618164
vt 0.161133 0.179688
vt 0.130859 0.809570
vt 0.321289 0.137695
vt 0.000977 0.179688
vt 0.000977 0.809570
s 0
usemtl Material.002
f 1/1/1 3/2/1 4/3/1 2/4/1
f 3/2/2 5/5/2 6/6/2 4/3/2
f 5/5/3 7/7/3 8/8/3 6/6/3
f 7/7/4 9/9/4 10/10/4 8/8/4
f 9/9/5 11/11/5 12/12/5 10/10/5
f 11/13/6 13/14/6 14/15/6 12/16/6
f 13/14/7 15/17/7 16/18/7 14/15/7
f 15/17/8 17/19/8 18/20/8 16/18/8
f 17/19/9 19/21/9 20/22/9 18/20/9
f 19/21/10 21/23/10 22/24/10 20/22/10
f 21/23/11 23/25/11 24/26/11 22/24/11
f 23/25/12 25/27/12 26/28/12 24/26/12
f 25/27/13 27/29/13 28/30/13 26/28/13
f 27/29/14 29/31/14 30/32/14 28/30/14
f 29/31/15 31/33/15 32/34/15 30/32/15
f 31/33/16 33/35/16 34/36/16 32/34/16
f 33/35/17 35/37/17 36/38/17 34/36/17
f 35/37/18 37/39/18 38/40/18 36/38/18
f 37/39/19 39/41/19 40/42/19 38/40/19
f 39/41/20 1/1/20 2/4/20 40/42/20
f 9/43/21 31/44/21 29/45/21 11/46/21
f 41/47/11 42/48/11 44/49/11 43/50/11
f 43/50/12 44/49/12 46/51/12 45/52/12
f 45/52/13 46/51/13 48/53/13 47/54/13
f 47/54/14 48/53/14 50/55/14 49/56/14
f 49/56/15 50/55/15 52/57/15 51/58/15
f 51/59/16 52/60/16 54/61/16 53/62/16
f 53/62/17 54/61/17 56/63/17 55/64/17
f 55/64/18 56/63/18 58/65/18 57/66/18
f 57/66/19 58/65/19 60/67/19 59/68/19
f 59/68/20 60/67/20 62/69/20 61/70/20
f 61/70/1 62/69/1 64/71/1 63/72/1
f 63/72/2 64/71/2 66/73/2 65/74/2
f 65/74/3 66/73/3 68/75/3 67/76/3
f 67/76/4 68/75/4 70/77/4 69/78/4
f 69/78/5 70/77/5 72/79/5 71/80/5
f 71/80/6 72/79/6 74/81/6 73/82/6
f 73/82/7 74/81/7 76/83/7 75/84/7
f 75/84/8 76/83/8 78/85/8 77/86/8
f 77/86/9 78/85/9 80/87/9 79/88/9
f 79/88/10 80/87/10 42/48/10 41/47/10
f 28/30/21 30/32/21 70/77/21 68/75/21
f 26/28/21 28/30/21 68/75/21 66/73/21
f 24/26/21 26/28/21 66/73/21 64/71/21
f 22/24/21 24/26/21 64/71/21 62/69/21
f 20/22/21 22/24/21 62/69/21 60/67/21
f 18/20/21 20/22/21 60/67/21 58/65/21
f 16/18/21 18/20/21 58/65/21 56/63/21
f 14/15/21 16/18/21 56/63/21 54/61/21
f 12/16/21 14/15/21 54/61/21 52/60/21
f 10/10/21 12/12/21 52/57/21 50/55/21
f 8/8/21 10/10/21 50/55/21 48/53/21
f 6/6/21 8/8/21 48/53/21 46/51/21
f 4/3/21 6/6/21 46/51/21 44/49/21
f 2/4/21 4/3/21 44/49/21 42/48/21
f 40/42/21 2/4/21 42/48/21 80/87/21
f 38/40/21 40/42/21 80/87/21 78/85/21
f 36/38/21 38/40/21 78/85/21 76/83/21
f 34/36/21 36/38/21 76/83/21 74/81/21
f 32/34/21 34/36/21 74/81/21 72/79/21
f 30/32/21 32/34/21 72/79/21 70/77/21
f 1/89/21 39/90/21 37/91/21 3/92/21
f 3/92/21 37/91/21 35/93/21 5/94/21
f 5/94/21 35/93/21 33/95/21 7/96/21
f 7/96/21 33/95/21 31/44/21 9/43/21
f 17/97/21 23/98/21 21/99/21 19/100/21
f 15/101/21 25/102/21 23/98/21 17/97/21
f 13/103/21 27/104/21 25/102/21 15/101/21
f 11/46/21 29/45/21 27/104/21 13/103/21
f 49/105/21 85/106/21 84/107/21 47/108/21
f 59/109/21 90/110/21 89/111/21 57/112/21
f 69/113/21 95/114/21 94/115/21 67/116/21
f 79/117/21 100/118/21 99/119/21 77/120/21
f 45/121/21 83/122/21 82/123/21 43/124/21
f 55/125/21 88/126/21 87/127/21 53/128/21
f 65/129/21 93/130/21 92/131/21 63/132/21
f 75/133/21 98/134/21 97/135/21 73/136/21
f 51/137/21 86/138/21 85/106/21 49/139/21
f 61/140/21 91/141/21 90/110/21 59/142/21
f 71/143/21 96/144/21 95/114/21 69/145/21
f 41/146/21 81/147/21 100/118/21 79/148/21
f 47/149/21 84/107/21 83/122/21 45/150/21
f 57/151/21 89/111/21 88/126/21 55/152/21
f 43/153/21 82/123/21 81/147/21 41/154/21
f 67/155/21 94/115/21 93/130/21 65/156/21
f 77/157/21 99/119/21 98/134/21 75/158/21
f 53/159/21 87/127/21 86/160/21 51/161/21
f 63/162/21 92/131/21 91/141/21 61/163/21
f 73/164/21 97/135/21 96/165/21 71/166/21
f 100/167/21 120/168/21 119/169/21 99/170/21
f 93/171/21 113/172/21 112/173/21 92/174/21
f 86/175/21 106/176/21 105/177/21 85/178/21
f 81/179/21 101/180/21 120/168/21 100/181/21
f 94/182/21 114/183/21 113/172/21 93/184/21
f 87/185/21 107/186/21 106/187/21 86/188/21
f 95/189/21 115/190/21 114/183/21 94/191/21
f 88/192/21 108/193/21 107/194/21 87/195/21
f 96/196/21 116/197/21 115/190/21 95/198/21
f 89/199/21 109/200/21 108/193/21 88/201/21
f 82/202/21 102/203/21 101/204/21 81/205/21
f 97/206/21 117/207/21 116/208/21 96/209/21
f 90/210/21 110/211/21 109/212/21 89/213/21
f 83/214/21 103/215/21 102/203/21 82/216/21
f 98/217/21 118/218/21 117/207/21 97/219/21
f 91/220/21 111/221/21 110/211/21 90/222/21
f 84/223/21 104/224/21 103/215/21 83/225/21
f 99/226/21 119/169/21 118/218/21 98/227/21
f 92/228/21 112/173/21 111/229/21 91/230/21
f 85/231/21 105/177/21 104/224/21 84/232/21
f 134/233/22 174/234/22 175/235/22 135/236/22
f 114/183/23 154/237/23 153/238/23 113/172/23
f 133/239/24 173/240/24 174/234/24 134/233/24
f 113/172/25 153/238/25 152/241/25 112/173/25
f 132/242/26 172/243/26 173/240/26 133/239/26
f 112/173/27 152/241/27 151/244/27 111/229/27
f 131/245/28 171/246/28 172/243/28 132/242/28
f 111/221/29 151/247/29 150/248/29 110/211/29
f 130/249/30 170/250/30 171/251/30 131/252/30
f 110/211/31 150/248/31 149/253/31 109/212/31
f 129/254/32 169/255/32 170/250/32 130/249/32
f 109/200/33 149/256/33 148/257/33 108/193/33
f 128/258/34 168/259/34 169/255/34 129/254/34
f 108/193/35 148/257/35 147/260/35 107/194/35
f 127/261/36 167/262/36 168/259/36 128/258/36
f 101/180/30 141/263/30 160/264/30 120/168/30
f 140/265/29 180/266/29 161/267/29 121/268/29
f 107/186/37 147/269/37 146/270/37 106/187/37
f 126/271/38 166/272/38 167/262/38 127/261/38
f 120/168/32 160/264/32 159/273/32 119/169/32
f 143/274/21 163/275/21 162/276/21 142/277/21
f 158/278/21 178/279/21 177/280/21 157/281/21
f 151/282/21 171/251/21 170/250/21 150/283/21
f 144/284/21 164/285/21 163/275/21 143/286/21
f 159/287/21 179/288/21 178/279/21 158/289/21
f 152/290/21 172/243/21 171/246/21 151/291/21
f 145/292/21 165/293/21 164/285/21 144/294/21
f 160/295/21 180/266/21 179/288/21 159/296/21
f 153/297/21 173/240/21 172/243/21 152/298/21
f 146/299/21 166/300/21 165/293/21 145/301/21
f 141/302/21 161/267/21 180/266/21 160/303/21
f 154/304/21 174/234/21 173/240/21 153/305/21
f 147/306/21 167/262/21 166/272/21 146/307/21
f 155/308/21 175/235/21 174/234/21 154/309/21
f 148/310/21 168/259/21 167/262/21 147/311/21
f 156/312/21 176/313/21 175/235/21 155/314/21
f 149/315/21 169/255/21 168/259/21 148/316/21
f 142/317/21 162/276/21 161/318/21 141/319/21
f 157/320/21 177/280/21 176/321/21 156/322/21
f 150/323/21 170/250/21 169/255/21 149/324/21
f 115/190/39 155/325/39 154/237/39 114/183/39
f 121/326/40 161/318/40 162/276/40 122/327/40
f 102/203/41 142/328/41 141/329/41 101/204/41
f 135/236/42 175/235/42 176/313/42 136/330/42
f 116/197/43 156/331/43 155/325/43 115/190/43
f 122/327/25 162/276/25 163/275/25 123/332/25
f 103/215/26 143/333/26 142/328/26 102/203/26
f 136/334/44 176/321/44 177/280/44 137/335/44
f 117/207/45 157/336/45 156/337/45 116/208/45
f 123/332/23 163/275/23 164/285/23 124/338/23
f 104/224/24 144/339/24 143/333/24 103/215/24
f 137/335/35 177/280/35 178/279/35 138/340/35
f 118/218/36 158/341/36 157/336/36 117/207/36
f 124/338/39 164/285/39 165/293/39 125/342/39
f 105/177/22 145/343/22 144/339/22 104/224/22
f 138/340/33 178/279/33 179/288/33 139/344/33
f 119/169/34 159/273/34 158/341/34 118/218/34
f 125/342/46 165/293/46 166/300/46 126/345/46
f 106/176/42 146/346/42 145/343/42 105/177/42
f 139/344/31 179/288/31 180/266/31 140/265/31
