<?xml version="1.0" encoding="UTF-8"?><svg id="a" xmlns="http://www.w3.org/2000/svg" viewBox="0 0 57 24"><defs><style>.b{fill:#fff;}</style></defs><polygon class="b" points="10 5 0 0 0 2 4 4 4 23 6 24 6 5 10 7 10 5"/><polygon class="b" points="7 7 7 21 15 17 15 5 13 4 13 16 9 18 9 8 7 7"/><polygon class="b" points="22 5 12 0 12 2 16 4 16 20 18 21 18 5 22 7 22 5"/><polygon class="b" points="27 18 19 14 19 7 21 8 21 13 25 15 25 5 19 2 19 0 27 4 27 18"/><polygon class="b" points="26 2 34 6 34 7 30 9 30 6 28 5 28 21 30 22 30 14 36 21 36 18 30 11 36 8 36 5 26 0 26 2"/><polygon class="b" points="35 3 37 4 37 21 35 22 35 24 41 21 41 19 39 20 39 5 41 6 41 4 35 1 35 3"/><polygon class="b" points="48 4 40 8 40 18 42 17 42 12.17 46 14 46 23 48 24 48 6 46 7 46 12 42 10 42 9 48 6 48 4"/><polygon class="b" points="49 1 49 17.89 57 22 57 20 51.11 17 51 2 49 1"/></svg>