# Blender 4.2.0
# www.blender.org
mtllib DoorFrame.mtl
o Frame
v -0.700000 0.000000 0.100000
v -0.700000 2.500000 0.100000
v -0.700000 0.000000 -0.100000
v -0.700000 2.500000 -0.100000
v -0.600000 0.000000 0.100000
v -0.600000 2.400000 0.100000
v -0.600000 0.000000 -0.100000
v -0.600000 2.400000 -0.100000
v 0.700000 2.500000 0.100000
v 0.700000 2.500000 -0.100000
v 0.600000 2.400000 -0.100000
v 0.600000 2.400000 0.100000
v 0.700000 0.000000 0.100000
v 0.700000 0.000000 -0.100000
v 0.600000 0.000000 -0.100000
v 0.600000 0.000000 0.100000
vn -1.0000 -0.0000 -0.0000
vn -0.0000 -0.0000 -1.0000
vn 1.0000 -0.0000 -0.0000
vn -0.0000 -0.0000 1.0000
vn -0.0000 -1.0000 -0.0000
vn -0.0000 1.0000 -0.0000
vt 0.750000 0.328125
vt 0.750000 0.953125
vt 0.804688 0.953125
vt 0.804688 0.328125
vt 0.000000 0.328125
vt 0.000000 0.953125
vt 0.023438 0.921875
vt 0.023438 0.328125
vt 0.898438 0.328125
vt 0.898438 0.921875
vt 0.851562 0.921875
vt 0.851562 0.328125
vt 0.375000 0.328125
vt 0.375000 0.921875
vt 0.351562 0.953125
vt 0.351562 0.328125
vt 0.679688 1.000000
vt 0.703125 1.000000
vt 0.703125 0.953125
vt 0.679688 0.953125
vt 0.351562 1.000000
vt 0.648438 1.000000
vt 0.648438 0.953125
vt 0.671875 0.921875
vt 0.671875 0.328125
vt 0.703125 0.328125
vt -0.000000 1.000000
vt 0.328125 0.921875
vt 0.328125 0.328125
vt 0.804688 0.921875
s 0
f 1/1/1 2/2/1 4/3/1 3/4/1
f 3/5/2 4/6/2 8/7/2 7/8/2
f 7/9/3 8/10/3 6/11/3 5/12/3
f 5/13/4 6/14/4 2/15/4 1/16/4
f 3/17/5 7/18/5 5/19/5 1/20/5
f 6/15/5 8/21/5 11/22/5 12/23/5
f 9/19/4 12/24/4 16/25/4 13/26/4
f 4/27/6 2/6/6 9/15/6 10/21/6
f 2/15/4 6/14/4 12/24/4 9/19/4
f 8/7/2 4/6/2 10/15/2 11/28/2
f 15/22/5 14/17/5 13/20/5 16/23/5
f 11/28/2 10/15/2 14/16/2 15/29/2
f 12/30/1 11/11/1 15/12/1 16/4/1
f 10/2/3 9/19/3 13/26/3 14/1/3
