<?xml version="1.0" encoding="utf-8"?>
<!-- Generator: Adobe Illustrator 26.1.0, SVG Export Plug-In . SVG Version: 6.00 Build 0)  -->
<svg version="1.2" baseProfile="tiny" id="图层_1"
	 xmlns="http://www.w3.org/2000/svg" xmlns:xlink="http://www.w3.org/1999/xlink" x="0px" y="0px" viewBox="0 0 50 50"
	 overflow="visible" xml:space="preserve">
<polygon fill="#FFFFFF" stroke="#000000" stroke-miterlimit="10" points="2.5,2.5 2.5,13.5 24.5,36.5 21.5,39.5 27.5,45.5 
	34.5,38.5 43.5,47.5 47.5,43.5 38.5,34.5 45.5,27.5 39.5,21.5 36.5,24.5 13.5,2.5 "/>
<rect x="2" y="2" fill="#BFBFBF" width="11" height="11"/>
<rect x="13" y="13" fill="#BFBFBF" width="12" height="12"/>
<rect x="25" y="25" fill="#BFBFBF" width="12" height="12"/>
<polygon fill="#BFBFBF" points="43,47 37,41 37,37 41,37 47,43 47,44 44,47 "/>
<polygon fill="#BFBFBF" points="22,40 25,43 25,37 24,37 22,39 "/>
<polygon fill="#BFBFBF" points="39,22 37,24 37,25 43,25 40,22 "/>
<polygon fill="none" stroke="#000000" stroke-miterlimit="10" points="2.5,2.5 2.5,13.5 24.5,36.5 21.5,39.5 27.5,45.5 34.5,38.5 
	43.5,47.5 47.5,43.5 38.5,34.5 45.5,27.5 39.5,21.5 36.5,24.5 13.5,2.5 "/>
</svg>
