# Blender 5.0.0
# www.blender.org
mtllib DoorFrame.mtl
o Frame.001
v -1.000000 0.000000 0.100000
v -1.000000 2.500000 0.100000
v -1.000000 0.000000 -0.100000
v -1.000000 2.500000 -0.100000
v -0.900000 0.000000 0.100000
v -0.900000 2.400000 0.100000
v -0.900000 0.000000 -0.100000
v -0.900000 2.400000 -0.100000
v 1.000000 2.500000 0.100000
v 1.000000 2.500000 -0.100000
v 0.900000 2.400000 -0.100000
v 0.900000 2.400000 0.100000
v 1.000000 0.000000 0.100000
v 1.000000 0.000000 -0.100000
v 0.900000 0.000000 -0.100000
v 0.900000 0.000000 0.100000
vn -1.0000 -0.0000 -0.0000
vn -0.0000 -0.0000 -1.0000
vn 1.0000 -0.0000 -0.0000
vn -0.0000 -0.0000 1.0000
vn -0.0000 -1.0000 -0.0000
vn -0.0000 1.0000 -0.0000
vt 0.250000 0.875000
vt 0.250000 1.500000
vt 0.296875 1.500000
vt 0.296875 0.875000
vt 0.000000 0.000000
vt 0.000000 0.625000
vt 0.023438 0.601562
vt 0.023438 0.000000
vt 0.171875 0.875000
vt 0.171875 1.476562
vt 0.125000 1.476562
vt 0.125000 0.875000
vt 0.523438 0.000000
vt 0.523438 0.601562
vt 0.500000 0.625000
vt 0.500000 0.000000
vt 0.625000 0.921875
vt 0.648438 0.921875
vt 0.648438 0.875000
vt 0.625000 0.875000
vt 0.523438 0.750000
vt 0.523438 0.796875
vt 0.976562 0.796875
vt 0.976562 0.750000
vt 1.000000 0.625000
vt 0.976562 0.601562
vt 0.976562 0.000000
vt 1.000000 0.000000
vt 0.000000 0.796875
vt 0.000000 0.750000
vt 0.500000 0.750000
vt 0.500000 0.796875
vt 0.476562 0.601562
vt 0.500000 0.921875
vt 0.523438 0.921875
vt 0.523438 0.875000
vt 0.500000 0.875000
vt 0.476562 0.000000
vt 0.375000 1.476562
vt 0.421875 1.476562
vt 0.421875 0.875000
vt 0.375000 0.875000
vt 0.046875 1.500000
vt 0.000000 1.500000
vt 0.000000 0.875000
vt 0.046875 0.875000
s 0
f 1/1/1 2/2/1 4/3/1 3/4/1
f 3/5/2 4/6/2 8/7/2 7/8/2
f 7/9/3 8/10/3 6/11/3 5/12/3
f 5/13/4 6/14/4 2/15/4 1/16/4
f 3/17/5 7/18/5 5/19/5 1/20/5
f 6/21/5 8/22/5 11/23/5 12/24/5
f 9/25/4 12/26/4 16/27/4 13/28/4
f 4/29/6 2/30/6 9/31/6 10/32/6
f 2/15/4 6/14/4 12/26/4 9/25/4
f 8/7/2 4/6/2 10/15/2 11/33/2
f 15/34/5 14/35/5 13/36/5 16/37/5
f 11/33/2 10/15/2 14/16/2 15/38/2
f 12/39/1 11/40/1 15/41/1 16/42/1
f 10/43/3 9/44/3 13/45/3 14/46/3
