# Blender 4.0.2
# www.blender.org
mtllib Arm.mtl
o Cube
v 0.000000 0.200000 -0.300000
v 0.000000 -0.100000 -0.300000
v -0.200000 0.200000 -0.300000
v -0.200000 -0.100000 -0.300000
v -0.200000 0.200000 1.300000
v -0.200000 -0.100000 1.300000
v -0.400000 -0.100000 -0.300000
v -0.400000 -0.100000 1.300000
v -0.400000 0.100000 1.300000
v -0.400000 0.100000 -0.300000
v -0.200000 0.300000 1.300000
v -0.200000 0.300000 -0.300000
v -0.300000 0.300000 1.300000
v -0.300000 0.300000 -0.300000
v -0.200000 -0.200000 -0.300000
v -0.200000 -0.200000 1.300000
v -0.300000 -0.200000 -0.300000
v -0.300000 -0.200000 1.300000
v -0.200000 -0.100000 1.100000
v -0.200000 0.200000 1.100000
v 0.000000 0.200000 1.100000
v 0.000000 -0.100000 1.100000
vn 1.0000 -0.0000 -0.0000
vn -0.0000 -0.0000 1.0000
vn -0.0000 -1.0000 -0.0000
vn -0.0000 -0.0000 -1.0000
vn -0.9239 -0.3827 -0.0000
vn -0.9732 0.2298 -0.0000
vn -0.7071 -0.7071 -0.0000
vn -0.0000 1.0000 -0.0000
vn -0.8944 0.4472 -0.0000
vt 0.562500 0.828125
vt 0.585938 0.828125
vt 0.585938 0.843750
vt 0.562500 0.843750
vt 0.570312 0.812500
vt 0.585938 0.812500
vt 0.601562 0.968750
vt 0.585938 0.968750
vt 0.585938 0.859375
vt 0.601562 0.859375
vt 0.562500 0.968750
vt 0.562500 0.859375
vt 0.585938 0.984375
vt 0.562500 0.984375
vt 0.500000 0.843750
vt 0.515625 0.843750
vt 0.515625 0.968750
vt 0.500000 0.968750
vt 0.484375 0.968750
vt 0.484375 0.843750
vt 0.570312 1.000000
vt 0.554688 0.992188
vt 0.554688 0.984375
vt 0.585938 1.000000
vt 0.539062 0.843750
vt 0.539062 0.968750
vt 0.531250 0.968750
vt 0.531250 0.843750
vt 0.546875 0.843750
vt 0.546875 0.859375
vt 0.546875 0.968750
vt 0.554688 0.828125
vt 0.554688 0.820312
vt 0.476562 0.968750
vt 0.476562 0.843750
vt 0.593750 0.820312
vt 0.593750 0.828125
vt 0.601562 0.843750
vt 0.609375 0.843750
vt 0.609375 0.968750
vt 0.593750 0.984375
vt 0.593750 0.992188
s 1
usemtl Material
f 5/1/1 6/2/1 19/3/1 20/4/1
f 6/2/2 5/1/2 9/5/2 8/6/2
f 4/7/3 2/8/3 22/9/3 19/10/3
f 2/8/1 1/11/1 21/12/1 22/9/1
f 4/13/4 3/14/4 1/11/4 2/8/4
f 8/15/5 9/16/6 10/17/6 7/18/5
f 8/15/5 7/18/5 17/19/7 18/20/7
f 3/14/4 10/21/4 14/22/4 12/23/4
f 3/14/4 4/13/4 7/24/4 10/21/4
f 11/25/8 12/26/8 14/27/8 13/28/8
f 10/17/6 9/16/6 13/28/9 14/27/9
f 5/29/1 20/30/1 3/31/1 12/26/1 11/25/1
f 9/5/2 5/1/2 11/32/2 13/33/2
f 15/34/3 16/35/3 18/20/3 17/19/3
f 6/2/2 8/6/2 18/36/2 16/37/2
f 4/7/1 19/10/1 6/38/1 16/39/1 15/40/1
f 7/24/4 4/13/4 15/41/4 17/42/4
f 22/9/2 21/12/2 20/4/2 19/3/2
f 1/11/8 3/31/8 20/30/8 21/12/8
