# Blender 4.0.2
# www.blender.org
mtllib Hat.mtl
o Cylinder
v 0.000000 0.000000 -0.800000
v 0.000000 2.000000 -1.000000
v 0.600000 0.000000 -0.600000
v 0.700000 2.000000 -0.700000
v 0.800000 0.000000 0.000000
v 1.000000 2.000000 0.000000
v 0.600000 0.000000 0.600000
v 0.700000 2.000000 0.700000
v 0.000000 0.000000 0.800000
v 0.000000 2.000000 1.000000
v -0.600000 0.000000 0.600000
v -0.700000 2.000000 0.700000
v -0.800000 0.000000 0.000000
v -1.000000 2.000000 0.000000
v -0.600000 0.000000 -0.600000
v -0.700000 2.000000 -0.700000
v 0.000000 0.200000 -1.000000
v 0.700000 0.200000 -0.700000
v 1.000000 0.200000 0.000000
v 0.700000 0.200000 0.700000
v 0.000000 0.200000 1.000000
v -0.700000 0.200000 0.700000
v -1.000000 0.200000 0.000000
v -0.700000 0.200000 -0.700000
v 0.000000 0.000000 -1.200000
v 0.900000 0.000000 -0.900000
v 0.900000 0.200000 -0.900000
v 1.200000 0.000000 0.000000
v 1.200000 0.200000 0.000000
v 0.900000 0.000000 0.900000
v 0.900000 0.200000 0.900000
v 0.000000 0.000000 1.200000
v 0.000000 0.200000 1.200000
v -0.900000 0.000000 0.900000
v -0.900000 0.200000 0.900000
v -1.200000 0.000000 0.000000
v -1.200000 0.200000 0.000000
v -0.900000 0.000000 -0.900000
v -0.900000 0.200000 -0.900000
v 0.000000 0.200000 -1.200000
v 0.000000 1.800000 -0.800000
v 0.600000 1.800000 -0.600000
v 0.800000 1.800000 0.000000
v 0.600000 1.800000 0.600000
v 0.000000 1.800000 0.800000
v -0.600000 1.800000 0.600000
v -0.800000 1.800000 0.000000
v -0.600000 1.800000 -0.600000
vn -0.0000 -0.0000 -1.0000
vn 0.7071 -0.0000 -0.7071
vn 1.0000 -0.0000 -0.0000
vn 0.7071 -0.0000 0.7071
vn -0.0000 -0.0000 1.0000
vn -0.7071 -0.0000 0.7071
vn -1.0000 -0.0000 -0.0000
vn -0.0000 1.0000 -0.0000
vn -0.7071 -0.0000 -0.7071
vn -0.0000 -1.0000 -0.0000
vt 0.437500 0.218750
vt 0.437500 0.359375
vt 0.382812 0.359375
vt 0.382812 0.218750
vt 0.328125 0.359375
vt 0.328125 0.218750
vt 0.273438 0.359375
vt 0.273438 0.218750
vt 0.218750 0.359375
vt 0.218750 0.218750
vt 0.164062 0.359375
vt 0.164062 0.218750
vt 0.109375 0.359375
vt 0.109375 0.218750
vt 0.343750 0.148438
vt 0.289062 0.171875
vt 0.234375 0.148438
vt 0.210938 0.093750
vt 0.234375 0.039062
vt 0.289062 0.015625
vt 0.343750 0.039062
vt 0.367188 0.093750
vt 0.054688 0.359375
vt 0.054688 0.218750
vt 0.000000 0.359375
vt 0.000000 0.218750
vt 0.187500 0.367188
vt 0.234375 0.367188
vt 0.234375 0.507812
vt 0.187500 0.507812
vt 0.046875 0.046875
vt 0.031250 0.093750
vt 0.000000 0.093750
vt 0.023438 0.023438
vt 0.156250 0.093750
vt 0.140625 0.046875
vt 0.164062 0.023438
vt 0.187500 0.093750
vt 0.218750 0.164062
vt 0.195312 0.093750
vt 0.093750 0.156250
vt 0.140625 0.140625
vt 0.164062 0.164062
vt 0.093750 0.187500
vt 0.289062 0.187500
vt 0.359375 0.164062
vt 0.046875 0.140625
vt 0.023438 0.164062
vt 0.382812 0.093750
vt 0.070312 0.195312
vt 0.070312 0.210938
vt 0.000000 0.210938
vt 0.000000 0.195312
vt 0.140625 0.195312
vt 0.140625 0.210938
vt 0.210938 0.195312
vt 0.210938 0.210938
vt 0.281250 0.195312
vt 0.281250 0.210938
vt 0.351562 0.195312
vt 0.351562 0.210938
vt 0.421875 0.195312
vt 0.421875 0.210938
vt 0.492188 0.195312
vt 0.492188 0.210938
vt 0.562500 0.195312
vt 0.562500 0.210938
vt 0.218750 0.023438
vt 0.289062 0.000000
vt 0.359375 0.023438
vt 0.093750 0.031250
vt 0.093750 0.000000
vt 0.328125 0.367188
vt 0.375000 0.367188
vt 0.375000 0.507812
vt 0.328125 0.507812
vt 0.000000 0.367188
vt 0.046875 0.367188
vt 0.046875 0.507812
vt 0.000000 0.507812
vt 0.093750 0.367188
vt 0.140625 0.367188
vt 0.140625 0.507812
vt 0.093750 0.507812
vt 0.281250 0.367188
vt 0.281250 0.507812
s 1
usemtl Material.001
f 17/1/1 2/2/1 4/3/2 18/4/2
f 18/4/2 4/3/2 6/5/3 19/6/3
f 19/6/3 6/5/3 8/7/4 20/8/4
f 20/8/4 8/7/4 10/9/5 21/10/5
f 21/10/5 10/9/5 12/11/6 22/12/6
f 22/12/6 12/11/6 14/13/7 23/14/7
f 4/15/8 2/16/8 16/17/8 14/18/8 12/19/8 10/20/8 8/21/8 6/22/8
f 23/14/7 14/13/7 16/23/9 24/24/9
f 24/24/9 16/23/9 2/25/1 17/26/1
f 9/27/1 11/28/2 46/29/2 45/30/1
f 15/31/10 13/32/10 36/33/10 38/34/10
f 5/35/10 3/36/10 26/37/10 28/38/10
f 23/18/8 24/17/8 39/39/8 37/40/8
f 9/41/10 7/42/10 30/43/10 32/44/10
f 24/17/8 17/16/8 40/45/8 39/39/8
f 17/16/8 18/15/8 27/46/8 40/45/8
f 13/32/10 11/47/10 34/48/10 36/33/10
f 18/15/8 19/22/8 29/49/8 27/46/8
f 38/50/9 39/51/9 40/52/1 25/53/1
f 36/54/7 37/55/7 39/51/9 38/50/9
f 34/56/6 35/57/6 37/55/7 36/54/7
f 32/58/5 33/59/5 35/57/6 34/56/6
f 30/60/4 31/61/4 33/59/5 32/58/5
f 28/62/3 29/63/3 31/61/4 30/60/4
f 26/64/2 27/65/2 29/63/3 28/62/3
f 25/66/1 40/67/1 27/65/2 26/64/2
f 22/19/8 23/18/8 37/40/8 35/68/8
f 21/20/8 22/19/8 35/68/8 33/69/8
f 11/47/10 9/41/10 32/44/10 34/48/10
f 20/21/8 21/20/8 33/69/8 31/70/8
f 7/42/10 5/35/10 28/38/10 30/43/10
f 1/71/10 15/31/10 38/34/10 25/72/10
f 19/22/8 20/21/8 31/70/8 29/49/8
f 3/36/10 1/71/10 25/72/10 26/37/10
f 41/71/10 42/36/10 43/35/10 44/42/10 45/41/10 46/47/10 47/32/10 48/31/10
f 15/73/4 1/74/5 41/75/5 48/76/4
f 1/77/5 3/78/6 42/79/6 41/80/5
f 5/81/7 7/82/9 44/83/9 43/84/7
f 11/28/2 13/85/3 47/86/3 46/29/2
f 7/82/9 9/27/1 45/30/1 44/83/9
f 13/85/3 15/73/4 48/76/4 47/86/3
f 3/78/6 5/81/7 43/84/7 42/79/6
