# Blender 4.0.2
# www.blender.org
mtllib giant_obelisk.mtl
o Cube
v 1.200000 0.700000 -1.200000
v 1.200000 0.700000 1.200000
v -1.200000 0.700000 -1.200000
v -1.200000 0.700000 1.200000
v 1.000000 1.200000 1.000000
v -1.000000 1.200000 1.000000
v 1.000000 1.200000 -1.000000
v -1.000000 1.200000 -1.000000
v -1.700000 0.000000 -1.700000
v -1.700000 0.000000 1.700000
v 1.700000 0.000000 -1.700000
v 1.700000 0.500000 -1.700000
v -1.700000 0.500000 1.700000
v 1.700000 0.500000 1.700000
v 1.700000 0.000000 1.700000
v -1.700000 0.500000 -1.700000
v 1.700000 0.000000 -0.700000
v 0.700000 0.000000 -1.700000
v 0.700000 0.000000 1.700000
v 1.700000 0.000000 0.700000
v -0.700000 0.000000 -1.700000
v -1.700000 0.000000 -0.700000
v -1.700000 0.000000 0.700000
v -0.700000 0.000000 1.700000
v -1.700000 -2.000000 -0.700000
v -0.700000 -2.000000 -1.700000
v -0.700000 -2.000000 1.700000
v -1.700000 -2.000000 0.700000
v 0.700000 -2.000000 -1.700000
v 1.700000 -2.000000 -0.700000
v 1.700000 -2.000000 0.700000
v 0.700000 -2.000000 1.700000
v 2.700000 0.000000 -0.700000
v 2.700000 0.000000 0.700000
v 2.700000 -2.000000 0.700000
v 2.700000 -2.000000 -0.700000
v -0.700000 0.000000 -2.700000
v 0.700000 0.000000 -2.700000
v 0.700000 -2.000000 -2.700000
v -0.700000 -2.000000 -2.700000
v -2.700000 0.000000 0.700000
v -2.700000 0.000000 -0.700000
v -2.700000 -2.000000 -0.700000
v -2.700000 -2.000000 0.700000
v 0.700000 0.000000 2.700000
v -0.700000 0.000000 2.700000
v -0.700000 -2.000000 2.700000
v 0.700000 -2.000000 2.700000
v -1.400000 0.000000 -2.400000
v -1.400000 -2.000000 -2.400000
v -2.400000 -2.000000 -1.400000
v -2.400000 0.000000 -1.400000
v -1.400000 -2.000000 2.400000
v -1.400000 0.000000 2.400000
v -2.400000 0.000000 1.400000
v -2.400000 -2.000000 1.400000
v 1.400000 0.000000 2.400000
v 1.400000 -2.000000 2.400000
v 2.400000 -2.000000 1.400000
v 2.400000 0.000000 1.400000
v 1.400000 -2.000000 -2.400000
v 1.400000 0.000000 -2.400000
v 2.400000 0.000000 -1.400000
v 2.400000 -2.000000 -1.400000
v 1.900000 -2.000000 1.900000
v -1.900000 -2.000000 1.900000
v 0.000000 -2.000000 0.000000
v 0.000000 1.200000 1.000000
v 1.900000 0.000000 -1.900000
v 1.900000 0.000000 1.900000
v -1.900000 -2.000000 -1.900000
v 0.000000 0.700000 -1.200000
v 0.000000 0.700000 1.200000
v 1.900000 -2.000000 -1.900000
v -1.900000 0.000000 1.900000
v -1.900000 0.000000 -1.900000
v 0.000000 1.200000 -1.000000
v 0.000000 0.000000 -1.700000
v 0.000000 0.500000 1.700000
v 0.000000 0.500000 -1.700000
v 0.000000 0.000000 1.700000
v 0.000000 0.000000 -2.700000
v 0.000000 -2.000000 -2.700000
v 0.000000 0.000000 2.700000
v 0.000000 -2.000000 2.700000
v 1.200000 0.700000 0.000000
v -1.200000 0.700000 0.000000
v 1.000000 1.200000 0.000000
v -1.000000 1.200000 0.000000
v 1.700000 0.500000 0.000000
v -1.700000 0.500000 0.000000
v 1.700000 0.000000 0.000000
v -1.700000 0.000000 0.000000
v 2.700000 0.000000 0.000000
v 2.700000 -2.000000 0.000000
v -2.700000 0.000000 0.000000
v -2.700000 -2.000000 0.000000
v 0.000000 1.200000 1.200000
v -1.200000 1.200000 1.200000
v 1.200000 1.200000 0.000000
v 1.200000 1.200000 1.200000
v -1.200000 1.200000 0.000000
v -1.200000 1.200000 -1.200000
v 0.000000 1.200000 -1.200000
v 1.200000 1.200000 -1.200000
v 0.000000 8.100000 0.800000
v 0.000000 8.100000 -0.800000
v 0.800000 8.100000 0.000000
v -0.800000 8.100000 0.000000
v -0.800000 8.100000 0.800000
v 0.800000 8.100000 0.800000
v -0.800000 8.100000 -0.800000
v 0.800000 8.100000 -0.800000
v 0.000000 8.600000 0.800000
v -0.800000 8.600000 0.800000
v 0.800000 8.600000 -0.000000
v 0.800000 8.600000 0.800000
v -0.800000 8.600000 -0.000000
v -0.800000 8.600000 -0.800000
v 0.000000 8.600000 -0.800000
v 0.800000 8.600000 -0.800000
v 0.000000 7.600000 -0.000000
v 0.000000 8.100000 1.000000
v -1.000000 8.099999 1.000000
v 1.000000 8.100000 0.000000
v 1.000000 8.100000 1.000000
v -1.000000 8.099999 0.000000
v -1.000000 8.099999 -1.000000
v 0.000000 8.100000 -1.000000
v 1.000000 8.100000 -1.000000
v 1.000000 8.600000 -0.000000
v 1.000000 8.600000 1.000000
v 0.000000 8.600000 1.000000
v -1.000000 8.600000 1.000000
v -1.000000 8.600000 -0.000000
v -1.000000 8.600000 -1.000000
v 0.000000 8.600000 -1.000000
v 1.000000 8.600000 -1.000000
vn -1.0000 -0.0000 -0.0000
vn -0.3714 0.9285 -0.0000
vn -0.0000 0.9285 0.3714
vn -0.0000 0.0290 0.9996
vn 1.0000 -0.0000 -0.0000
vn -0.0000 -0.0000 -1.0000
vn -0.0000 -0.0000 1.0000
vn 0.3714 0.9285 -0.0000
vn -0.0000 0.9285 -0.3714
vn -0.0000 1.0000 -0.0000
vn -0.0000 -1.0000 -0.0000
vn -0.7071 -0.0000 -0.7071
vn 0.7071 -0.0000 -0.7071
vn -0.7071 -0.0000 0.7071
vn 0.7071 -0.0000 0.7071
vn -0.9996 0.0290 -0.0000
vn -0.0000 0.0290 -0.9996
vn 0.9996 0.0290 -0.0000
vn -0.0000 0.6247 -0.7809
vn -0.0000 0.6247 0.7809
vn -0.7809 0.6247 -0.0000
vn 0.7809 0.6247 -0.0000
vt 0.867188 0.179688
vt 0.960938 0.179688
vt 0.960938 0.218750
vt 0.867188 0.218750
vt 0.773438 0.179688
vt 0.734375 0.140625
vt 0.867188 0.140625
vt 0.132812 0.273438
vt 0.039062 0.273438
vt 0.000000 0.234375
vt 0.132812 0.234375
vt 0.054688 0.328125
vt 0.132812 0.328125
vt 0.132812 0.843750
vt 0.078125 0.843750
vt 0.375000 0.179688
vt 0.468750 0.179688
vt 0.468750 0.218750
vt 0.375000 0.218750
vt 0.625000 0.273438
vt 0.718750 0.273438
vt 0.718750 0.312500
vt 0.625000 0.312500
vt 0.226562 0.273438
vt 0.226562 0.312500
vt 0.132812 0.312500
vt 0.281250 0.179688
vt 0.242188 0.140625
vt 0.375000 0.140625
vt 0.531250 0.273438
vt 0.492188 0.234375
vt 0.625000 0.234375
vt 0.179688 1.000000
vt 0.125000 0.945312
vt 0.125000 0.921875
vt 0.179688 0.921875
vt 0.625000 0.945312
vt 0.625000 0.921875
vt 0.679688 0.921875
vt 0.679688 1.000000
vt 0.179688 0.750000
vt 0.125000 0.695312
vt 0.125000 0.671875
vt 0.179688 0.671875
vt 0.625000 0.695312
vt 0.570312 0.750000
vt 0.570312 0.671875
vt 0.625000 0.671875
vt 0.875000 0.921875
vt 0.820312 0.921875
vt 0.820312 0.765625
vt 0.875000 0.765625
vt 0.875000 1.000000
vt 0.929688 0.921875
vt 0.929688 1.000000
vt 0.750000 0.765625
vt 0.750000 0.921875
vt 0.203125 0.296875
vt 0.347656 0.152344
vt 0.382812 0.187500
vt 0.328125 0.242188
vt 1.000000 0.921875
vt 0.929688 0.765625
vt 1.000000 0.765625
vt 0.375000 0.671875
vt 0.320312 0.671875
vt 0.320313 0.515625
vt 0.375000 0.515625
vt 0.375000 0.750000
vt 0.429688 0.671875
vt 0.429688 0.750000
vt 0.250000 0.515625
vt 0.250000 0.671875
vt 0.058594 0.152344
vt 0.093750 0.117188
vt 0.148438 0.171875
vt 0.500000 0.671875
vt 0.429688 0.515625
vt 0.500000 0.515625
vt 0.875000 0.671875
vt 0.820312 0.671875
vt 0.820312 0.515625
vt 0.875000 0.515625
vt 0.875000 0.750000
vt 0.929688 0.671875
vt 0.929688 0.750000
vt 0.750000 0.515625
vt 0.750000 0.671875
vt 0.058594 0.441406
vt 0.023438 0.406250
vt 0.078125 0.351562
vt 1.000000 0.671875
vt 0.929688 0.515625
vt 1.000000 0.515625
vt 0.375000 0.921875
vt 0.320312 0.921875
vt 0.320312 0.765625
vt 0.375000 0.765625
vt 0.375000 1.000000
vt 0.429687 0.921875
vt 0.429687 1.000000
vt 0.250000 0.765625
vt 0.250000 0.921875
vt 0.347656 0.441406
vt 0.312500 0.476562
vt 0.257812 0.421875
vt 0.500000 0.921875
vt 0.429688 0.765625
vt 0.500000 0.765625
vt 0.570313 0.515625
vt 0.625000 0.515625
vt 0.000000 0.351562
vt 0.000000 0.296875
vt 0.679688 0.671875
vt 0.679688 0.515625
vt 0.179688 0.765625
vt 0.125000 0.765625
vt 0.000000 0.765625
vt 0.070312 0.765625
vt 0.070312 0.921875
vt 0.000000 0.921875
vt 0.257812 0.500000
vt 0.203125 0.500000
vt 0.570312 0.921875
vt 0.570312 0.765625
vt 0.625000 0.765625
vt 0.406250 0.242188
vt 0.406250 0.296875
vt 0.679688 0.765625
vt 0.179688 0.515625
vt 0.125000 0.515625
vt 0.000000 0.515625
vt 0.070312 0.515625
vt 0.070312 0.671875
vt 0.000000 0.671875
vt 0.148438 0.093750
vt 0.203125 0.093750
vt 0.148438 0.500000
vt 0.148438 0.421875
vt 0.570312 1.000000
vt 0.679688 0.750000
vt 0.257812 0.093750
vt 0.257812 0.171875
vt 0.000000 0.242188
vt 0.078125 0.242188
vt 0.406250 0.351562
vt 0.328125 0.351562
vt 0.070312 1.000000
vt 0.070312 0.750000
vt 0.382812 0.406250
vt 0.320312 1.000000
vt 0.023438 0.187500
vt 0.320312 0.750000
vt 0.757812 0.234375
vt 0.039062 0.312500
vt 0.531250 0.312500
vt 0.789062 0.234375
vt 0.867188 0.234375
vt 0.867188 0.750000
vt 0.812500 0.750000
vt 0.000000 0.195312
vt 0.078125 0.195312
vt 0.265625 0.234375
vt 0.625000 0.328125
vt 0.703125 0.328125
vt 0.679688 0.843750
vt 0.625000 0.843750
vt 0.093750 0.476562
vt 0.820312 0.750000
vt 0.312500 0.117188
vt 0.820312 1.000000
vt 0.507812 0.140625
vt 0.281250 0.218750
vt 0.375000 0.234375
vt 0.453125 0.234375
vt 1.000000 0.140625
vt 0.773438 0.218750
vt 0.296875 0.234375
vt 0.546875 0.328125
vt 0.210938 0.328125
vt 0.945312 0.234375
vt 0.375000 0.812500
vt 0.320312 0.812500
vt 0.304688 0.796875
vt 0.375000 0.796875
vt 0.921875 0.750000
vt 0.187500 0.843750
vt 0.570312 0.843750
vt 0.734375 0.101562
vt 0.812500 0.101562
vt 0.921875 0.101562
vt 1.000000 0.101562
vt 0.867188 0.101562
vt 0.492188 0.195312
vt 0.570312 0.195312
vt 0.679688 0.195312
vt 0.757812 0.195312
vt 0.625000 0.195312
vt 0.320312 0.101562
vt 0.375000 0.101562
vt 0.429688 0.101562
vt 0.187500 0.195312
vt 0.265625 0.195312
vt 0.132812 0.195312
vt 0.242188 0.101562
vt 0.507812 0.101562
vt 0.625000 0.906250
vt 0.570312 0.906250
vt 0.554688 0.890625
vt 0.625000 0.890625
vt 0.445312 0.765625
vt 0.132812 1.000000
vt 0.078125 0.906250
vt 0.132812 0.906250
vt 0.187500 0.906250
vt 0.679688 0.906250
vt 0.625000 1.000000
vt 0.867188 0.812500
vt 0.812500 0.812500
vt 0.796875 0.796875
vt 0.867188 0.796875
vt 0.203125 0.859375
vt 0.132812 0.859375
vt 0.695312 0.859375
vt 0.625000 0.859375
vt 0.554688 0.859375
vt 0.921875 0.812500
vt 0.937500 0.796875
vt 0.304688 0.765625
vt 0.203125 0.890625
vt 0.132812 0.890625
vt 0.867188 0.765625
vt 0.937500 0.765625
vt 0.445312 0.796875
vt 0.695312 0.890625
vt 0.796875 0.765625
vt 0.062500 0.859375
vt 0.062500 0.890625
vt 0.429688 0.812500
vt 0.375000 0.906250
vt 0.867188 0.906250
s 0
usemtl Top
f 87/1/1 4/2/1 99/3/1 102/4/1
f 87/1/2 3/5/2 16/6/2 91/7/2
f 73/8/3 4/9/3 13/10/3 79/11/3
f 6/12/4 68/13/4 106/14/4 110/15/4
f 86/16/5 1/17/5 105/18/5 100/19/5
f 72/20/6 3/21/6 103/22/6 104/23/6
f 73/8/7 2/24/7 101/25/7 98/26/7
f 86/16/8 2/27/8 14/28/8 90/29/8
f 72/20/9 1/30/9 12/31/9 80/32/9
f 3/21/9 72/20/9 80/32/9 16/154/9
f 4/9/7 73/8/7 98/26/7 99/155/7
f 1/30/6 72/20/6 104/23/6 105/156/6
f 8/157/16 89/158/16 109/159/16 112/160/16
f 13/10/7 10/161/7 24/162/7 79/11/7
f 2/24/3 73/8/3 79/11/3 14/163/3
f 77/164/17 8/165/17 112/166/17 107/167/17
f 1/17/8 86/16/8 90/29/8 12/172/8
f 2/27/5 86/16/5 100/19/5 101/173/5
f 88/174/18 7/175/18 113/71/18 108/69/18
f 4/2/2 87/1/2 91/7/2 13/176/2
f 3/5/1 87/1/1 102/4/1 103/177/1
f 68/13/10 6/12/10 99/155/10 98/26/10
f 88/174/10 5/178/10 101/173/10 100/19/10
f 89/158/10 8/157/10 103/177/10 102/4/10
f 77/164/10 7/179/10 105/156/10 104/23/10
f 8/165/10 77/164/10 104/23/10 103/22/10
f 5/180/10 68/13/10 98/26/10 101/25/10
f 7/175/10 88/174/10 100/19/10 105/18/10
f 6/181/10 89/158/10 102/4/10 99/3/10
f 116/182/10 117/183/10 132/184/10 131/185/10
f 89/158/16 6/181/16 110/186/16 109/159/16
f 68/13/4 5/180/4 111/187/4 106/14/4
f 7/179/17 77/164/17 107/167/17 113/188/17
f 5/178/18 88/174/18 108/69/18 111/153/18
f 16/6/1 9/189/1 22/190/1 91/7/1
f 13/176/1 91/7/1 23/191/1 10/192/1
f 22/190/1 93/193/1 23/191/1 91/7/1
f 12/31/6 11/194/6 18/195/6 80/32/6
f 80/32/6 21/196/6 9/197/6 16/154/6
f 78/198/6 21/196/6 80/32/6 18/195/6
f 20/199/5 92/200/5 17/201/5 90/29/5
f 14/163/7 79/11/7 19/202/7 15/203/7
f 79/11/7 24/162/7 81/204/7 19/202/7
f 14/28/5 15/205/5 20/199/5 90/29/5
f 17/201/5 11/206/5 12/172/5 90/29/5
f 120/207/10 121/208/10 138/209/10 137/210/10
f 108/69/11 113/71/11 130/211/11 125/98/11
f 122/212/19 115/213/19 114/214/19 117/215/19
f 120/207/20 119/216/20 122/217/20 121/208/20
f 118/218/10 119/219/10 136/220/10 135/221/10
f 106/14/11 111/187/11 126/222/11 123/223/11
f 107/167/11 112/166/11 128/224/11 129/225/11
f 113/188/11 107/167/11 129/225/11 130/226/11
f 115/227/10 118/218/10 135/221/10 134/228/10
f 126/229/5 125/98/5 131/185/5 132/184/5
f 130/226/6 129/225/6 137/210/6 138/209/6
f 123/223/7 126/222/7 132/230/7 133/231/7
f 127/232/1 124/233/1 134/228/1 135/221/1
f 125/98/5 130/211/5 138/234/5 131/185/5
f 129/225/6 128/224/6 136/235/6 137/210/6
f 128/236/1 127/232/1 135/221/1 136/220/1
f 124/237/7 123/223/7 133/231/7 134/238/7
f 109/159/11 110/186/11 124/233/11 127/232/11
f 110/15/11 106/14/11 123/223/11 124/237/11
f 119/216/10 120/207/10 137/210/10 136/235/10
f 114/214/10 115/213/10 134/238/10 133/231/10
f 117/215/10 114/214/10 133/231/10 132/230/10
f 111/153/11 108/69/11 125/98/11 126/229/11
f 121/239/10 116/182/10 131/185/10 138/234/10
f 112/160/11 109/159/11 127/232/11 128/236/11
f 122/240/21 117/183/21 116/182/21 121/239/21
f 118/218/22 115/227/22 122/241/22 119/219/22
usemtl Base
f 24/33/10 10/34/10 75/35/10 54/36/10
f 15/37/10 70/38/10 60/39/10 20/40/10
f 18/41/10 11/42/10 69/43/10 62/44/10
f 9/45/10 21/46/10 49/47/10 76/48/10
f 94/49/5 34/50/5 35/51/5 95/52/5
f 92/53/10 94/49/10 33/54/10 17/55/10
f 31/56/7 35/51/7 34/50/7 20/57/7
f 67/58/11 95/59/11 35/60/11 31/61/11
f 17/62/6 33/54/6 36/63/6 30/64/6
f 82/65/6 38/66/6 39/67/6 83/68/6
f 78/69/10 82/65/10 37/70/10 21/71/10
f 29/72/5 39/67/5 38/66/5 18/73/5
f 67/58/11 83/74/11 39/75/11 29/76/11
f 21/77/1 37/70/1 40/78/1 26/79/1
f 96/80/1 42/81/1 43/82/1 97/83/1
f 93/84/10 96/80/10 41/85/10 23/86/10
f 25/87/6 43/82/6 42/81/6 22/88/6
f 67/58/11 97/89/11 43/90/11 25/91/11
f 23/92/7 41/85/7 44/93/7 28/94/7
f 84/95/7 46/96/7 47/97/7 85/98/7
f 81/99/10 84/95/10 45/100/10 19/101/10
f 27/102/1 47/97/1 46/96/1 24/103/1
f 67/58/11 85/104/11 47/105/11 27/106/11
f 19/107/5 45/100/5 48/108/5 32/109/5
f 49/47/12 50/110/12 71/111/12 76/48/12
f 26/79/13 50/110/13 49/47/13 21/77/13
f 25/91/11 51/112/11 71/113/11 67/58/11
f 22/88/14 52/114/14 51/115/14 25/87/14
f 53/116/14 54/36/14 75/35/14 66/117/14
f 24/103/15 54/36/15 53/116/15 27/102/15
f 28/118/12 56/119/12 55/120/12 23/121/12
f 27/106/11 53/122/11 66/123/11 67/58/11
f 57/124/15 58/125/15 65/126/15 70/38/15
f 32/109/14 58/125/14 57/124/14 19/107/14
f 31/61/11 59/127/11 65/128/11 67/58/11
f 20/57/13 60/39/13 59/129/13 31/56/13
f 61/130/13 62/44/13 69/43/13 74/131/13
f 18/73/12 62/44/12 61/130/12 29/72/12
f 30/132/15 64/133/15 63/134/15 17/135/15
f 29/76/11 61/136/11 74/137/11 67/58/11
f 67/58/11 66/123/11 56/138/11 28/139/11
f 70/38/10 15/37/10 19/140/10 57/124/10
f 76/48/10 52/114/10 22/141/10 9/45/10
f 67/58/11 74/137/11 64/142/11 30/143/11
f 76/48/12 71/111/12 51/115/12 52/114/12
f 67/58/11 71/113/11 50/144/11 26/145/11
f 66/117/14 75/35/14 55/120/14 56/119/14
f 70/38/15 65/126/15 59/129/15 60/39/15
f 67/58/11 65/128/11 58/146/11 32/147/11
f 75/35/10 10/34/10 23/148/10 55/120/10
f 69/43/10 11/42/10 17/149/10 63/134/10
f 74/131/13 69/43/13 63/134/13 64/133/13
f 32/147/11 48/150/11 85/104/11 67/58/11
f 24/151/10 46/96/10 84/95/10 81/99/10
f 45/100/7 84/95/7 85/98/7 48/108/7
f 26/145/11 40/152/11 83/74/11 67/58/11
f 18/153/10 38/66/10 82/65/10 78/69/10
f 37/70/6 82/65/6 83/68/6 40/78/6
f 28/139/11 44/168/11 97/89/11 67/58/11
f 22/169/10 42/81/10 96/80/10 93/84/10
f 41/85/1 96/80/1 97/83/1 44/93/1
f 30/143/11 36/170/11 95/59/11 67/58/11
f 20/171/10 34/50/10 94/49/10 92/53/10
f 33/54/5 94/49/5 95/52/5 36/63/5
