# Blender 4.1.1
# www.blender.org
mtllib ArchDoor.mtl
o ArchTop2
v 0.550000 2.230000 -0.100000
v 0.600000 2.000000 -0.100000
v 0.420000 2.420000 0.000000
v 0.550000 2.230000 0.000000
v 0.420000 2.420000 -0.100000
v 0.230000 2.550000 0.000000
v 0.230000 2.550000 -0.100000
v 0.000000 2.600000 -0.100000
v 0.000000 2.600000 0.000000
v -0.230000 2.550000 -0.100000
v -0.420000 2.420000 -0.100000
v -0.230000 2.550000 0.000000
v -0.420000 2.420000 0.000000
v -0.550000 2.230000 0.000000
v -0.550000 2.230000 -0.100000
v -0.600000 2.000000 -0.100000
v -0.600000 0.000000 0.000000
v -0.600000 2.000000 0.000000
v -0.600000 0.000000 -0.100000
v 0.600000 2.000000 0.000000
v 0.600000 0.000000 -0.100000
v 0.600000 0.000000 0.000000
vn -0.9183 0.3959 -0.0000
vn -0.9943 0.1068 -0.0000
vn -0.7071 0.7071 -0.0000
vn 0.9183 0.3959 -0.0000
vn 0.7071 0.7071 -0.0000
vn -0.0000 1.0000 -0.0000
vn -0.3959 0.9183 -0.0000
vn -0.0000 -0.0000 1.0000
vn 0.3959 0.9183 -0.0000
vn 0.9943 0.1068 -0.0000
vn -0.0000 -1.0000 -0.0000
vn -1.0000 -0.0000 -0.0000
vn 1.0000 -0.0000 -0.0000
vn -0.0000 -0.0000 -1.0000
vt 0.875000 1.000000
vt 1.000000 1.000000
vt 1.000000 0.875000
vt 0.875000 0.875000
vt 0.750000 1.000000
vt 0.750000 0.875000
vt 0.125000 1.000000
vt 0.250000 1.000000
vt 0.250000 0.875000
vt 0.125000 0.875000
vt 0.500000 1.000000
vt 0.625000 1.000000
vt 0.625000 0.875000
vt 0.500000 0.875000
vt 0.000000 1.000000
vt 1.000000 0.000000
vt 0.000000 0.000000
vt 0.375000 1.000000
vt 0.375000 0.875000
vt 0.000000 0.875000
s 1
usemtl Material_0
f 15/1/1 16/2/2 18/3/2 14/4/1
f 11/5/3 15/1/1 14/4/1 13/6/3
f 1/7/4 5/8/5 3/9/5 4/10/4
f 8/11/6 10/12/7 12/13/7 9/14/6
f 7/18/9 8/11/6 9/14/6 6/19/9
f 5/8/5 7/18/9 6/19/9 3/9/5
f 10/12/7 11/5/3 13/6/3 12/13/7
f 2/15/10 1/7/4 4/10/4 20/20/10
s 0
f 20/17/8 4/10/8 14/4/8 18/15/8
f 4/10/8 3/9/8 13/6/8 14/4/8
f 3/9/8 6/19/8 12/13/8 13/6/8
f 9/14/8 12/13/8 6/19/8
f 2/15/14 16/17/14 15/1/14 1/7/14
f 1/7/14 15/1/14 11/5/14 5/8/14
f 5/8/14 11/5/14 10/12/14 7/18/14
f 8/11/14 7/18/14 10/12/14
usemtl Material_1
f 18/15/8 17/2/8 22/16/8 20/17/8
f 19/16/11 21/2/11 22/16/11 17/2/11
s 1
f 18/15/2 16/17/2 19/16/12 17/2/12
f 2/15/10 20/17/10 22/16/13 21/2/13
s 0
f 21/2/14 19/16/14 16/17/14 2/15/14
