# Blender 5.0.0
# www.blender.org
mtllib SlidingWindow.mtl
o Window.001
v -1.300000 0.200000 0.100000
v -1.300000 1.800000 0.100000
v -1.300000 0.200000 0.000000
v -1.300000 1.800000 0.000000
v -0.100000 0.200000 0.100000
v -0.100000 1.800000 0.100000
v -0.100000 0.200000 0.000000
v -0.100000 1.800000 0.000000
v -1.400000 0.100000 0.100000
v -1.400000 1.900000 0.100000
v -1.400000 1.900000 0.000000
v -1.400000 0.100000 0.000000
v -0.000000 0.100000 0.000000
v -0.000000 1.900000 0.000000
v -0.000000 1.900000 0.100000
v -0.000000 0.100000 0.100000
vn -0.0000 -1.0000 -0.0000
vn 1.0000 -0.0000 -0.0000
vn -0.0000 -0.0000 -1.0000
vn -0.0000 -0.0000 1.0000
vn -0.0000 1.0000 -0.0000
vn -1.0000 -0.0000 -0.0000
vt 0.453125 0.648438
vt 0.750000 0.648438
vt 0.750000 0.625000
vt 0.453125 0.625000
vt 0.875000 0.398438
vt 0.851562 0.398438
vt 0.851562 0.000000
vt 0.875000 0.000000
vt 0.328125 0.421875
vt 0.351562 0.445312
vt 0.351562 0.000000
vt 0.328125 0.023438
vt 0.726562 0.421875
vt 0.726562 0.023438
vt 0.750000 0.000000
vt 0.750000 0.445312
vt 0.023438 0.421875
vt 0.000000 0.445312
vt 0.421875 0.023438
vt 0.398438 0.000000
vt 0.023438 0.023438
vt 0.000000 0.000000
vt 0.421875 0.421875
vt 0.398438 0.445312
vt 0.453125 0.898438
vt 0.453125 0.875000
vt 0.750000 0.875000
vt 0.750000 0.898438
vt 1.000000 0.945312
vt 0.976562 0.945312
vt 0.976562 0.500000
vt 1.000000 0.500000
vt 0.398438 0.523438
vt 0.750000 0.523438
vt 0.750000 0.500000
vt 0.398438 0.500000
vt 0.976562 0.445312
vt 1.000000 0.445312
vt 1.000000 0.000000
vt 0.976562 0.000000
vt 0.398438 0.773438
vt 0.398438 0.750000
vt 0.750000 0.750000
vt 0.750000 0.773438
vt 0.851562 0.898438
vt 0.875000 0.898438
vt 0.875000 0.500000
vt 0.851562 0.500000
s 0
f 4/1/1 8/2/1 6/3/1 2/4/1
f 4/5/2 2/6/2 1/7/2 3/8/2
f 8/9/3 14/10/3 13/11/3 7/12/3
f 6/13/4 5/14/4 16/15/4 15/16/4
f 4/17/3 11/18/3 14/10/3 8/9/3
f 1/19/4 9/20/4 16/15/4 5/14/4
f 4/17/3 3/21/3 12/22/3 11/18/3
f 2/23/4 10/24/4 9/20/4 1/19/4
f 3/21/3 7/12/3 13/11/3 12/22/3
f 3/25/5 1/26/5 5/27/5 7/28/5
f 14/29/2 15/30/2 16/31/2 13/32/2
f 12/33/1 13/34/1 16/35/1 9/36/1
f 10/37/6 11/38/6 12/39/6 9/40/6
f 11/41/5 10/42/5 15/43/5 14/44/5
f 6/45/6 8/46/6 7/47/6 5/48/6
f 2/23/4 6/13/4 15/16/4 10/24/4
