# Blender 4.1.1
# www.blender.org
mtllib USWindowFrame.mtl
o Frame
v -0.400000 1.100000 0.100000
v -0.400000 1.900000 0.100000
v -0.400000 1.100000 0.000000
v -0.400000 1.900000 -0.100000
v 0.900000 1.100000 0.100000
v 0.900000 1.900000 0.100000
v 0.900000 1.100000 0.000000
v 0.900000 1.900000 -0.100000
v -0.400000 1.000000 0.100000
v -0.400000 1.000000 0.000000
v 0.900000 1.000000 0.000000
v 1.000000 2.000000 0.100000
v 0.900000 1.000000 0.100000
v 0.900000 0.100000 -0.100000
v 0.900000 0.100000 0.100000
v -0.400000 0.100000 -0.100000
v -0.500000 2.000000 0.100000
v -0.400000 0.100000 0.100000
v 1.000000 0.000000 -0.100000
v -0.500000 0.000000 -0.100000
v 1.000000 2.000000 -0.100000
v -0.500000 0.000000 0.100000
v 1.000000 0.000000 0.100000
v -0.500000 2.000000 -0.100000
vn -1.0000 -0.0000 -0.0000
vn -0.0000 1.0000 -0.0000
vn -0.0000 -1.0000 -0.0000
vn -0.0000 -0.0000 1.0000
vn -0.0000 -0.0000 -1.0000
vn 1.0000 -0.0000 -0.0000
vt 0.389102 0.480475
vt 0.389102 0.769525
vt 0.610898 0.769525
vt 0.610898 0.480475
vt 0.389102 0.269525
vt 0.389102 0.980474
vt 0.125000 0.500000
vt 0.375000 0.500000
vt 0.375000 0.750000
vt 0.125000 0.750000
vt 0.610898 0.980475
vt 0.625000 1.000000
vt 0.375000 1.000000
vt 0.375000 0.250000
vt 0.625000 0.750000
vt 0.610898 0.269525
vt 0.000000 0.000000
vt 0.178086 0.473457
vt 0.400900 0.500000
s 0
usemtl Material
f 7/1/1 5/2/1 6/3/1 8/4/1
f 7/1/2 3/5/2 1/6/2 5/2/2
f 10/7/3 11/8/3 13/9/3 9/10/3
f 1/6/4 2/11/4 17/12/4 9/13/4
f 3/5/5 7/1/5 11/8/5 10/14/5
f 6/3/4 5/2/4 13/9/4 12/15/4
f 5/2/4 1/6/4 9/13/4 13/9/4
f 2/11/4 6/3/4 12/15/4 17/12/4
f 4/16/3 8/4/3 6/3/3 2/11/3
f 1/6/6 3/5/6 4/16/6 2/11/6
f 21/17/2 24/17/2 17/17/2 12/17/2
f 22/17/1 17/17/1 24/17/1 20/17/1
f 20/17/3 19/17/3 23/17/3 22/17/3
f 19/17/6 21/17/6 12/17/6 23/17/6
f 14/17/2 16/17/2 18/17/2 15/17/2
f 16/17/5 14/17/5 19/17/5 20/17/5
f 14/17/5 8/17/5 21/17/5 19/17/5
f 13/9/1 11/8/1 14/17/1 15/17/1
f 4/17/5 16/17/5 20/17/5 24/17/5
f 15/17/4 18/17/4 22/17/4 23/17/4
f 8/17/5 4/17/5 24/17/5 21/17/5
f 13/9/4 15/17/4 23/17/4 12/17/4
f 17/17/4 22/17/4 18/17/4 9/13/4
f 9/13/6 18/17/6 16/17/6 10/7/6
f 10/7/6 16/17/6 4/17/6 3/18/6
f 11/8/1 7/19/1 8/17/1 14/17/1
