# Blender 4.1.1
# www.blender.org
mtllib counter.mtl
o Base2
v 1.470000 0.900000 -0.490000
v 1.420000 0.850000 0.480000
v 0.920000 0.040000 0.480000
v 1.470000 0.000000 0.480000
v -0.920000 0.040000 0.480000
v -1.420000 0.040000 0.480000
v -0.870000 0.040000 0.480000
v -1.470000 0.000000 0.480000
v 0.920000 0.850000 0.480000
v 0.870000 0.850000 0.480000
v 1.470000 0.900000 0.480000
v -0.920000 0.850000 0.480000
v -0.870000 0.850000 0.480000
v -1.470000 0.900000 0.480000
v -1.470000 0.900000 -0.490000
v 1.370000 0.000000 0.380000
v 1.370000 0.000000 -0.490000
v 1.470000 0.000000 -0.490000
v -1.370000 0.000000 0.380000
v -1.370000 0.800000 -0.490000
v -1.470000 0.000000 -0.490000
v -1.370000 0.000000 -0.490000
v 1.500000 1.000000 0.500000
v -1.500000 1.000000 0.500000
v -1.500000 1.000000 -0.500000
v 1.500000 0.900000 -0.500000
v -1.500000 0.900000 0.500000
v 1.500000 0.900000 0.500000
v -1.500000 0.900000 -0.500000
v 1.500000 1.000000 -0.500000
v 0.870000 0.040000 0.480000
v 0.870000 0.850000 0.430000
v -0.870000 0.850000 0.430000
v -0.870000 0.040000 0.430000
v 0.870000 0.040000 0.430000
v -0.920000 0.040000 0.430000
v -1.420000 0.850000 0.480000
v -1.420000 0.850000 0.430000
v -0.920000 0.850000 0.430000
v -1.420000 0.040000 0.430000
v 1.420000 0.850000 0.430000
v 0.920000 0.850000 0.430000
v 1.420000 0.040000 0.480000
v 1.420000 0.040000 0.430000
v 0.920000 0.040000 0.430000
v 1.370000 0.800000 -0.490000
v 1.370000 0.800000 0.380000
v -1.370000 0.800000 0.380000
vn -0.0000 -1.0000 -0.0000
vn -0.0000 1.0000 -0.0000
vn -0.0000 -0.0000 1.0000
vn -1.0000 -0.0000 -0.0000
vn -0.0000 -0.0000 -1.0000
vn 1.0000 -0.0000 -0.0000
vn 0.0638 -0.9959 0.0639
vn -0.0000 -0.9988 -0.0481
vn -0.0000 -0.9988 -0.0482
vn -0.0000 -0.9988 0.0481
vn -0.0002 -1.0000 -0.0006
vn -0.0487 -0.9988 0.0005
vn -0.0487 -0.9988 0.0006
vt 0.000000 0.000000
vt 0.120512 0.037815
vt 0.962185 0.037815
vt 1.000000 0.000000
vt 0.125000 0.000000
vt 1.000000 1.000000
vt 0.125000 0.875000
vt 0.021008 0.042857
vt 0.189076 0.042857
vt 0.205882 0.042857
vt 0.978989 0.957793
vt 0.991594 1.000000
vt 0.978991 0.157237
vt 0.205882 0.957256
vt 0.000688 0.999312
vt 0.794116 0.957664
vt 0.000000 1.000000
vt 0.120510 0.962184
vt 1.000000 0.962185
vt 0.120513 0.879487
vt 0.000000 0.047222
vt 0.990625 0.088189
vt 0.990625 1.000000
vt 0.810923 0.957676
vt 0.037817 0.093685
vt 0.905714 0.094286
vt 0.999312 0.000688
vt 0.008406 0.000000
vt 0.962185 0.137460
vt 0.962185 1.000000
vt 0.987500 0.004166
vt 0.013171 0.004166
vt 0.986838 0.995116
vt 0.987500 0.012500
vt 0.037815 0.962185
vt 0.189076 0.157143
vt 0.189082 0.810918
vt 0.205882 0.794118
vt 0.000000 0.125000
vt 1.000000 0.125000
vt 0.000000 0.875000
vt 1.000000 0.875000
vt 0.840089 0.881882
vt 0.085459 0.875000
vt 0.810923 0.843311
vt 0.810924 0.189076
vt 0.794118 0.205882
vt 0.940051 0.125000
vt 0.125000 0.790909
vt 0.159926 0.125000
vt 0.914316 0.125000
vt 0.013162 0.004884
vt 0.012500 0.987500
vt 0.057475 0.875000
vt 0.000000 0.009375
vt 1.000000 0.009375
vt 0.794117 0.042856
vt 0.810924 0.042856
vt 0.943850 0.042857
vt 0.189075 0.957244
vt 0.055994 0.957152
vt 0.000000 0.952778
vt 0.990625 0.009375
vt 0.990625 0.952778
vt 0.021008 0.842857
vt 0.952778 0.061091
vt 0.952778 1.000000
vt 0.129375 0.792012
vt 0.012500 0.995834
vt 0.986829 0.995833
s 0
usemtl Material_0
f 4/1/1 16/2/1 17/3/1 18/4/1
f 43/8/3 3/9/3 31/10/3 4/1/3
f 37/11/3 14/12/3 8/4/3 6/13/3
f 10/14/3 11/15/3 14/12/3 13/16/3
f 19/18/1 8/17/1 21/6/1 22/19/1
f 16/2/1 4/1/1 8/17/1 19/20/1
f 8/4/4 14/1/4 15/17/4 21/6/4
f 13/16/3 14/12/3 37/11/3 12/24/3
f 46/25/5 20/26/5 15/27/5 1/28/5
f 18/4/6 1/1/6 11/17/6 4/6/6
f 15/27/5 20/29/5 22/30/5 21/6/5
f 17/35/5 46/25/5 1/28/5 18/17/5
f 31/10/3 3/36/3 9/37/3 10/38/3
f 12/45/3 5/46/3 7/47/3 13/16/3
f 8/4/3 7/57/3 5/58/3 6/59/3
f 11/15/3 10/14/3 9/60/3 2/61/3
f 4/1/3 11/15/3 2/65/3 43/8/3
f 4/1/3 31/10/3 7/57/3 8/4/3
usemtl Material_1
f 25/4/5 30/1/5 26/17/5 29/6/5
f 27/4/3 28/1/3 23/17/3 24/6/3
f 25/4/2 24/1/2 23/17/2 30/6/2
f 26/4/6 30/1/6 23/17/6 28/6/6
s 1
f 1/31/1 26/4/7 28/1/1 11/32/1
s 0
f 27/4/4 24/1/4 25/17/4 29/6/4
f 15/33/8 29/6/8 26/4/8
f 1/34/9 15/33/9 26/4/9
f 11/52/10 28/1/10 27/17/11 14/53/11
s 1
f 14/69/1 27/17/1 29/6/12 15/70/13
s 0
usemtl Material_2
f 31/5/2 35/4/2 34/6/2 7/7/2
f 35/17/3 32/1/3 33/4/3 34/6/3
f 47/17/4 46/21/4 17/22/4 16/23/4
f 33/17/6 13/39/6 7/40/6 34/6/6
f 10/41/4 32/1/4 35/4/4 31/42/4
f 39/1/4 36/4/4 5/43/4 12/44/4
f 43/5/2 44/4/2 45/6/2 3/7/2
f 13/5/1 33/4/1 32/6/1 10/7/1
f 36/17/3 39/1/3 38/4/3 40/6/3
f 37/5/1 38/4/1 39/6/1 12/7/1
f 38/17/6 37/39/6 6/48/6 40/6/6
f 5/5/2 36/4/2 40/6/2 6/49/2
f 42/17/6 9/50/6 3/51/6 45/6/6
f 44/17/3 41/1/3 42/4/3 45/6/3
f 41/1/4 44/4/4 43/42/4 2/54/4
f 47/17/5 16/55/5 19/56/5 48/6/5
f 20/62/6 48/1/6 19/63/6 22/64/6
f 47/17/1 48/1/1 20/66/1 46/67/1
f 9/5/1 42/4/1 41/6/1 2/68/1
