# Blender 4.2.1 LTS
# www.blender.org
o Body
v -0.061000 -0.147000 -0.074000
v -0.220000 0.010000 -0.042000
v -0.050000 0.100000 0.098000
v -0.050000 0.259000 0.060000
v -0.070000 0.090000 -0.132000
v -0.053000 0.264000 -0.074000
v -0.030000 -0.020000 0.078000
v -0.050000 -0.020000 -0.152000
v -0.140000 0.090000 -0.112000
v -0.105000 0.260000 -0.059000
v -0.140000 0.100000 0.078000
v -0.103000 0.262000 0.046000
v -0.123000 -0.161000 -0.073000
v -0.121000 -0.160000 0.009000
v -0.140000 -0.000000 0.068000
v -0.150000 -0.010000 -0.142000
v -0.136000 0.260000 -0.024000
v -0.090000 0.261000 0.060000
v -0.100000 0.100000 0.098000
v -0.087000 0.260000 -0.066000
v -0.110000 0.090000 -0.122000
v 0.000000 0.264000 -0.074000
v 0.000000 0.080000 -0.132000
v 0.000000 0.100000 0.098000
v 0.000000 0.258000 0.060000
v -0.180000 0.100000 -0.072000
v -0.119000 0.261000 -0.040000
v -0.180000 0.100000 0.038000
v -0.121000 0.267000 0.019000
v -0.168000 -0.147000 -0.040000
v -0.021000 -0.141000 -0.073000
v -0.200000 0.090000 -0.032000
v -0.154000 -0.144000 -0.007000
v -0.157000 -0.149000 -0.062000
v 0.000000 -0.030000 0.068000
v 0.000000 -0.020000 -0.142000
v -0.090000 -0.010000 0.078000
v -0.100000 -0.010000 -0.152000
v -0.049000 -0.150000 -0.002000
v 0.000000 -0.080000 0.048000
v -0.200000 -0.000000 -0.102000
v -0.190000 0.010000 0.038000
v 0.000000 0.210000 0.108000
v -0.050000 0.210000 0.108000
v -0.100000 0.200000 -0.112000
v -0.060000 0.190000 -0.122000
v -0.160000 0.200000 -0.072000
v -0.130000 0.210000 -0.102000
v -0.110000 0.210000 0.108000
v -0.140000 0.210000 0.078000
v -0.170000 0.210000 -0.032000
v -0.170000 0.210000 0.038000
v 0.000000 0.180000 -0.122000
v -0.220000 -0.080000 -0.042000
v -0.190000 -0.080000 0.028000
v -0.190000 -0.090000 -0.102000
v 0.000000 -0.100000 -0.122000
v -0.020000 -0.090000 -0.122000
v -0.060000 -0.100000 -0.122000
v -0.130000 -0.110000 -0.122000
v -0.030000 -0.070000 0.048000
v -0.130000 -0.090000 0.058000
v 0.000000 -0.120000 -0.042000
v 0.061000 -0.147000 -0.074000
v 0.220000 0.010000 -0.042000
v 0.050000 0.100000 0.098000
v 0.050000 0.259000 0.060000
v 0.070000 0.090000 -0.132000
v 0.053000 0.264000 -0.074000
v 0.030000 -0.020000 0.078000
v 0.050000 -0.020000 -0.152000
v 0.140000 0.090000 -0.112000
v 0.105000 0.260000 -0.059000
v 0.140000 0.100000 0.078000
v 0.103000 0.262000 0.046000
v 0.123000 -0.161000 -0.073000
v 0.121000 -0.160000 0.009000
v 0.140000 -0.000000 0.068000
v 0.150000 -0.010000 -0.142000
v 0.136000 0.260000 -0.024000
v 0.090000 0.261000 0.060000
v 0.100000 0.100000 0.098000
v 0.087000 0.260000 -0.066000
v 0.110000 0.090000 -0.122000
v 0.180000 0.100000 -0.072000
v 0.119000 0.261000 -0.040000
v 0.180000 0.100000 0.038000
v 0.121000 0.267000 0.019000
v 0.168000 -0.147000 -0.040000
v 0.021000 -0.141000 -0.073000
v 0.200000 0.090000 -0.032000
v 0.154000 -0.144000 -0.007000
v 0.157000 -0.149000 -0.062000
v 0.090000 -0.010000 0.078000
v 0.100000 -0.010000 -0.152000
v 0.049000 -0.150000 -0.002000
v 0.200000 -0.000000 -0.102000
v 0.190000 0.010000 0.038000
v 0.050000 0.210000 0.108000
v 0.100000 0.200000 -0.112000
v 0.060000 0.190000 -0.122000
v 0.160000 0.200000 -0.072000
v 0.130000 0.210000 -0.102000
v 0.110000 0.210000 0.108000
v 0.140000 0.210000 0.078000
v 0.170000 0.210000 -0.032000
v 0.170000 0.210000 0.038000
v 0.220000 -0.080000 -0.042000
v 0.190000 -0.080000 0.028000
v 0.190000 -0.090000 -0.102000
v 0.020000 -0.090000 -0.122000
v 0.060000 -0.100000 -0.122000
v 0.130000 -0.110000 -0.122000
v 0.030000 -0.070000 0.048000
v 0.130000 -0.090000 0.058000
vn -0.0717 -0.2394 0.9683
vn -0.1259 -0.5905 0.7971
vn -0.0000 -0.4531 0.8915
vn 0.0220 -0.3399 0.9402
vn -0.3815 -0.1342 0.9146
vn -0.5595 -0.0630 0.8265
vn -0.4924 -0.1231 0.8616
vn -0.2358 -0.1965 0.9517
vn -0.1008 -0.0096 -0.9949
vn -0.0247 -0.3171 -0.9481
vn -0.2510 -0.2352 -0.9390
vn -0.3721 0.0281 -0.9278
vn -0.9389 0.0680 0.3374
vn -0.9382 0.0583 0.3413
vn -0.9283 -0.0206 0.3713
vn -0.7783 0.0996 -0.6199
vn -0.7143 -0.1273 -0.6882
vn -0.9249 -0.0514 -0.3768
vn -0.9192 0.1328 -0.3708
vn -0.0000 -0.0785 -0.9969
vn -0.0000 -0.2993 -0.9541
vn 0.0582 -0.3184 -0.9462
vn 0.0280 -0.0948 -0.9951
vn -0.2163 0.1832 -0.9590
vn -0.0609 0.1483 -0.9871
vn 0.0178 -0.1354 0.9906
vn -0.2361 -0.1222 0.9640
vn -0.2676 0.1108 -0.9571
vn -0.1156 0.1076 -0.9874
vn -0.0000 -0.0905 0.9959
vn -0.0000 -0.1396 0.9902
vn -0.8108 0.2330 -0.5370
vn -0.4706 0.2211 -0.8542
vn -0.5776 -0.0489 0.8149
vn -0.3135 -0.0803 0.9462
vn -0.6714 -0.0147 0.7410
vn -0.8220 0.1697 -0.5436
vn -0.5160 0.1215 -0.8479
vn -0.9158 0.2081 -0.3434
vn -0.9024 0.2491 -0.3515
vn -0.7521 0.0342 0.6581
vn -0.6835 0.0116 0.7299
vn -0.0000 0.0988 -0.9951
vn -0.0000 0.1268 -0.9919
vn -0.9650 0.1609 0.2073
vn -0.9602 0.1580 0.2305
vn -0.9772 0.1699 0.1275
vn -0.0000 -0.7740 0.6332
vn -0.0000 0.9141 0.4056
vn -0.0000 0.8811 -0.4728
vn -0.0317 0.8768 -0.4798
vn 0.0016 0.9150 0.4035
vn -0.0819 0.8889 -0.4507
vn -0.1762 0.8897 0.4212
vn -0.2166 0.8953 -0.3893
vn -0.2836 0.9189 0.2743
vn -0.2757 0.9242 -0.2642
vn -0.3260 0.9358 0.1341
vn -0.5832 0.7959 -0.1626
vn 0.4121 -0.8607 -0.2991
vn 0.3311 -0.7449 -0.5792
vn 0.5129 -0.7537 -0.4109
vn 0.6950 -0.6958 0.1815
vn 0.1198 -0.9048 -0.4086
vn 0.3833 -0.8271 0.4112
vn -0.0602 -0.8804 0.4704
vn -0.1306 -0.9221 -0.3641
vn -0.4611 -0.8067 0.3697
vn -0.5951 -0.8020 0.0509
vn -0.4862 -0.8294 -0.2752
vn 0.0104 0.6973 0.7168
vn -0.0000 0.7034 0.7108
vn -0.0407 0.5495 -0.8345
vn -0.1398 0.6122 -0.7782
vn -0.3825 0.6837 -0.6215
vn -0.6429 0.6353 -0.4280
vn -0.5456 0.6794 0.4907
vn -0.2605 0.7175 0.6460
vn -0.7472 0.6309 -0.2089
vn -0.6967 0.6618 0.2767
vn -0.0000 0.5178 -0.8555
vn -0.6323 -0.5916 0.5002
vn -0.7828 -0.6210 0.0393
vn -0.6248 -0.6422 -0.4441
vn 0.1358 -0.6961 -0.7050
vn -0.1683 -0.7033 -0.6907
vn 0.3914 -0.5957 0.7014
vn -0.1506 -0.6001 0.7856
vn 0.0717 -0.2394 0.9683
vn -0.0220 -0.3399 0.9402
vn 0.1259 -0.5905 0.7971
vn 0.3815 -0.1342 0.9146
vn 0.2358 -0.1965 0.9517
vn 0.4924 -0.1231 0.8616
vn 0.5595 -0.0630 0.8265
vn 0.1008 -0.0096 -0.9949
vn 0.3721 0.0281 -0.9278
vn 0.2510 -0.2352 -0.9390
vn 0.0247 -0.3171 -0.9481
vn 0.9389 0.0680 0.3374
vn 0.9283 -0.0206 0.3713
vn 0.9382 0.0583 0.3413
vn 0.7783 0.0996 -0.6199
vn 0.9192 0.1328 -0.3708
vn 0.9249 -0.0514 -0.3768
vn 0.7143 -0.1273 -0.6882
vn -0.0280 -0.0948 -0.9951
vn -0.0582 -0.3184 -0.9462
vn 0.0609 0.1483 -0.9871
vn 0.2163 0.1832 -0.9590
vn 0.2361 -0.1222 0.9640
vn -0.0178 -0.1354 0.9906
vn 0.2676 0.1108 -0.9571
vn 0.1156 0.1076 -0.9874
vn 0.4706 0.2211 -0.8542
vn 0.8108 0.2330 -0.5370
vn 0.5776 -0.0489 0.8149
vn 0.3135 -0.0803 0.9462
vn 0.6714 -0.0147 0.7410
vn 0.8220 0.1697 -0.5436
vn 0.5160 0.1215 -0.8479
vn 0.9158 0.2081 -0.3434
vn 0.9024 0.2491 -0.3515
vn 0.6835 0.0116 0.7299
vn 0.7521 0.0342 0.6581
vn 0.9650 0.1609 0.2073
vn 0.9602 0.1580 0.2305
vn 0.9772 0.1699 0.1275
vn -0.0016 0.9150 0.4035
vn 0.0317 0.8768 -0.4798
vn 0.0819 0.8889 -0.4507
vn 0.1762 0.8897 0.4212
vn 0.2836 0.9189 0.2743
vn 0.2166 0.8953 -0.3893
vn 0.2757 0.9242 -0.2642
vn 0.3260 0.9358 0.1341
vn 0.5832 0.7959 -0.1626
vn -0.4121 -0.8607 -0.2991
vn -0.6950 -0.6958 0.1815
vn -0.5129 -0.7537 -0.4109
vn -0.3311 -0.7449 -0.5792
vn -0.1198 -0.9048 -0.4086
vn 0.0602 -0.8804 0.4704
vn -0.3833 -0.8271 0.4112
vn 0.1306 -0.9221 -0.3641
vn 0.4611 -0.8067 0.3697
vn 0.5951 -0.8020 0.0509
vn 0.4862 -0.8294 -0.2752
vn -0.0104 0.6973 0.7168
vn 0.1398 0.6122 -0.7782
vn 0.0407 0.5495 -0.8345
vn 0.6429 0.6353 -0.4280
vn 0.3825 0.6837 -0.6215
vn 0.2605 0.7175 0.6460
vn 0.5456 0.6794 0.4907
vn 0.7472 0.6309 -0.2089
vn 0.6967 0.6618 0.2767
vn 0.7828 -0.6210 0.0393
vn 0.6323 -0.5916 0.5002
vn 0.6248 -0.6422 -0.4441
vn -0.1358 -0.6961 -0.7050
vn 0.1683 -0.7033 -0.6907
vn 0.1506 -0.6001 0.7856
vn -0.3914 -0.5957 0.7014
vt 0.213592 0.040447
vt 0.229504 0.024534
vt 0.237461 0.035143
vt 0.229504 0.037795
vt 0.200332 0.043099
vt 0.187071 0.045751
vt 0.187071 0.021882
vt 0.202984 0.019230
vt 0.027140 0.199970
vt 0.037745 0.176110
vt 0.019187 0.173459
vt 0.013885 0.199970
vt 0.162003 0.282712
vt 0.183280 0.282712
vt 0.183280 0.258776
vt 0.164662 0.258776
vt 0.199237 0.280053
vt 0.199237 0.256116
vt 0.003280 0.178761
vt 0.000629 0.202621
vt 0.053651 0.197319
vt 0.053651 0.176110
vt 0.048349 0.178761
vt 0.040396 0.197319
vt 0.024489 0.226481
vt 0.035094 0.226481
vt 0.224200 0.069620
vt 0.210940 0.069620
vt 0.027140 0.255644
vt 0.037745 0.252993
vt 0.237461 0.098792
vt 0.224200 0.098792
vt 0.237461 0.069620
vt 0.005931 0.229133
vt 0.016536 0.226481
vt 0.200332 0.069620
vt 0.208288 0.098792
vt 0.200332 0.098792
vt 0.011233 0.255644
vt 0.019187 0.258295
vt 0.180620 0.335904
vt 0.191259 0.333245
vt 0.191259 0.306649
vt 0.180620 0.303989
vt 0.151364 0.335904
vt 0.162003 0.335904
vt 0.162003 0.306649
vt 0.151364 0.306649
vt 0.053651 0.250342
vt 0.053651 0.223830
vt 0.189723 0.069620
vt 0.237204 0.000742
vt 0.228324 0.006661
vt 0.237204 0.033300
vt 0.237204 0.006661
vt 0.112207 0.338946
vt 0.112207 0.374180
vt 0.098271 0.374180
vt 0.099060 0.338946
vt 0.089331 0.372077
vt 0.088542 0.338946
vt 0.084598 0.370236
vt 0.085124 0.342627
vt 0.080917 0.365240
vt 0.080391 0.349727
vt 0.076447 0.361033
vt 0.238380 0.206806
vt 0.238698 0.222378
vt 0.245054 0.222378
vt 0.245054 0.196954
vt 0.118700 0.147633
vt 0.129250 0.147369
vt 0.121865 0.128643
vt 0.102876 0.125742
vt 0.102348 0.147369
vt 0.094172 0.129962
vt 0.090479 0.138666
vt 0.093381 0.144468
vt 0.237461 0.111522
vt 0.224200 0.111788
vt 0.030587 0.271550
vt 0.039600 0.272611
vt 0.078024 0.381542
vt 0.070136 0.373654
vt 0.075395 0.334213
vt 0.083283 0.326325
vt 0.178492 0.349202
vt 0.182748 0.349468
vt 0.213592 0.112318
vt 0.025815 0.271550
vt 0.167056 0.351064
vt 0.067507 0.344731
vt 0.053651 0.272611
vt 0.182748 0.240956
vt 0.173971 0.241754
vt 0.188599 0.240424
vt 0.048084 0.165240
vt 0.037480 0.163650
vt 0.021043 0.159938
vt 0.205370 0.000666
vt 0.224465 0.003318
vt 0.084677 0.155018
vt 0.100502 0.160293
vt 0.196619 0.004909
vt 0.053112 0.402594
vt 0.074502 0.405305
vt 0.065163 0.411632
vt 0.038049 0.426695
vt 0.261329 0.040447
vt 0.245417 0.037795
vt 0.245417 0.024534
vt 0.274590 0.043099
vt 0.271938 0.019230
vt 0.287850 0.021882
vt 0.287850 0.045751
vt 0.080163 0.199970
vt 0.093418 0.199970
vt 0.088116 0.173459
vt 0.069558 0.176110
vt 0.318345 0.287792
vt 0.321005 0.263855
vt 0.339622 0.263855
vt 0.339622 0.287792
vt 0.355579 0.285132
vt 0.355579 0.261196
vt 0.106674 0.202621
vt 0.104023 0.178761
vt 0.066907 0.197319
vt 0.058954 0.178761
vt 0.072209 0.226481
vt 0.082814 0.226481
vt 0.263981 0.069620
vt 0.250721 0.069620
vt 0.080163 0.255644
vt 0.069558 0.252993
vt 0.250721 0.098792
vt 0.090767 0.226481
vt 0.101372 0.229133
vt 0.274590 0.069620
vt 0.266633 0.098792
vt 0.274590 0.098792
vt 0.096069 0.255644
vt 0.088116 0.258295
vt 0.336962 0.340984
vt 0.336962 0.309069
vt 0.347601 0.311728
vt 0.347601 0.338325
vt 0.307706 0.340984
vt 0.307706 0.311728
vt 0.318345 0.311728
vt 0.318345 0.340984
vt 0.285198 0.069620
vt 0.246084 0.006661
vt 0.125354 0.338946
vt 0.126142 0.374180
vt 0.135082 0.372077
vt 0.135871 0.338946
vt 0.139290 0.342627
vt 0.139815 0.370236
vt 0.143497 0.365240
vt 0.144022 0.349727
vt 0.147967 0.361033
vt 0.251728 0.206806
vt 0.251410 0.222378
vt 0.390979 0.417422
vt 0.406803 0.395531
vt 0.387814 0.398432
vt 0.380429 0.417158
vt 0.407331 0.417158
vt 0.415507 0.399751
vt 0.419200 0.408455
vt 0.416298 0.414257
vt 0.250721 0.111788
vt 0.076716 0.271550
vt 0.067702 0.272611
vt 0.154277 0.373654
vt 0.146389 0.381542
vt 0.141130 0.326325
vt 0.149018 0.334213
vt 0.334835 0.354282
vt 0.339090 0.354548
vt 0.261329 0.112318
vt 0.081488 0.271550
vt 0.323398 0.356144
vt 0.156907 0.344731
vt 0.339090 0.246036
vt 0.330313 0.246834
vt 0.344941 0.245504
vt 0.059219 0.165240
vt 0.069823 0.163650
vt 0.086260 0.159938
vt 0.269551 0.000666
vt 0.250456 0.003318
vt 0.409177 0.430082
vt 0.425002 0.424807
vt 0.278303 0.004909
vt 0.219614 0.403723
vt 0.204550 0.427824
vt 0.231664 0.412761
vt 0.241004 0.406434
s 1
f 37/1/1 61/2/2 35/3/3 7/4/4
f 15/5/5 42/6/6 55/7/7 62/8/8
f 38/9/9 59/10/10 60/11/11 16/12/12
f 42/13/13 2/14/14 54/15/15 55/16/15
f 41/17/16 56/18/17 54/15/18 2/14/19
f 16/12/12 60/11/11 56/19/17 41/20/16
f 36/21/20 57/22/21 58/23/22 8/24/23
f 38/9/9 21/25/24 5/26/25 8/24/23
f 37/1/1 7/4/4 3/27/26 19/28/27
f 45/29/28 46/30/29 5/26/25 21/25/24
f 43/31/30 44/32/30 3/27/26 24/33/31
f 8/24/23 58/23/22 59/10/10 38/9/9
f 41/20/16 26/34/32 9/35/33 16/12/12
f 37/1/1 19/28/27 11/36/34 15/5/5
f 49/37/35 50/38/36 11/36/34 19/28/27
f 47/39/37 48/40/38 9/35/33 26/34/32
f 51/41/39 47/42/37 26/43/32 32/44/40
f 44/32/30 49/37/35 19/28/27 3/27/26
f 48/40/38 45/29/28 21/25/24 9/35/33
f 50/45/36 52/46/41 28/47/42 11/48/34
f 46/30/29 53/49/43 23/50/44 5/26/25
f 15/5/5 11/36/34 28/51/42 42/6/6
f 28/47/45 32/44/46 2/14/14 42/13/13
f 16/12/12 9/35/33 21/25/24 38/9/9
f 7/4/4 35/3/3 24/33/31 3/27/26
f 8/24/23 5/26/25 23/50/44 36/21/20
f 51/41/47 32/44/46 28/47/45 52/46/47
f 26/43/32 41/17/16 2/14/19 32/44/40
f 35/52/3 61/53/2 63/54/48 40/55/48
f 61/2/2 37/1/1 15/5/5 62/8/8
f 25/56/49 22/57/50 6/58/51 4/59/52
f 20/60/53 18/61/54 4/59/52 6/58/51
f 18/61/54 20/60/53 10/62/55 12/63/56
f 27/64/57 29/65/58 12/63/56 10/62/55
f 27/64/57 17/66/59 29/65/58
f 31/67/60 58/68/61 57/69/62 63/70/63
f 1/71/64 31/72/60 39/73/65 14/74/66
f 13/75/67 1/71/64 14/74/66 33/76/68
f 30/77/69 34/78/70 13/75/67 33/76/68
f 25/79/49 4/80/52 44/32/71 43/31/72
f 20/81/53 6/82/51 46/30/73 45/29/74
f 27/64/57 10/62/55 48/83/75 47/84/76
f 18/61/54 12/63/56 50/85/77 49/86/78
f 17/87/59 27/88/57 47/42/76 51/41/79
f 4/80/52 18/89/54 49/37/78 44/32/71
f 10/90/55 20/81/53 45/29/74 48/40/75
f 29/91/58 17/87/59 51/41/79 52/46/80
f 12/63/56 29/65/58 52/92/80 50/85/77
f 6/82/51 22/93/50 53/49/81 46/30/73
f 30/94/69 33/95/68 55/16/82 54/15/83
f 34/96/70 30/94/69 54/15/83 56/18/84
f 31/97/60 1/98/64 59/10/85 58/23/61
f 1/98/64 13/99/67 60/11/86 59/10/85
f 14/100/66 39/101/65 61/2/87 62/8/88
f 13/75/67 34/78/70 56/102/84 60/103/86
f 33/104/68 14/100/66 62/8/88 55/7/82
f 39/105/65 31/106/60 63/107/63 61/108/87
f 94/109/89 70/110/90 35/3/3 114/111/91
f 78/112/92 115/113/93 109/114/94 98/115/95
f 95/116/96 79/117/97 113/118/98 112/119/99
f 98/120/100 109/121/101 108/122/101 65/123/102
f 97/124/103 65/123/104 108/122/105 110/125/106
f 79/117/97 97/126/103 110/127/106 113/118/98
f 36/21/20 71/128/107 111/129/108 57/22/21
f 95/116/96 71/128/107 68/130/109 84/131/110
f 94/109/89 82/132/111 66/133/112 70/110/90
f 100/134/113 84/131/110 68/130/109 101/135/114
f 43/31/30 24/33/31 66/133/112 99/136/30
f 71/128/107 95/116/96 112/119/99 111/129/108
f 97/126/103 79/117/97 72/137/115 85/138/116
f 94/109/89 78/112/92 74/139/117 82/132/111
f 104/140/118 82/132/111 74/139/117 105/141/119
f 102/142/120 85/138/116 72/137/115 103/143/121
f 106/144/122 91/145/123 85/146/116 102/147/120
f 99/136/30 66/133/112 82/132/111 104/140/118
f 103/143/121 72/137/115 84/131/110 100/134/113
f 105/148/119 74/149/117 87/150/124 107/151/125
f 101/135/114 68/130/109 23/50/44 53/49/43
f 78/112/92 98/115/95 87/152/124 74/139/117
f 87/150/126 98/120/100 65/123/102 91/145/127
f 79/117/97 95/116/96 84/131/110 72/137/115
f 70/110/90 66/133/112 24/33/31 35/3/3
f 71/128/107 36/21/20 23/50/44 68/130/109
f 106/144/128 107/151/128 87/150/126 91/145/127
f 85/146/116 91/145/123 65/123/104 97/124/103
f 35/52/3 40/55/48 63/54/48 114/153/91
f 114/111/91 115/113/93 78/112/92 94/109/89
f 25/56/49 67/154/129 69/155/130 22/57/50
f 83/156/131 69/155/130 67/154/129 81/157/132
f 81/157/132 75/158/133 73/159/134 83/156/131
f 86/160/135 73/159/134 75/158/133 88/161/136
f 86/160/135 88/161/136 80/162/137
f 90/163/138 63/70/139 57/69/140 111/164/141
f 64/165/142 77/166/143 96/167/144 90/168/138
f 76/169/145 92/170/146 77/166/143 64/165/142
f 89/171/147 92/170/146 76/169/145 93/172/148
f 25/79/49 43/31/72 99/136/149 67/173/129
f 83/174/131 100/134/150 101/135/151 69/175/130
f 86/160/135 102/176/152 103/177/153 73/159/134
f 81/157/132 104/178/154 105/179/155 75/158/133
f 80/180/137 106/144/156 102/147/152 86/181/135
f 67/173/129 99/136/149 104/140/154 81/182/132
f 73/183/134 103/143/153 100/134/150 83/174/131
f 88/184/136 107/151/157 106/144/156 80/180/137
f 75/158/133 105/179/155 107/185/157 88/161/136
f 69/175/130 101/135/151 53/49/81 22/93/50
f 89/186/147 108/122/158 109/121/159 92/187/146
f 93/188/148 110/125/160 108/122/158 89/186/147
f 90/189/138 111/129/141 112/119/161 64/190/142
f 64/190/142 112/119/161 113/118/162 76/191/145
f 77/192/143 115/113/163 114/111/164 96/193/144
f 76/169/145 113/194/162 110/195/160 93/172/148
f 92/196/146 109/114/159 115/113/163 77/192/143
f 96/197/144 114/198/164 63/199/139 90/200/138
