# Blender 4.2.1 LTS
# www.blender.org
o Leg
v 0.069000 0.035000 -0.052000
v 0.015000 -0.430000 0.038000
v 0.010000 -0.390000 -0.050000
v 0.047000 -0.437000 0.006000
v -0.009000 -0.430000 -0.001000
v 0.032000 -0.432000 -0.013000
v 0.060000 -0.410000 0.060000
v -0.003000 -0.430000 0.030000
v 0.010000 -0.110000 0.100000
v 0.020000 -0.240000 0.090000
v 0.020000 -0.120000 -0.090000
v 0.020000 -0.240000 -0.070000
v 0.010000 -0.360000 -0.050000
v 0.020000 -0.350000 0.060000
v 0.004000 0.040500 -0.052000
v 0.005000 0.055500 0.072000
v 0.120000 -0.250000 -0.010000
v 0.140000 -0.130000 -0.010000
v -0.070000 -0.230000 -0.010000
v -0.080000 -0.100000 -0.010000
v 0.090000 -0.130000 0.070000
v 0.080000 -0.260000 0.070000
v 0.090000 -0.260000 -0.050000
v 0.100000 -0.140000 -0.070000
v -0.060000 -0.100000 0.070000
v -0.050000 -0.220000 0.050000
v -0.040000 -0.100000 -0.070000
v -0.030000 -0.220000 -0.050000
v -0.040000 -0.360000 -0.020000
v 0.080000 -0.360000 0.000000
v -0.060000 0.044000 0.001000
v 0.103000 0.050000 0.000000
v 0.060000 -0.360000 0.050000
v -0.020000 -0.350000 0.040000
v -0.020000 -0.360000 -0.060000
v 0.060000 -0.360000 -0.050000
v -0.039000 0.051000 0.050000
v -0.041000 0.043000 -0.037000
v 0.081000 0.054000 0.065000
v 0.090000 0.042000 -0.030000
v -0.090000 0.010000 0.000000
v -0.060000 0.010000 0.070000
v -0.060000 0.000000 -0.060000
v 0.110000 0.000000 -0.080000
v 0.070000 -0.010000 -0.080000
v 0.000000 -0.020000 -0.080000
v 0.100000 0.020000 0.090000
v 0.000000 0.000000 0.100000
v 0.130000 0.020000 0.010000
v 0.037000 -0.437000 0.034000
v 0.010000 -0.400000 0.070000
v 0.050000 -0.400000 -0.040000
v 0.080000 -0.410000 0.000000
v -0.030000 -0.400000 0.050000
v -0.040000 -0.400000 -0.020000
v -0.030000 -0.390000 -0.060000
v 0.003000 -0.431000 -0.020000
vn 0.7276 -0.1257 -0.6744
vn 0.6128 -0.0998 -0.7839
vn 0.8201 -0.0128 -0.5721
vn 0.8004 -0.0841 -0.5936
vn -0.4319 0.2592 0.8639
vn -0.4798 0.0137 0.8773
vn -0.4785 0.0233 0.8778
vn 0.0922 -0.1537 -0.9838
vn 0.1779 -0.1041 -0.9785
vn 0.0940 -0.0888 -0.9916
vn 0.1228 -0.1316 -0.9837
vn -0.3058 0.0340 -0.9515
vn -0.1242 0.0327 -0.9917
vn -0.0836 -0.0732 -0.9938
vn -0.3392 -0.0412 -0.9398
vn -0.4214 -0.0192 0.9067
vn -0.4432 -0.0755 0.8932
vn -0.4480 -0.0884 0.8897
vn 0.2627 -0.1558 0.9522
vn 0.2849 -0.1158 0.9515
vn 0.2329 -0.0585 0.9707
vn 0.2363 -0.0226 0.9714
vn 0.1757 -0.1406 -0.9744
vn -0.0239 -0.1237 -0.9920
vn 0.1829 -0.0938 -0.9787
vn -0.4791 -0.1661 0.8619
vn -0.4842 -0.1764 0.8570
vn -0.2989 -0.1210 -0.9466
vn 0.0876 -0.0431 -0.9952
vn 0.8801 -0.1928 0.4338
vn 0.8786 -0.1737 0.4448
vn 0.8814 -0.0824 0.4651
vn 0.8818 -0.0817 0.4645
vn -0.7812 -0.0942 -0.6172
vn -0.7826 -0.0918 -0.6158
vn -0.8225 -0.0933 -0.5611
vn -0.8184 -0.0949 -0.5668
vn 0.2787 -0.0534 0.9589
vn 0.2607 -0.0597 0.9636
vn 0.8368 -0.2114 -0.5051
vn 0.8408 -0.2378 -0.4863
vn -0.9330 -0.1742 0.3150
vn -0.9381 -0.1588 0.3079
vn -0.9512 -0.0772 0.2987
vn -0.9515 -0.0784 0.2976
vn 0.2163 -0.0749 0.9734
vn 0.8928 -0.0595 0.4464
vn 0.8548 -0.2285 -0.4660
vn 0.8548 -0.2280 -0.4662
vn 0.9392 0.0342 0.3415
vn 0.9201 -0.1291 0.3698
vn 0.9226 -0.1162 0.3679
vn -0.9333 0.1333 -0.3333
vn -0.8748 0.0255 -0.4839
vn -0.8773 0.0291 -0.4791
vn 0.1340 0.0291 -0.9906
vn 0.2744 -0.0457 -0.9605
vn -0.9681 0.1313 0.2133
vn -0.9558 -0.0640 0.2871
vn -0.9603 -0.0351 0.2769
vn 0.8571 -0.1500 -0.4928
vn 0.2489 0.1659 0.9542
vn 0.9670 0.0960 -0.2362
vn -0.8640 -0.0760 -0.4977
vn -0.9471 -0.0574 0.3157
vn 0.2669 0.8926 -0.3634
vn 0.2764 0.8817 0.3824
vn 0.3727 0.9199 -0.1215
vn 0.0241 0.8013 -0.5978
vn -0.1086 0.8663 0.4876
vn -0.0549 0.8071 -0.5879
vn -0.3801 0.8628 0.3334
vn -0.5316 0.8436 -0.0761
vn -0.3214 0.8166 -0.4795
vn -0.3578 -0.8953 0.2655
vn -0.4203 -0.9025 -0.0934
vn -0.1646 -0.8779 0.4497
vn 0.1750 -0.9299 0.3235
vn -0.0782 -0.8582 -0.5073
vn 0.1539 -0.8700 -0.4684
vn 0.3678 -0.9191 -0.1417
vn -0.7784 0.6220 -0.0848
vn -0.5840 0.5670 0.5809
vn -0.4344 0.5473 -0.7154
vn 0.2948 0.7066 -0.6433
vn 0.0261 0.5678 -0.8227
vn -0.0966 0.4701 -0.8773
vn -0.1763 0.5126 0.8403
vn 0.3992 0.6527 0.6439
vn 0.7385 0.6737 -0.0293
vn 0.3132 -0.7942 0.5207
vn -0.1786 -0.7172 0.6736
vn 0.2630 -0.6808 -0.6837
vn 0.5921 -0.7809 -0.1988
vn -0.5382 -0.7433 0.3972
vn -0.6204 -0.7636 -0.1787
vn -0.2905 -0.7796 -0.5548
vn -0.0274 -0.6978 -0.7157
vt 0.137418 0.289672
vt 0.129574 0.323661
vt 0.140032 0.326276
vt 0.147876 0.292286
vt 0.338561 0.120352
vt 0.349007 0.120352
vt 0.351619 0.133410
vt 0.341173 0.133410
vt 0.124345 0.221693
vt 0.113887 0.224308
vt 0.113887 0.232151
vt 0.126959 0.232151
vt 0.095585 0.326276
vt 0.111272 0.321047
vt 0.116501 0.294901
vt 0.100814 0.300130
vt 0.330726 0.227428
vt 0.330726 0.198700
vt 0.349007 0.196089
vt 0.346396 0.224816
vt 0.367289 0.156914
vt 0.351619 0.162138
vt 0.362065 0.130798
vt 0.134803 0.258297
vt 0.116501 0.263526
vt 0.333338 0.167361
vt 0.103428 0.268755
vt 0.106043 0.232151
vt 0.206232 0.255224
vt 0.227486 0.257881
vt 0.227486 0.289762
vt 0.206232 0.289762
vt 0.298866 0.302250
vt 0.288162 0.299574
vt 0.288162 0.334362
vt 0.304218 0.334362
vt 0.369900 0.190865
vt 0.238113 0.255224
vt 0.243427 0.287105
vt 0.272106 0.302250
vt 0.266754 0.334362
vt 0.372512 0.230039
vt 0.224829 0.329614
vt 0.200918 0.329614
vt 0.224829 0.228656
vt 0.238113 0.228656
vt 0.208889 0.215372
vt 0.224829 0.215372
vt 0.211545 0.228656
vt 0.301542 0.256758
vt 0.290838 0.254082
vt 0.290838 0.264786
vt 0.301542 0.264786
vt 0.103428 0.224308
vt 0.272106 0.254082
vt 0.274782 0.267462
vt 0.235456 0.218029
vt 0.362065 0.117740
vt 0.246084 0.324300
vt 0.285486 0.363798
vt 0.301542 0.361122
vt 0.266754 0.363798
vt 0.040013 0.150904
vt 0.037713 0.126632
vt 0.043334 0.143239
vt 0.034647 0.156525
vt 0.018295 0.124843
vt 0.018040 0.156525
vt 0.007053 0.130464
vt 0.001688 0.142984
vt 0.006542 0.152693
vt 0.229348 0.142704
vt 0.227649 0.151484
vt 0.234446 0.140438
vt 0.240677 0.141571
vt 0.231047 0.156865
vt 0.239261 0.154883
vt 0.243510 0.149501
vt 0.272106 0.374769
vt 0.285218 0.372896
vt 0.295387 0.372629
vt 0.129312 0.335427
vt 0.134803 0.337257
vt 0.112318 0.336865
vt 0.367550 0.238919
vt 0.347702 0.239311
vt 0.100552 0.337518
vt 0.336211 0.238135
vt 0.224829 0.337584
vt 0.207560 0.338647
vt 0.050233 0.143239
vt 0.045123 0.163679
vt 0.247192 0.134207
vt 0.233030 0.131374
vt 0.244359 0.162530
vt 0.252857 0.151201
vt 0.285754 0.246054
vt 0.277458 0.246054
vt 0.221701 0.168195
vt 0.233030 0.165362
vt 0.218868 0.156865
vt 0.119639 0.213326
vt 0.112056 0.213588
vt 0.221701 0.137039
s 1
f 24/1/1 45/2/2 44/3/3 18/4/4
f 54/5/5 51/6/5 14/7/6 34/8/7
f 52/9/8 3/10/9 13/11/10 36/12/11
f 43/13/12 46/14/13 11/15/14 27/16/15
f 42/17/16 25/18/17 9/19/18 48/20/16
f 22/21/19 10/22/20 14/7/21 33/23/22
f 23/24/23 12/25/24 11/15/14 24/1/25
f 26/26/26 10/22/27 9/19/18 25/18/17
f 28/27/28 12/25/24 13/11/10 35/28/29
f 12/25/24 23/24/23 36/12/11 13/11/10
f 22/29/30 17/30/31 18/31/32 21/32/33
f 28/33/34 19/34/35 20/35/36 27/36/37
f 10/22/20 22/21/19 21/37/38 9/19/39
f 17/30/40 23/38/41 24/39/1 18/31/4
f 19/34/42 26/40/43 25/41/44 20/35/45
f 12/25/24 28/27/28 27/16/15 11/15/14
f 10/22/27 26/26/26 34/8/7 14/7/6
f 48/20/46 9/19/39 21/37/38 47/42/46
f 49/43/47 47/44/47 21/32/33 18/31/32
f 23/38/41 17/30/40 30/45/48 36/46/49
f 7/47/50 53/48/50 30/45/51 33/49/52
f 56/50/53 55/51/53 29/52/54 35/53/55
f 46/14/13 45/2/56 24/1/25 11/15/14
f 3/10/9 56/54/57 35/28/29 13/11/10
f 55/51/58 54/55/58 34/56/59 29/52/60
f 53/48/61 52/57/61 36/46/49 30/45/48
f 51/6/62 7/58/62 33/23/22 14/7/21
f 19/34/35 28/33/34 35/53/55 29/52/54
f 49/43/63 18/31/4 44/59/3
f 17/30/31 22/29/30 33/49/52 30/45/51
f 41/60/64 43/61/64 27/36/37 20/35/36
f 26/40/43 19/34/42 29/52/60 34/56/59
f 42/62/65 41/60/65 20/35/45 25/41/44
f 40/63/66 39/64/67 32/65/68
f 1/66/69 16/67/70 39/64/67 40/63/66
f 15/68/71 37/69/72 16/67/70 1/66/69
f 31/70/73 37/69/72 15/68/71 38/71/74
f 8/72/75 5/73/76 2/74/77
f 50/75/78 2/74/77 5/73/76 57/76/79
f 50/75/78 57/76/79 6/77/80 4/78/81
f 37/79/72 31/80/73 41/60/82 42/62/83
f 31/80/73 38/81/74 43/61/84 41/60/82
f 1/82/69 40/83/66 44/3/85 45/2/86
f 15/84/71 1/82/69 45/2/86 46/14/87
f 39/85/67 16/86/70 48/20/88 47/42/89
f 38/87/74 15/84/71 46/14/87 43/13/84
f 16/86/70 37/88/72 42/17/83 48/20/88
f 32/89/68 39/90/67 47/44/89 49/43/90
f 40/63/66 32/65/68 49/91/90 44/92/85
f 2/74/77 50/75/78 7/93/91 51/94/92
f 4/78/81 6/77/80 52/95/93 53/96/94
f 5/97/76 8/98/75 54/55/95 55/51/96
f 57/76/79 5/73/76 56/99/97 3/100/98
f 5/73/76 55/101/96 56/99/97
f 50/75/78 4/78/81 53/96/94 7/93/91
f 6/102/80 57/103/79 3/10/98 52/9/93
f 8/72/75 2/74/77 51/94/92 54/104/95
