# Blender 4.2.1 LTS
# www.blender.org
mtllib Picto_body.mtl
o Body
v -0.080000 0.700000 -0.070000
v -0.110000 0.700000 -0.070000
v -0.080000 0.730000 -0.060000
v -0.110000 0.730000 -0.060000
v -0.230000 0.710000 -0.060000
v -0.140000 0.700000 -0.070000
v -0.140000 0.730000 -0.060000
v -0.230000 0.740000 -0.030000
v -0.140000 0.760000 -0.030000
v -0.080000 0.760000 -0.030000
v -0.110000 0.770000 0.000000
v -0.110000 0.760000 -0.030000
v -0.150000 0.070000 0.000000
v -0.080000 0.070000 -0.070000
v -0.080000 0.000000 0.000000
v -0.140000 0.070000 -0.030000
v -0.140000 0.040000 0.000000
v -0.130000 0.040000 -0.030000
v -0.080000 0.040000 -0.060000
v -0.110000 0.070000 -0.060000
v -0.110000 0.040000 -0.050000
v -0.080000 0.010000 -0.030000
v -0.110000 0.020000 -0.030000
v -0.080000 0.770000 0.000000
v -0.140000 0.770000 0.000000
v -0.110000 0.010000 0.000000
v -0.080000 0.670000 -0.070000
v -0.140000 0.640000 -0.030000
v -0.140000 0.670000 -0.060000
v -0.110000 0.670000 -0.060000
v -0.150000 0.630000 0.000000
v -0.300000 0.680000 0.000000
v -0.260000 0.740000 0.000000
v -0.230000 0.750000 0.000000
v -0.260000 0.730000 -0.030000
v -0.260000 0.680000 -0.060000
v -0.260000 0.710000 -0.050000
v -0.290000 0.710000 0.000000
v -0.290000 0.680000 -0.030000
v -0.280000 0.710000 -0.030000
v -0.230000 0.680000 -0.070000
v -0.230000 0.610000 0.000000
v -0.230000 0.650000 -0.060000
v -0.260000 0.650000 -0.050000
v -0.260000 0.620000 0.000000
v -0.230000 0.620000 -0.030000
v -0.260000 0.630000 -0.030000
v -0.280000 0.650000 -0.030000
v -0.290000 0.650000 0.000000
v 0.000000 0.700000 -0.070000
v 0.000000 0.730000 -0.060000
v 0.000000 0.760000 -0.030000
v 0.000000 0.010000 -0.030000
v 0.000000 0.040000 -0.060000
v 0.000000 0.070000 -0.070000
v 0.000000 0.770000 0.000000
v 0.000000 0.670000 -0.070000
v 0.000000 0.000000 0.000000
v 0.080000 0.700000 -0.070000
v 0.110000 0.700000 -0.070000
v 0.080000 0.730000 -0.060000
v 0.110000 0.730000 -0.060000
v 0.230000 0.710000 -0.060000
v 0.140000 0.700000 -0.070000
v 0.140000 0.730000 -0.060000
v 0.230000 0.740000 -0.030000
v 0.140000 0.760000 -0.030000
v 0.080000 0.760000 -0.030000
v 0.110000 0.770000 0.000000
v 0.110000 0.760000 -0.030000
v 0.150000 0.070000 0.000000
v 0.080000 0.070000 -0.070000
v 0.080000 0.000000 0.000000
v 0.140000 0.070000 -0.030000
v 0.140000 0.040000 0.000000
v 0.130000 0.040000 -0.030000
v 0.080000 0.040000 -0.060000
v 0.110000 0.070000 -0.060000
v 0.110000 0.040000 -0.050000
v 0.080000 0.010000 -0.030000
v 0.110000 0.020000 -0.030000
v 0.080000 0.770000 0.000000
v 0.140000 0.770000 0.000000
v 0.110000 0.010000 0.000000
v 0.080000 0.670000 -0.070000
v 0.140000 0.640000 -0.030000
v 0.140000 0.670000 -0.060000
v 0.110000 0.670000 -0.060000
v 0.150000 0.630000 0.000000
v 0.300000 0.680000 0.000000
v 0.260000 0.740000 0.000000
v 0.230000 0.750000 0.000000
v 0.260000 0.730000 -0.030000
v 0.260000 0.680000 -0.060000
v 0.260000 0.710000 -0.050000
v 0.290000 0.710000 0.000000
v 0.290000 0.680000 -0.030000
v 0.280000 0.710000 -0.030000
v 0.230000 0.680000 -0.070000
v 0.230000 0.610000 0.000000
v 0.230000 0.650000 -0.060000
v 0.260000 0.650000 -0.050000
v 0.260000 0.620000 0.000000
v 0.230000 0.620000 -0.030000
v 0.260000 0.630000 -0.030000
v 0.280000 0.650000 -0.030000
v 0.290000 0.650000 0.000000
v -0.080000 0.700000 0.070000
v -0.110000 0.700000 0.070000
v -0.080000 0.730000 0.060000
v -0.110000 0.730000 0.060000
v -0.230000 0.710000 0.060000
v -0.140000 0.700000 0.070000
v -0.140000 0.730000 0.060000
v -0.230000 0.740000 0.030000
v -0.140000 0.760000 0.030000
v -0.080000 0.760000 0.030000
v -0.110000 0.760000 0.030000
v -0.080000 0.070000 0.070000
v -0.140000 0.070000 0.030000
v -0.130000 0.040000 0.030000
v -0.080000 0.040000 0.060000
v -0.110000 0.070000 0.060000
v -0.110000 0.040000 0.050000
v -0.080000 0.010000 0.030000
v -0.110000 0.020000 0.030000
v -0.080000 0.670000 0.070000
v -0.140000 0.640000 0.030000
v -0.140000 0.670000 0.060000
v -0.110000 0.670000 0.060000
v -0.260000 0.730000 0.030000
v -0.260000 0.680000 0.060000
v -0.260000 0.710000 0.050000
v -0.290000 0.680000 0.030000
v -0.280000 0.710000 0.030000
v -0.230000 0.680000 0.070000
v -0.230000 0.650000 0.060000
v -0.260000 0.650000 0.050000
v -0.230000 0.620000 0.030000
v -0.260000 0.630000 0.030000
v -0.280000 0.650000 0.030000
v 0.000000 0.700000 0.070000
v 0.000000 0.730000 0.060000
v 0.000000 0.760000 0.030000
v 0.000000 0.010000 0.030000
v 0.000000 0.040000 0.060000
v 0.000000 0.070000 0.070000
v 0.000000 0.670000 0.070000
v 0.080000 0.700000 0.070000
v 0.110000 0.700000 0.070000
v 0.080000 0.730000 0.060000
v 0.110000 0.730000 0.060000
v 0.230000 0.710000 0.060000
v 0.140000 0.700000 0.070000
v 0.140000 0.730000 0.060000
v 0.230000 0.740000 0.030000
v 0.140000 0.760000 0.030000
v 0.080000 0.760000 0.030000
v 0.110000 0.760000 0.030000
v 0.080000 0.070000 0.070000
v 0.140000 0.070000 0.030000
v 0.130000 0.040000 0.030000
v 0.080000 0.040000 0.060000
v 0.110000 0.070000 0.060000
v 0.110000 0.040000 0.050000
v 0.080000 0.010000 0.030000
v 0.110000 0.020000 0.030000
v 0.080000 0.670000 0.070000
v 0.140000 0.640000 0.030000
v 0.140000 0.670000 0.060000
v 0.110000 0.670000 0.060000
v 0.260000 0.730000 0.030000
v 0.260000 0.680000 0.060000
v 0.260000 0.710000 0.050000
v 0.290000 0.680000 0.030000
v 0.280000 0.710000 0.030000
v 0.230000 0.680000 0.070000
v 0.230000 0.650000 0.060000
v 0.260000 0.650000 0.050000
v 0.230000 0.620000 0.030000
v 0.260000 0.630000 0.030000
v 0.280000 0.650000 0.030000
vn -0.0418 0.1200 -0.9919
vn -0.0000 -0.0000 -1.0000
vn -0.0000 0.5257 -0.8507
vn -0.0049 0.0220 -0.9997
vn -0.0600 0.5358 -0.8422
vn -0.1505 -0.0229 -0.9883
vn -0.1920 0.4945 -0.8477
vn -0.2288 0.8291 -0.5102
vn -0.0929 0.8511 -0.5168
vn -0.2643 0.9644 -0.0000
vn -0.1068 0.9943 -0.0000
vn -0.0000 1.0000 -0.0000
vn -0.0000 0.8507 -0.5257
vn -0.9879 -0.1553 -0.0000
vn -0.8484 -0.1368 -0.5114
vn -0.7562 -0.4627 -0.4627
vn -0.8626 -0.5060 -0.0000
vn -0.5114 -0.1368 -0.8484
vn -0.4627 -0.4627 -0.7562
vn -0.1559 -0.1559 -0.9754
vn -0.1368 -0.5114 -0.8484
vn -0.1368 -0.8484 -0.5114
vn -0.4627 -0.7562 -0.4627
vn -0.1553 -0.9879 -0.0000
vn -0.5060 -0.8626 -0.0000
vn -0.4627 0.7562 -0.4627
vn -0.5060 0.8626 -0.0000
vn -0.4627 0.4627 -0.7562
vn -0.5060 -0.0000 -0.8626
vn -0.8626 -0.0000 -0.5060
vn -0.7562 0.4627 -0.4627
vn -1.0000 -0.0000 -0.0000
vn -0.8626 0.5060 -0.0000
vn -0.0771 -0.5262 -0.8469
vn -0.0404 -0.8648 -0.5004
vn -0.0419 -0.9991 -0.0000
vn -0.1602 -0.0000 -0.9871
vn -0.4396 -0.0000 -0.8982
vn -0.8159 -0.0000 -0.5782
vn -0.0000 0.1602 -0.9871
vn -0.0000 -1.0000 -0.0000
vn -0.0000 -0.8507 -0.5257
vn -0.0000 -0.5257 -0.8507
vn -0.0000 -0.1602 -0.9871
vn 0.2290 -0.9734 -0.0000
vn 0.1549 -0.8045 -0.5734
vn 0.0560 -0.5130 -0.8566
vn -0.0000 -0.4396 -0.8982
vn 0.0418 0.1200 -0.9919
vn 0.0600 0.5358 -0.8422
vn 0.0049 0.0220 -0.9997
vn 0.1505 -0.0229 -0.9883
vn 0.1920 0.4945 -0.8477
vn 0.0929 0.8511 -0.5168
vn 0.2288 0.8291 -0.5102
vn 0.2643 0.9644 -0.0000
vn 0.1068 0.9943 -0.0000
vn 0.9879 -0.1553 -0.0000
vn 0.8626 -0.5060 -0.0000
vn 0.7562 -0.4627 -0.4627
vn 0.8484 -0.1368 -0.5114
vn 0.4627 -0.4627 -0.7562
vn 0.5114 -0.1368 -0.8484
vn 0.1559 -0.1559 -0.9754
vn 0.1368 -0.5114 -0.8484
vn 0.4627 -0.7562 -0.4627
vn 0.1368 -0.8484 -0.5114
vn 0.1553 -0.9879 -0.0000
vn 0.5060 -0.8626 -0.0000
vn 0.5060 0.8626 -0.0000
vn 0.4627 0.7562 -0.4627
vn 0.4627 0.4627 -0.7562
vn 0.5060 -0.0000 -0.8626
vn 0.7562 0.4627 -0.4627
vn 0.8626 -0.0000 -0.5060
vn 1.0000 -0.0000 -0.0000
vn 0.8626 0.5060 -0.0000
vn 0.0771 -0.5262 -0.8469
vn 0.0404 -0.8648 -0.5004
vn 0.0419 -0.9991 -0.0000
vn 0.1602 -0.0000 -0.9871
vn 0.4396 -0.0000 -0.8982
vn 0.8159 -0.0000 -0.5782
vn -0.2290 -0.9734 -0.0000
vn -0.1549 -0.8045 -0.5734
vn -0.0560 -0.5130 -0.8566
vn -0.0418 0.1200 0.9919
vn -0.0000 0.5257 0.8507
vn -0.0000 -0.0000 1.0000
vn -0.0600 0.5358 0.8422
vn -0.0049 0.0220 0.9997
vn -0.1505 -0.0229 0.9883
vn -0.1920 0.4945 0.8477
vn -0.0929 0.8511 0.5168
vn -0.2288 0.8291 0.5102
vn -0.0000 0.8507 0.5257
vn -0.7562 -0.4627 0.4627
vn -0.8484 -0.1368 0.5114
vn -0.4627 -0.4627 0.7562
vn -0.5114 -0.1368 0.8484
vn -0.1559 -0.1559 0.9754
vn -0.1368 -0.5114 0.8484
vn -0.4627 -0.7562 0.4627
vn -0.1368 -0.8484 0.5114
vn -0.4627 0.7562 0.4627
vn -0.4627 0.4627 0.7562
vn -0.5060 -0.0000 0.8626
vn -0.7562 0.4627 0.4627
vn -0.8626 -0.0000 0.5060
vn -0.0771 -0.5262 0.8469
vn -0.0404 -0.8648 0.5004
vn -0.1602 -0.0000 0.9871
vn -0.4396 -0.0000 0.8982
vn -0.8159 -0.0000 0.5782
vn -0.0000 0.1602 0.9871
vn -0.0000 -0.8507 0.5257
vn -0.0000 -0.5257 0.8507
vn -0.0000 -0.1602 0.9871
vn 0.1549 -0.8045 0.5734
vn 0.0560 -0.5130 0.8566
vn -0.0000 -0.4396 0.8982
vn 0.0418 0.1200 0.9919
vn 0.0049 0.0220 0.9997
vn 0.0600 0.5358 0.8422
vn 0.1505 -0.0229 0.9883
vn 0.1920 0.4945 0.8477
vn 0.2288 0.8291 0.5102
vn 0.0929 0.8511 0.5168
vn 0.8484 -0.1368 0.5114
vn 0.7562 -0.4627 0.4627
vn 0.5114 -0.1368 0.8484
vn 0.4627 -0.4627 0.7562
vn 0.1559 -0.1559 0.9754
vn 0.1368 -0.5114 0.8484
vn 0.1368 -0.8484 0.5114
vn 0.4627 -0.7562 0.4627
vn 0.4627 0.7562 0.4627
vn 0.4627 0.4627 0.7562
vn 0.5060 -0.0000 0.8626
vn 0.8626 -0.0000 0.5060
vn 0.7562 0.4627 0.4627
vn 0.0771 -0.5262 0.8469
vn 0.0404 -0.8648 0.5004
vn 0.1602 -0.0000 0.9871
vn 0.4396 -0.0000 0.8982
vn 0.8159 -0.0000 0.5782
vn -0.1549 -0.8045 0.5734
vn -0.0560 -0.5130 0.8566
vt 0.195312 0.835938
vt 0.187500 0.835938
vt 0.187500 0.843750
vt 0.195312 0.843750
vt 0.179688 0.835938
vt 0.179688 0.843750
vt 0.156250 0.828125
vt 0.156250 0.835938
vt 0.132812 0.882812
vt 0.132812 0.875000
vt 0.156250 0.875000
vt 0.156250 0.882812
vt 0.132812 0.867188
vt 0.156250 0.867188
vt 0.164062 0.867188
vt 0.164062 0.875000
vt 0.171875 0.867188
vt 0.171875 0.875000
vt 0.171875 0.882812
vt 0.164062 0.882812
vt 0.031250 0.679688
vt 0.039062 0.679688
vt 0.039062 0.671875
vt 0.031250 0.671875
vt 0.179688 0.671875
vt 0.187500 0.671875
vt 0.187500 0.664062
vt 0.179688 0.664062
vt 0.195312 0.671875
vt 0.195312 0.664062
vt 0.054688 0.656250
vt 0.054688 0.648438
vt 0.046875 0.648438
vt 0.046875 0.656250
vt 0.054688 0.640625
vt 0.046875 0.640625
vt 0.039062 0.640625
vt 0.039062 0.648438
vt 0.187500 0.656250
vt 0.125000 0.875000
vt 0.125000 0.867188
vt 0.125000 0.882812
vt 0.148438 0.828125
vt 0.148438 0.835938
vt 0.171875 0.812500
vt 0.164062 0.812500
vt 0.164062 0.820312
vt 0.171875 0.820312
vt 0.156250 0.812500
vt 0.156250 0.820312
vt 0.117188 0.867188
vt 0.117188 0.875000
vt 0.148438 0.820312
vt 0.171875 0.921875
vt 0.171875 0.914062
vt 0.164062 0.914062
vt 0.164062 0.921875
vt 0.171875 0.906250
vt 0.164062 0.906250
vt 0.156250 0.906250
vt 0.156250 0.914062
vt 0.164062 0.804688
vt 0.156250 0.804688
vt 0.171875 0.804688
vt 0.195312 0.828125
vt 0.187500 0.828125
vt 0.179688 0.820312
vt 0.039062 0.820312
vt 0.031250 0.820312
vt 0.218750 0.835938
vt 0.218750 0.843750
vt 0.195312 0.882812
vt 0.195312 0.875000
vt 0.195312 0.867188
vt 0.078125 0.640625
vt 0.078125 0.648438
vt 0.078125 0.656250
vt 0.218750 0.664062
vt 0.218750 0.671875
vt 0.195312 0.906250
vt 0.195312 0.914062
vt 0.195312 0.921875
vt 0.179688 0.828125
vt 0.203125 0.921875
vt 0.218750 0.828125
vt 0.242188 0.835938
vt 0.242188 0.843750
vt 0.250000 0.843750
vt 0.250000 0.835938
vt 0.257812 0.843750
vt 0.257812 0.835938
vt 0.281250 0.828125
vt 0.281250 0.835938
vt 0.257812 0.882812
vt 0.234375 0.882812
vt 0.234375 0.875000
vt 0.257812 0.875000
vt 0.257812 0.867188
vt 0.234375 0.867188
vt 0.226562 0.875000
vt 0.226562 0.867188
vt 0.218750 0.867188
vt 0.218750 0.875000
vt 0.226562 0.882812
vt 0.218750 0.882812
vt 0.125000 0.679688
vt 0.125000 0.671875
vt 0.132812 0.671875
vt 0.132812 0.679688
vt 0.257812 0.671875
vt 0.257812 0.664062
vt 0.250000 0.664062
vt 0.250000 0.671875
vt 0.242188 0.671875
vt 0.242188 0.664062
vt 0.101562 0.656250
vt 0.109375 0.656250
vt 0.109375 0.648438
vt 0.101562 0.648438
vt 0.101562 0.640625
vt 0.109375 0.640625
vt 0.117188 0.648438
vt 0.117188 0.640625
vt 0.250000 0.656250
vt 0.265625 0.867188
vt 0.265625 0.875000
vt 0.265625 0.882812
vt 0.289062 0.835938
vt 0.289062 0.828125
vt 0.171875 0.789062
vt 0.171875 0.796875
vt 0.164062 0.796875
vt 0.164062 0.789062
vt 0.156250 0.789062
vt 0.156250 0.796875
vt 0.273438 0.867188
vt 0.273438 0.875000
vt 0.289062 0.820312
vt 0.281250 0.820312
vt 0.242188 0.921875
vt 0.250000 0.921875
vt 0.250000 0.914062
vt 0.242188 0.914062
vt 0.242188 0.906250
vt 0.250000 0.906250
vt 0.257812 0.914062
vt 0.257812 0.906250
vt 0.156250 0.781250
vt 0.164062 0.781250
vt 0.171875 0.781250
vt 0.242188 0.828125
vt 0.250000 0.828125
vt 0.257812 0.820312
vt 0.132812 0.820312
vt 0.125000 0.820312
vt 0.218750 0.906250
vt 0.218750 0.914062
vt 0.218750 0.921875
vt 0.257812 0.828125
vt 0.210938 0.921875
vt 0.054688 0.835938
vt 0.054688 0.843750
vt 0.046875 0.843750
vt 0.046875 0.835938
vt 0.039062 0.843750
vt 0.039062 0.835938
vt 0.015625 0.828125
vt 0.015625 0.835938
vt 0.132812 0.851562
vt 0.156250 0.851562
vt 0.156250 0.859375
vt 0.132812 0.859375
vt 0.164062 0.859375
vt 0.171875 0.859375
vt 0.164062 0.851562
vt 0.171875 0.851562
vt 0.023438 0.671875
vt 0.023438 0.679688
vt 0.039062 0.664062
vt 0.046875 0.664062
vt 0.046875 0.671875
vt 0.054688 0.671875
vt 0.054688 0.664062
vt 0.054688 0.625000
vt 0.046875 0.625000
vt 0.046875 0.632812
vt 0.054688 0.632812
vt 0.039062 0.632812
vt 0.125000 0.859375
vt 0.125000 0.851562
vt 0.007812 0.835938
vt 0.007812 0.828125
vt 0.140625 0.812500
vt 0.140625 0.820312
vt 0.148438 0.812500
vt 0.117188 0.859375
vt 0.007812 0.820312
vt 0.015625 0.820312
vt 0.171875 0.890625
vt 0.164062 0.890625
vt 0.164062 0.898438
vt 0.171875 0.898438
vt 0.156250 0.898438
vt 0.148438 0.804688
vt 0.140625 0.804688
vt 0.054688 0.828125
vt 0.046875 0.828125
vt 0.023438 0.820312
vt 0.078125 0.835938
vt 0.078125 0.843750
vt 0.195312 0.851562
vt 0.195312 0.859375
vt 0.078125 0.632812
vt 0.078125 0.625000
vt 0.078125 0.664062
vt 0.078125 0.671875
vt 0.195312 0.898438
vt 0.195312 0.890625
vt 0.039062 0.828125
vt 0.203125 0.890625
vt 0.078125 0.828125
vt 0.101562 0.835938
vt 0.109375 0.835938
vt 0.109375 0.843750
vt 0.101562 0.843750
vt 0.117188 0.835938
vt 0.117188 0.843750
vt 0.140625 0.828125
vt 0.140625 0.835938
vt 0.257812 0.851562
vt 0.257812 0.859375
vt 0.234375 0.859375
vt 0.234375 0.851562
vt 0.226562 0.859375
vt 0.218750 0.859375
vt 0.218750 0.851562
vt 0.226562 0.851562
vt 0.117188 0.679688
vt 0.117188 0.671875
vt 0.109375 0.671875
vt 0.109375 0.664062
vt 0.117188 0.664062
vt 0.101562 0.671875
vt 0.101562 0.664062
vt 0.101562 0.625000
vt 0.101562 0.632812
vt 0.109375 0.632812
vt 0.109375 0.625000
vt 0.117188 0.632812
vt 0.265625 0.859375
vt 0.265625 0.851562
vt 0.140625 0.789062
vt 0.148438 0.789062
vt 0.148438 0.796875
vt 0.140625 0.796875
vt 0.273438 0.859375
vt 0.242188 0.890625
vt 0.242188 0.898438
vt 0.250000 0.898438
vt 0.250000 0.890625
vt 0.257812 0.898438
vt 0.148438 0.781250
vt 0.140625 0.781250
vt 0.101562 0.828125
vt 0.109375 0.828125
vt 0.117188 0.820312
vt 0.218750 0.898438
vt 0.218750 0.890625
vt 0.117188 0.828125
vt 0.210938 0.890625
s 1
usemtl æè´¨
f 1/1/1 2/2/2 4/3/3 3/4/3
f 2/2/2 6/5/4 7/6/5 4/3/3
f 41/7/6 5/8/7 7/6/5 6/5/4
f 5/9/7 8/10/8 9/11/9 7/12/5
f 34/13/10 25/14/11 9/11/9 8/10/8
f 25/14/11 11/15/12 12/16/13 9/11/9
f 24/17/12 10/18/13 12/16/13 11/15/12
f 10/18/13 3/19/3 4/20/3 12/16/13
f 4/20/3 7/12/5 9/11/9 12/16/13
f 13/21/14 16/22/15 18/23/16 17/24/17
f 16/25/15 20/26/18 21/27/19 18/28/16
f 14/29/20 19/30/21 21/27/19 20/26/18
f 19/31/21 22/32/22 23/33/23 21/34/19
f 15/35/24 26/36/25 23/33/23 22/32/22
f 26/36/25 17/37/17 18/38/16 23/33/23
f 18/28/16 21/27/19 23/39/23
f 34/13/10 8/10/8 35/40/26 33/41/27
f 8/10/8 5/9/7 37/42/28 35/40/26
f 41/7/6 36/43/29 37/44/28 5/8/7
f 36/45/29 39/46/30 40/47/31 37/48/28
f 32/49/32 38/50/33 40/47/31 39/46/30
f 38/51/33 33/41/27 35/40/26 40/52/31
f 35/40/26 37/42/28 40/52/31
f 41/7/6 43/50/34 44/53/19 36/43/29
f 43/54/34 46/55/35 47/56/23 44/57/19
f 42/58/36 45/59/25 47/56/23 46/55/35
f 45/59/25 49/60/17 48/61/16 47/56/23
f 32/49/32 39/46/30 48/62/16 49/63/17
f 39/46/30 36/45/29 44/64/19 48/62/16
f 44/57/19 47/56/23 48/61/16
f 27/65/37 14/29/20 20/26/18 30/66/38
f 30/66/38 20/26/18 16/25/15 28/67/39
f 28/68/39 16/22/15 13/21/14 31/69/32
f 50/70/40 1/1/1 3/4/3 51/71/3
f 51/72/3 3/19/3 10/18/13 52/73/13
f 52/73/13 10/18/13 24/17/12 56/74/12
f 58/75/41 15/35/24 22/32/22 53/76/42
f 53/76/42 22/32/22 19/31/21 54/77/43
f 54/78/43 19/30/21 14/29/20 55/79/44
f 31/80/45 42/58/36 46/55/35 28/81/46
f 28/81/46 46/55/35 43/54/34 29/82/47
f 1/1/1 30/66/48 2/2/2
f 29/83/47 43/50/34 41/7/6 6/5/4
f 27/65/37 30/66/38 1/1/1
f 28/81/46 29/82/47 30/84/48
f 6/5/4 2/2/2 30/66/48 29/83/47
f 14/29/20 27/65/37 57/85/2 55/79/44
f 27/65/37 1/1/1 50/70/40 57/85/2
f 59/86/49 61/87/3 62/88/3 60/89/2
f 60/89/2 62/88/3 65/90/50 64/91/51
f 99/92/52 64/91/51 65/90/50 63/93/53
f 63/94/53 65/95/50 67/96/54 66/97/55
f 92/98/56 66/97/55 67/96/54 83/99/57
f 83/99/57 67/96/54 70/100/13 69/101/12
f 82/102/12 69/101/12 70/100/13 68/103/13
f 68/103/13 70/100/13 62/104/3 61/105/3
f 62/104/3 70/100/13 67/96/54 65/95/50
f 71/106/58 75/107/59 76/108/60 74/109/61
f 74/110/61 76/111/60 79/112/62 78/113/63
f 72/114/64 78/113/63 79/112/62 77/115/65
f 77/116/65 79/117/62 81/118/66 80/119/67
f 73/120/68 80/119/67 81/118/66 84/121/69
f 84/121/69 81/118/66 76/122/60 75/123/59
f 76/111/60 81/124/66 79/112/62
f 92/98/56 91/125/70 93/126/71 66/97/55
f 66/97/55 93/126/71 95/127/72 63/94/53
f 99/92/52 63/93/53 95/128/72 94/129/73
f 94/130/73 95/131/72 98/132/74 97/133/75
f 90/134/76 97/133/75 98/132/74 96/135/77
f 96/136/77 98/137/74 93/126/71 91/125/70
f 93/126/71 98/137/74 95/127/72
f 99/92/52 94/129/73 102/138/62 101/139/78
f 101/140/78 102/141/62 105/142/66 104/143/79
f 100/144/80 104/143/79 105/142/66 103/145/69
f 103/145/69 105/142/66 106/146/60 107/147/59
f 90/134/76 107/148/59 106/149/60 97/133/75
f 97/133/75 106/149/60 102/150/62 94/130/73
f 102/141/62 106/146/60 105/142/66
f 85/151/81 88/152/82 78/113/63 72/114/64
f 88/152/82 86/153/83 74/110/61 78/113/63
f 86/154/83 89/155/76 71/106/58 74/109/61
f 50/70/40 51/71/3 61/87/3 59/86/49
f 51/72/3 52/73/13 68/103/13 61/105/3
f 52/73/13 56/74/12 82/102/12 68/103/13
f 58/75/41 53/76/42 80/119/67 73/120/68
f 53/76/42 54/77/43 77/116/65 80/119/67
f 54/78/43 55/79/44 72/114/64 77/115/65
f 89/156/84 86/157/85 104/143/79 100/144/80
f 86/157/85 87/158/86 101/140/78 104/143/79
f 59/86/49 60/89/2 88/152/48
f 87/159/86 64/91/51 99/92/52 101/139/78
f 85/151/81 59/86/49 88/152/82
f 86/157/85 88/160/48 87/158/86
f 64/91/51 87/159/86 88/152/48 60/89/2
f 72/114/64 55/79/44 57/85/2 85/151/81
f 85/151/81 57/85/2 50/70/40 59/86/49
f 108/161/87 110/162/88 111/163/88 109/164/89
f 109/164/89 111/163/88 114/165/90 113/166/91
f 136/167/92 113/166/91 114/165/90 112/168/93
f 112/169/93 114/170/90 116/171/94 115/172/95
f 34/13/10 115/172/95 116/171/94 25/14/11
f 25/14/11 116/171/94 118/173/96 11/15/12
f 24/17/12 11/15/12 118/173/96 117/174/96
f 117/174/96 118/173/96 111/175/88 110/176/88
f 111/175/88 118/173/96 116/171/94 114/170/90
f 13/21/14 17/24/17 121/177/97 120/178/98
f 120/23/98 121/179/97 124/180/99 123/181/100
f 119/182/101 123/181/100 124/180/99 122/183/102
f 122/184/102 124/185/99 126/186/103 125/187/104
f 15/35/24 125/187/104 126/186/103 26/36/25
f 26/36/25 126/186/103 121/188/97 17/37/17
f 121/179/97 126/34/103 124/180/99
f 34/13/10 33/41/27 131/189/105 115/172/95
f 115/172/95 131/189/105 133/190/106 112/169/93
f 136/167/92 112/168/93 133/191/106 132/192/107
f 132/193/107 133/194/106 135/53/108 134/195/109
f 32/49/32 134/195/109 135/53/108 38/50/33
f 38/51/33 135/196/108 131/189/105 33/41/27
f 131/189/105 135/196/108 133/190/106
f 136/167/92 132/192/107 138/197/99 137/198/110
f 137/199/110 138/200/99 140/201/103 139/202/111
f 42/58/36 139/202/111 140/201/103 45/59/25
f 45/59/25 140/201/103 141/203/97 49/60/17
f 32/49/32 49/63/17 141/204/97 134/195/109
f 134/195/109 141/204/97 138/205/99 132/193/107
f 138/200/99 141/203/97 140/201/103
f 127/206/112 130/207/113 123/181/100 119/182/101
f 130/207/113 128/68/114 120/23/98 123/181/100
f 128/208/114 31/69/32 13/21/14 120/178/98
f 142/209/115 143/210/88 110/162/88 108/161/87
f 143/211/88 144/212/96 117/174/96 110/176/88
f 144/212/96 56/74/12 24/17/12 117/174/96
f 58/75/41 145/213/116 125/187/104 15/35/24
f 145/213/116 146/214/117 122/184/102 125/187/104
f 146/215/117 147/216/118 119/182/101 122/183/102
f 31/80/45 128/217/119 139/202/111 42/58/36
f 128/217/119 129/218/120 137/199/110 139/202/111
f 108/161/87 109/164/89 130/207/121
f 129/219/120 113/166/91 136/167/92 137/198/110
f 127/206/112 108/161/87 130/207/113
f 128/217/119 130/220/121 129/218/120
f 113/166/91 129/219/120 130/207/121 109/164/89
f 119/182/101 147/216/118 148/221/89 127/206/112
f 127/206/112 148/221/89 142/209/115 108/161/87
f 149/222/122 150/223/89 152/224/88 151/225/88
f 150/223/89 154/226/123 155/227/124 152/224/88
f 177/228/125 153/229/126 155/227/124 154/226/123
f 153/230/126 156/231/127 157/232/128 155/233/124
f 92/98/56 83/99/57 157/232/128 156/231/127
f 83/99/57 69/101/12 159/234/96 157/232/128
f 82/102/12 158/235/96 159/234/96 69/101/12
f 158/235/96 151/236/88 152/237/88 159/234/96
f 152/237/88 155/233/124 157/232/128 159/234/96
f 71/106/58 161/238/129 162/239/130 75/107/59
f 161/239/129 164/240/131 165/241/132 162/242/130
f 160/243/133 163/244/134 165/241/132 164/240/131
f 163/245/134 166/246/135 167/247/136 165/248/132
f 73/120/68 84/121/69 167/247/136 166/246/135
f 84/121/69 75/123/59 162/249/130 167/247/136
f 162/242/130 165/241/132 167/117/136
f 92/98/56 156/231/127 172/250/137 91/125/70
f 156/231/127 153/230/126 174/251/138 172/250/137
f 177/228/125 173/43/139 174/44/138 153/229/126
f 173/252/139 175/253/140 176/254/141 174/255/138
f 90/134/76 96/135/77 176/254/141 175/253/140
f 96/136/77 91/125/70 172/250/137 176/256/141
f 172/250/137 174/251/138 176/256/141
f 177/228/125 178/194/142 179/53/132 173/43/139
f 178/257/142 180/258/143 181/259/136 179/260/132
f 100/144/80 103/145/69 181/259/136 180/258/143
f 103/145/69 107/147/59 182/261/130 181/259/136
f 90/134/76 175/253/140 182/262/130 107/148/59
f 175/253/140 173/252/139 179/263/132 182/262/130
f 179/260/132 181/259/136 182/261/130
f 168/264/144 160/243/133 164/240/131 171/265/145
f 171/265/145 164/240/131 161/239/129 169/266/146
f 169/266/146 161/238/129 71/106/58 89/155/76
f 142/209/115 149/222/122 151/225/88 143/210/88
f 143/211/88 151/236/88 158/235/96 144/212/96
f 144/212/96 158/235/96 82/102/12 56/74/12
f 58/75/41 73/120/68 166/246/135 145/213/116
f 145/213/116 166/246/135 163/245/134 146/214/117
f 146/215/117 163/244/134 160/243/133 147/216/118
f 89/156/84 100/144/80 180/258/143 169/267/147
f 169/267/147 180/258/143 178/257/142 170/268/148
f 149/222/122 171/265/121 150/223/89
f 170/269/148 178/194/142 177/228/125 154/226/123
f 168/264/144 171/265/145 149/222/122
f 169/267/147 170/268/148 171/270/121
f 154/226/123 150/223/89 171/265/121 170/269/148
f 160/243/133 168/264/144 148/221/89 147/216/118
f 168/264/144 149/222/122 142/209/115 148/221/89
