# Blender 4.2.1 LTS
# www.blender.org
mtllib Picto_head.mtl
o Head
v -0.070000 0.040000 0.070000
v -0.070000 0.080000 0.110000
v -0.110000 0.080000 0.070000
v -0.070000 0.150000 0.130000
v -0.070000 0.220000 0.110000
v -0.070000 0.260000 0.070000
v -0.130000 0.150000 0.070000
v -0.110000 0.220000 0.070000
v -0.070000 0.020000 0.000000
v -0.070000 0.040000 -0.070000
v -0.130000 0.080000 0.000000
v -0.110000 0.080000 -0.070000
v -0.070000 0.080000 -0.110000
v -0.150000 0.150000 0.000000
v -0.070000 0.280000 0.000000
v -0.070000 0.260000 -0.070000
v -0.070000 0.150000 -0.130000
v -0.070000 0.220000 -0.110000
v -0.130000 0.220000 0.000000
v -0.130000 0.150000 -0.070000
v -0.110000 0.220000 -0.070000
v 0.000000 0.020000 0.070000
v 0.070000 0.040000 0.070000
v 0.110000 0.080000 0.070000
v 0.000000 0.080000 0.130000
v 0.070000 0.080000 0.110000
v 0.000000 0.150000 0.150000
v 0.000000 0.280000 0.070000
v 0.070000 0.260000 0.070000
v 0.070000 0.150000 0.130000
v 0.000000 0.220000 0.130000
v 0.070000 0.220000 0.110000
v 0.130000 0.150000 0.070000
v 0.110000 0.220000 0.070000
v 0.000000 0.000000 0.000000
v 0.150000 0.150000 0.000000
v 0.000000 0.020000 -0.070000
v 0.070000 0.020000 0.000000
v 0.070000 0.040000 -0.070000
v 0.000000 0.080000 -0.130000
v 0.070000 0.080000 -0.110000
v 0.130000 0.080000 0.000000
v 0.110000 0.080000 -0.070000
v 0.000000 0.300000 0.000000
v 0.000000 0.150000 -0.150000
v 0.070000 0.280000 0.000000
v 0.000000 0.280000 -0.070000
v 0.070000 0.260000 -0.070000
v 0.130000 0.150000 -0.070000
v 0.130000 0.220000 0.000000
v 0.110000 0.220000 -0.070000
v 0.000000 0.220000 -0.130000
v 0.070000 0.150000 -0.130000
v 0.070000 0.220000 -0.110000
vn -0.4484 -0.7732 0.4484
vn -0.4484 -0.4484 0.7732
vn -0.7732 -0.4484 0.4484
vn -0.4888 -0.0000 0.8724
vn -0.4484 0.4484 0.7732
vn -0.4484 0.7732 0.4484
vn -0.8724 -0.0000 0.4888
vn -0.7732 0.4484 0.4484
vn -0.4888 -0.8724 -0.0000
vn -0.4484 -0.7732 -0.4484
vn -0.8724 -0.4888 -0.0000
vn -0.7732 -0.4484 -0.4484
vn -0.4484 -0.4484 -0.7732
vn -1.0000 -0.0000 -0.0000
vn -0.4888 0.8724 -0.0000
vn -0.4484 0.7732 -0.4484
vn -0.4888 -0.0000 -0.8724
vn -0.4484 0.4484 -0.7732
vn -0.8724 0.4888 -0.0000
vn -0.8724 -0.0000 -0.4888
vn -0.7732 0.4484 -0.4484
vn -0.0000 -0.8724 0.4888
vn 0.4484 -0.7732 0.4484
vn 0.7732 -0.4484 0.4484
vn -0.0000 -0.4888 0.8724
vn 0.4484 -0.4484 0.7732
vn -0.0000 -0.0000 1.0000
vn -0.0000 0.8724 0.4888
vn 0.4484 0.7732 0.4484
vn 0.4888 -0.0000 0.8724
vn -0.0000 0.4888 0.8724
vn 0.4484 0.4484 0.7732
vn 0.8724 -0.0000 0.4888
vn 0.7732 0.4484 0.4484
vn -0.0000 -1.0000 -0.0000
vn 1.0000 -0.0000 -0.0000
vn -0.0000 -0.8724 -0.4888
vn 0.4888 -0.8724 -0.0000
vn 0.4484 -0.7732 -0.4484
vn -0.0000 -0.4888 -0.8724
vn 0.4484 -0.4484 -0.7732
vn 0.8724 -0.4888 -0.0000
vn 0.7732 -0.4484 -0.4484
vn -0.0000 1.0000 -0.0000
vn -0.0000 -0.0000 -1.0000
vn 0.4888 0.8724 -0.0000
vn -0.0000 0.8724 -0.4888
vn 0.4484 0.7732 -0.4484
vn 0.8724 -0.0000 -0.4888
vn 0.8724 0.4888 -0.0000
vn 0.7732 0.4484 -0.4484
vn -0.0000 0.4888 -0.8724
vn 0.4888 -0.0000 -0.8724
vn 0.4484 0.4484 -0.7732
vt 0.117188 0.921875
vt 0.117188 0.898438
vt 0.093750 0.898438
vt 0.093750 0.921875
vt 0.117188 0.882812
vt 0.093750 0.890625
vt 0.039062 0.867188
vt 0.023438 0.867188
vt 0.023438 0.851562
vt 0.039062 0.851562
vt 0.000000 0.867188
vt 0.007812 0.851562
vt 0.023438 0.976562
vt 0.023438 0.960938
vt 0.007812 0.960938
vt 0.007812 0.976562
vt 0.078125 0.921875
vt 0.085938 0.898438
vt 0.039062 0.882812
vt 0.023438 0.882812
vt 0.039062 0.898438
vt 0.015625 0.898438
vt 0.015625 0.890625
vt 0.039062 0.921875
vt 0.015625 0.921875
vt 0.000000 0.921875
vt 0.007812 0.898438
vt 0.007812 0.992188
vt 0.023438 0.992188
vt 0.007812 0.882812
vt 0.093750 0.945312
vt 0.117188 0.945312
vt 0.085938 0.945312
vt 0.039062 0.976562
vt 0.039062 0.960938
vt 0.062500 0.976562
vt 0.062500 0.960938
vt 0.046875 0.960938
vt 0.078125 0.976562
vt 0.078125 0.960938
vt 0.117188 0.960938
vt 0.093750 0.953125
vt 0.039062 0.945312
vt 0.015625 0.945312
vt 0.015625 0.953125
vt 0.062500 0.992188
vt 0.078125 0.992188
vt 0.046875 0.992188
vt 0.039062 0.992188
vt 0.007812 0.945312
vt 0.140625 0.921875
vt 0.140625 0.898438
vt 0.156250 0.921875
vt 0.148438 0.898438
vt 0.093750 0.867188
vt 0.078125 0.867188
vt 0.078125 0.851562
vt 0.093750 0.851562
vt 0.054688 0.867188
vt 0.054688 0.851562
vt 0.070312 0.851562
vt 0.140625 0.890625
vt 0.062500 0.898438
vt 0.062500 0.921875
vt 0.062500 0.890625
vt 0.054688 0.882812
vt 0.070312 0.882812
vt 0.093750 0.882812
vt 0.078125 0.882812
vt 0.070312 0.898438
vt 0.140625 0.945312
vt 0.140625 0.953125
vt 0.093750 0.976562
vt 0.093750 0.960938
vt 0.117188 0.976562
vt 0.109375 0.960938
vt 0.109375 0.851562
vt 0.109375 0.867188
vt 0.148438 0.945312
vt 0.062500 0.945312
vt 0.070312 0.945312
vt 0.109375 0.882812
vt 0.093750 0.992188
vt 0.109375 0.992188
vt 0.062500 0.953125
s 1
usemtl æè´¨
f 35/1/35 22/2/22 1/3/1 9/4/9
f 22/2/22 25/5/25 2/6/2 1/3/1
f 27/7/27 4/8/4 2/9/2 25/10/25
f 4/8/4 7/11/7 3/12/3 2/9/2
f 14/13/14 11/14/11 3/15/3 7/16/7
f 11/17/11 9/4/9 1/3/1 3/18/3
f 1/3/1 2/6/2 3/18/3
f 27/7/27 31/19/31 5/20/5 4/8/4
f 31/19/31 28/21/28 6/22/6 5/23/5
f 44/24/44 15/25/15 6/22/6 28/21/28
f 15/25/15 19/26/19 8/27/8 6/22/6
f 14/13/14 7/16/7 8/28/8 19/29/19
f 7/11/7 4/8/4 5/20/5 8/30/8
f 5/23/5 6/22/6 8/27/8
f 35/1/35 9/4/9 10/31/10 37/32/37
f 9/4/9 11/17/11 12/33/12 10/31/10
f 14/13/14 20/34/20 12/35/12 11/14/11
f 20/34/20 17/36/17 13/37/13 12/38/12
f 45/39/45 40/40/40 13/37/13 17/36/17
f 40/41/40 37/32/37 10/31/10 13/42/13
f 10/31/10 12/33/12 13/42/13
f 44/24/44 47/43/47 16/44/16 15/25/15
f 47/43/47 52/35/52 18/45/18 16/44/16
f 45/39/45 17/36/17 18/46/18 52/47/52
f 17/36/17 20/34/20 21/48/21 18/46/18
f 14/13/14 19/29/19 21/49/21 20/34/20
f 19/26/19 15/25/15 16/44/16 21/50/21
f 16/44/16 18/45/18 21/50/21
f 35/1/35 38/51/38 23/52/23 22/2/22
f 38/51/38 42/53/42 24/54/24 23/52/23
f 36/55/36 33/56/33 24/57/24 42/58/42
f 33/56/33 30/59/30 26/60/26 24/61/24
f 27/7/27 25/10/25 26/60/26 30/59/30
f 25/5/25 22/2/22 23/52/23 26/62/26
f 23/52/23 24/54/24 26/62/26
f 44/24/44 28/21/28 29/63/29 46/64/46
f 28/21/28 31/19/31 32/65/32 29/63/29
f 27/7/27 30/59/30 32/66/32 31/19/31
f 30/59/30 33/56/33 34/67/34 32/66/32
f 36/55/36 50/68/50 34/69/34 33/56/33
f 50/17/50 46/64/46 29/63/29 34/70/34
f 29/63/29 32/65/32 34/70/34
f 35/1/35 37/32/37 39/71/39 38/51/38
f 37/32/37 40/41/40 41/72/41 39/71/39
f 45/39/45 53/73/53 41/74/41 40/40/40
f 53/73/53 49/75/49 43/76/43 41/74/41
f 36/55/36 42/58/42 43/77/43 49/78/49
f 42/53/42 38/51/38 39/71/39 43/79/43
f 39/71/39 41/72/41 43/79/43
f 44/24/44 46/64/46 48/80/48 47/43/47
f 46/64/46 50/17/50 51/81/51 48/80/48
f 36/55/36 49/78/49 51/82/51 50/68/50
f 49/75/49 53/73/53 54/83/54 51/84/51
f 45/39/45 52/47/52 54/83/54 53/73/53
f 52/35/52 47/43/47 48/80/48 54/85/54
f 48/80/48 51/81/51 54/85/54
