# Blender 4.0.2
# www.blender.org
mtllib Root.mtl
o Root
v -0.131435 -1.440820 -1.411541
v 0.000000 1.000000 -1.000000
v 0.832917 -1.502662 -0.969164
v 0.700000 1.000000 -0.700000
v 1.315558 -1.666667 -0.108189
v 1.000000 1.000000 -0.000000
v 0.939244 -1.419468 0.955424
v 0.700000 1.000000 0.700000
v 0.229076 -1.254657 1.644114
v 0.000000 1.000000 1.000000
v -0.914699 -1.473094 1.080091
v -0.700000 1.000000 0.700000
v -1.583247 -1.474152 -0.102157
v -1.000000 1.000000 -0.000000
v -1.146352 -1.407430 -0.872183
v -0.700000 1.000000 -0.700000
v -0.125038 -0.859786 -1.827261
v 1.208285 -0.657933 -1.300721
v 1.773426 -0.884486 0.032386
v 1.428060 -0.734462 1.308243
v 0.213963 -0.586123 1.839296
v -1.326113 -0.669791 1.462663
v -2.108239 -0.649764 0.096988
v -1.420580 -0.764010 -1.315054
v 1.352304 -1.742153 -3.099923
v 2.003888 -1.430486 -3.129459
v 1.554739 -2.211525 -2.881784
v 2.088429 -2.034085 -2.962863
v 1.942213 -2.328880 -4.494165
v 2.486078 -2.016328 -4.495032
v 2.318723 -2.771448 -4.368772
v 2.745650 -2.464671 -4.420305
v 3.191648 -3.119334 -5.378441
v 3.629818 -3.011343 -5.335595
v 3.198012 -3.529671 -5.260902
v 3.491637 -3.361163 -5.242112
v 4.319609 -3.485332 -5.687483
v 4.520030 -3.427599 -5.663080
v 4.325959 -3.727028 -5.652989
v 4.442664 -3.610420 -5.616105
v -1.732762 -2.042028 -3.305967
v -1.220405 -1.956594 -3.309893
v -1.527558 -2.401823 -2.643957
v -1.066263 -2.397457 -2.788574
v -2.555504 -2.642001 -5.051811
v -2.229386 -2.499330 -5.191313
v -2.341501 -3.007795 -4.538171
v -2.015345 -2.945432 -4.556421
v -2.881946 -2.694351 -6.345392
v -2.615586 -2.642384 -6.485699
v -2.704756 -2.912799 -6.072515
v -2.508352 -2.898514 -6.101460
v -3.954540 -1.585935 -1.117314
v -3.517762 -1.584958 -1.694985
v -3.217142 -1.912771 -1.071428
v -3.081923 -1.888350 -1.361040
v -6.321620 -2.001342 -1.466646
v -6.006125 -2.136311 -2.042072
v -5.935266 -2.546937 -1.442713
v -5.629010 -2.605404 -1.727384
v -8.118443 -2.214797 -1.573204
v -8.027417 -2.319372 -1.965609
v -8.175425 -2.567653 -1.609878
v -8.196253 -2.705450 -1.796024
v -3.179116 -1.360099 2.690308
v -3.580418 -1.429600 1.966595
v -2.854557 -1.887369 2.367551
v -3.122292 -2.007928 1.881801
v -5.318446 -2.142278 3.942842
v -5.263579 -2.078616 2.916354
v -5.116388 -2.640368 3.748247
v -5.010487 -2.646538 2.973186
v -6.920833 -2.769548 5.610373
v -6.922357 -2.776196 5.174417
v -6.898713 -3.060206 5.559092
v -6.914106 -3.122980 5.249578
v -0.102367 -1.907326 3.484375
v -0.767479 -1.990057 3.438025
v -0.080307 -2.402838 3.204271
v -0.402178 -2.682030 3.461691
v 0.079369 -2.725441 5.574422
v -0.390723 -2.842952 5.520714
v -0.036406 -3.203398 4.896827
v -0.345186 -3.197055 4.973454
v 0.405062 -3.443303 7.451953
v 0.075701 -3.447577 7.371426
v 0.383058 -3.747354 7.084237
v 0.151799 -3.650939 7.042813
v 2.372160 -1.269415 2.771850
v 2.076451 -1.357412 3.381483
v 1.895919 -1.667994 2.284509
v 1.789113 -1.685904 2.886317
v 3.498115 -1.816185 4.397104
v 3.546008 -1.926905 5.294600
v 3.094364 -2.357306 4.131845
v 3.135047 -2.405481 4.780420
v 4.545432 -1.996602 6.338595
v 4.446615 -2.056525 6.771078
v 4.384558 -2.333319 6.297297
v 4.326542 -2.392502 6.595349
v 3.525958 -1.985010 0.568845
v 3.482890 -1.863497 1.095066
v 3.266318 -2.347856 0.498332
v 3.228297 -2.270782 0.988332
v 5.054921 -2.488893 0.540909
v 5.231463 -2.387584 0.936300
v 5.116239 -2.905569 0.603234
v 5.292258 -2.847231 1.063470
v 6.308382 -2.984710 0.720217
v 6.422500 -2.918408 0.950836
v 6.372933 -3.290811 0.766943
v 6.496548 -3.226308 1.076410
v 3.381379 -2.275892 -1.802589
v 3.574117 -2.422462 -1.200205
v 3.201936 -2.843938 -1.501593
v 3.131295 -2.914854 -1.012019
v 5.074371 -2.887701 -2.405472
v 5.317343 -3.033654 -1.985909
v 5.206964 -3.504489 -2.225148
v 5.209662 -3.479330 -1.837777
v 6.299069 -3.610213 -2.849448
v 6.397999 -3.629695 -2.563314
v 6.319373 -3.975110 -2.725519
v 6.323207 -3.874360 -2.487185
v -0.187374 -1.346756 0.117708
vn -0.0285 0.3808 -0.9242
vn 0.0049 0.4221 -0.9066
vn 0.6478 0.4085 -0.6430
vn 0.6043 0.5567 -0.5700
vn 0.9131 0.4057 -0.0413
vn 0.8302 0.5509 -0.0855
vn 0.6715 0.4670 0.5753
vn 0.7480 0.5340 0.3941
vn 0.0364 0.4819 0.8755
vn 0.0696 0.5504 0.8320
vn -0.5563 0.5073 0.6581
vn -0.4040 0.5376 0.7401
vn -0.8443 0.5359 -0.0046
vn -0.8837 0.4680 -0.0039
vn -0.5823 0.4721 -0.6619
vn -0.5737 0.4715 -0.6698
vn 0.0866 -0.9953 -0.0431
vn -0.0795 -0.9968 -0.0126
vn -0.0225 -0.9994 0.0276
vn -0.0528 -0.9986 -0.0064
vn 0.7699 -0.3968 0.4997
vn 0.5516 0.8273 -0.1066
vn 0.5800 0.5176 0.6290
vn 0.0764 0.5173 -0.8524
vn -0.0513 -0.9885 0.1422
vn -0.1613 -0.9820 0.0981
vn -0.1187 -0.7690 -0.6281
vn -0.2327 -0.7016 0.6735
vn 0.7634 0.5666 -0.3101
vn 0.3666 -0.8132 -0.4520
vn 0.0135 -0.9989 0.0447
vn 0.2215 -0.9673 0.1236
vn 0.7848 -0.5537 -0.2782
vn -0.4152 -0.8567 -0.3062
vn 0.2035 0.6445 0.7370
vn 0.5332 -0.6628 0.5258
vn 0.3145 -0.8360 -0.4498
vn 0.0135 0.3733 -0.9276
vn 0.5708 0.5004 -0.6510
vn -0.7835 0.6205 0.0332
vn -0.3615 -0.9292 0.0771
vn -0.7200 0.2324 -0.6539
vn -0.7735 0.1199 -0.6223
vn -0.3395 -0.9271 0.1588
vn 0.3731 0.8441 -0.3852
vn 0.7405 -0.1408 0.6571
vn 0.4302 -0.2264 0.8739
vn 0.5459 0.8280 -0.1281
vn 0.8576 -0.4933 0.1457
vn 0.8982 0.4010 -0.1798
vn -0.4596 0.0644 -0.8858
vn -0.2913 -0.9566 0.0067
vn 0.1424 -0.9597 -0.2422
vn -0.0388 0.0937 -0.9948
vn -0.4965 -0.7397 0.4544
vn -0.8827 0.4443 0.1528
vn -0.5861 -0.7520 0.3016
vn 0.6458 -0.7634 -0.0106
vn 0.5310 0.7773 -0.3375
vn 0.6244 -0.7655 -0.1554
vn 0.6043 -0.6836 -0.4093
vn 0.1106 0.2758 -0.9548
vn -0.5067 -0.8510 -0.1379
vn -0.8768 0.1135 -0.4672
vn 0.2072 -0.9006 -0.3820
vn -0.0225 0.3541 -0.9349
vn -0.0841 -0.9956 0.0420
vn -0.3625 0.6850 0.6319
vn -0.0121 -0.8304 0.5570
vn -0.0180 -0.6278 0.7782
vn -0.7693 -0.3621 0.5263
vn -0.5743 -0.7375 -0.3554
vn -0.1751 0.7677 0.6165
vn -0.5865 0.6555 0.4758
vn -0.4454 0.3401 -0.8282
vn -0.6499 0.5631 -0.5105
vn -0.1629 -0.8706 -0.4642
vn -0.1944 -0.8239 -0.5323
vn -0.6819 0.4566 -0.5715
vn 0.5668 -0.6590 0.4945
vn 0.2216 0.7451 0.6290
vn -0.3239 0.4601 0.8267
vn -0.3087 -0.5834 0.7513
vn -0.5412 -0.8224 -0.1754
vn -0.8743 0.3978 -0.2782
vn -0.8813 0.3080 0.3584
vn -0.5901 -0.7923 -0.1552
vn -0.8609 0.3789 0.3395
vn 0.6414 0.6401 0.4229
vn 0.6653 -0.6930 -0.2777
vn 0.6264 0.7544 0.1960
vn 0.4207 0.0716 0.9044
vn 0.5816 -0.8079 0.0955
vn -0.5568 -0.8125 0.1727
vn -0.6929 0.0881 0.7157
vn -0.4276 0.6675 0.6095
vn -0.6180 -0.7070 0.3438
vn -0.5218 -0.7860 0.3317
vn -0.5637 0.6902 0.4537
vn 0.2994 -0.8521 -0.4293
vn 0.8059 0.4973 -0.3212
vn 0.8618 0.5040 -0.0570
vn 0.6765 -0.7140 -0.1802
vn -0.0247 -0.7154 0.6983
vn 0.2531 0.3365 0.9070
vn -0.1687 -0.7721 -0.6127
vn -0.1493 -0.5009 0.8525
vn 0.3039 0.6069 0.7344
vn 0.3463 0.5857 -0.7328
vn 0.2246 0.5249 -0.8210
vn 0.5224 0.3306 -0.7860
vn 0.3947 -0.7700 -0.5013
vn 0.3233 0.8183 0.4752
vn 0.6672 -0.4950 0.5566
vn 0.7446 0.6165 0.2559
vn -0.4642 -0.7288 -0.5034
vn -0.0054 0.6182 -0.7860
vn -0.4540 -0.7741 -0.4411
vn -0.0780 -0.7703 0.6329
vn 0.4376 0.2643 -0.8595
vn 0.2593 -0.8037 -0.5356
vn 0.5551 0.6261 0.5476
vn 0.1535 -0.6539 0.7409
vn 0.6041 -0.6375 0.4782
vn 0.8917 0.3699 0.2610
vn -0.0000 1.0000 -0.0000
vt 0.242188 0.890625
vt 0.195312 0.992188
vt 0.152344 0.984375
vt 0.160156 0.882812
vt 0.410156 0.121094
vt 0.433594 0.019531
vt 0.476562 0.019531
vt 0.492188 0.132812
vt 0.949219 0.636719
vt 0.949219 0.527344
vt 0.992188 0.519531
vt 1.023438 0.625000
vt 0.453125 0.488281
vt 0.453125 0.378906
vt 0.492188 0.371094
vt 0.519531 0.464844
vt 0.082031 0.621094
vt 0.082031 0.519531
vt 0.121094 0.507812
vt 0.171875 0.601562
vt 0.339844 0.878906
vt 0.339844 0.984375
vt 0.300781 0.996094
vt 0.253906 0.890625
vt 0.437500 0.871094
vt 0.437500 0.980469
vt 0.394531 0.996094
vt 0.351562 0.890625
vt 0.078125 0.886719
vt 0.050781 0.996094
vt 0.007812 0.992188
vt 0.003906 0.882812
vt 0.914062 0.218750
vt 0.949219 0.160156
vt 1.007812 0.210938
vt 0.968750 0.269531
vt 0.984375 0.121094
vt 0.878906 0.054688
vt 0.910156 0.042969
vt 0.457031 0.281250
vt 0.421875 0.277344
vt 0.753906 0.796875
vt 0.808594 0.742188
vt 0.871094 0.867188
vt 0.855469 0.878906
vt 0.679688 0.675781
vt 0.699219 0.714844
vt 0.640625 0.792969
vt 0.628906 0.750000
vt 0.714844 0.589844
vt 0.632812 0.621094
vt 0.605469 0.488281
vt 0.613281 0.464844
vt 0.335938 0.195312
vt 0.355469 0.246094
vt 0.253906 0.332031
vt 0.242188 0.292969
vt 0.367188 0.046875
vt 0.339844 0.089844
vt 0.261719 -0.003906
vt 0.265625 -0.039062
vt 0.035156 0.765625
vt 0.062500 0.757812
vt 0.867188 0.082031
vt 0.847656 0.101562
vt 0.792969 0.031250
vt 0.808594 0.003906
vt 0.167969 0.761719
vt 0.210938 0.773438
vt 0.867188 0.214844
vt 0.859375 -0.023438
vt 0.828125 -0.023438
vt 0.773438 -0.074219
vt 0.785156 -0.085938
vt 0.179688 0.675781
vt 0.214844 0.683594
vt 0.746094 -0.121094
vt 0.757812 -0.125000
vt 0.175781 0.578125
vt 0.199219 0.589844
vt 0.750000 -0.046875
vt 0.765625 -0.062500
vt 0.164062 0.519531
vt 0.171875 0.519531
vt 0.164062 0.531250
vt 0.152344 0.527344
vt 0.730469 -0.105469
vt 0.742188 -0.113281
vt 0.886719 0.351562
vt 0.894531 0.394531
vt 0.820312 0.476562
vt 0.820312 0.441406
vt 0.867188 0.332031
vt 0.828125 0.335938
vt 1.000000 0.304688
vt 0.769531 0.441406
vt 0.812500 0.425781
vt 0.757812 0.503906
vt 0.730469 0.515625
vt 0.058594 0.644531
vt 0.078125 0.644531
vt 0.062500 0.542969
vt 0.070312 0.546875
vt 0.066406 0.570312
vt 0.050781 0.570312
vt 0.765625 0.535156
vt 0.765625 0.511719
vt 0.171875 -0.109375
vt 0.179688 -0.144531
vt 0.292969 0.125000
vt 0.230469 0.128906
vt 0.199219 -0.007812
vt 0.242188 0.003906
vt 0.351562 0.765625
vt 0.386719 0.746094
vt 0.148438 -0.109375
vt 0.062500 -0.199219
vt 0.070312 -0.210938
vt 0.109375 -0.101562
vt 0.359375 0.617188
vt 0.394531 0.609375
vt 0.394531 0.484375
vt 0.406250 0.492188
vt 0.410156 0.511719
vt 0.390625 0.511719
vt 0.050781 -0.183594
vt 0.093750 -0.218750
vt 0.175781 0.261719
vt 0.218750 0.273438
vt 0.136719 0.363281
vt 0.105469 0.347656
vt 0.281250 0.753906
vt 0.324219 0.746094
vt 0.140625 0.406250
vt 0.156250 0.429688
vt 0.078125 0.500000
vt 0.078125 0.488281
vt 0.257812 0.644531
vt 0.296875 0.605469
vt 0.070312 0.472656
vt 0.050781 0.480469
vt 0.292969 0.484375
vt 0.308594 0.472656
vt 0.656250 0.457031
vt 0.578125 0.390625
vt 0.589844 0.359375
vt 0.761719 0.558594
vt 0.148438 0.738281
vt 0.109375 0.738281
vt 0.585938 0.625000
vt 0.578125 0.500000
vt 0.562500 0.398438
vt 0.519531 0.390625
vt 0.472656 0.292969
vt 0.500000 0.292969
vt 0.125000 0.863281
vt 0.101562 0.863281
vt 0.105469 0.996094
vt 0.089844 1.000000
vt 0.082031 0.976562
vt 0.101562 0.972656
vt 0.511719 0.292969
vt 0.515625 0.273438
vt 0.562500 0.777344
vt 0.597656 0.757812
vt 0.546875 0.867188
vt 0.511719 0.878906
vt 0.500000 0.605469
vt 0.464844 0.585938
vt 0.574219 0.851562
vt 0.589844 0.882812
vt 0.519531 0.972656
vt 0.507812 0.957031
vt 0.507812 0.742188
vt 0.472656 0.703125
vt 0.503906 0.851562
vt 0.492188 0.839844
vt 0.503906 0.824219
vt 0.519531 0.835938
vt 0.496094 0.960938
vt 0.472656 0.964844
vt 0.929688 0.937500
vt 0.917969 0.960938
vt 0.734375 0.835938
vt 0.839844 0.902344
vt 1.000000 0.753906
vt 0.972656 0.757812
vt 0.867188 0.750000
vt 0.890625 0.859375
vt 0.941406 0.921875
vt 0.972656 0.976562
vt 0.968750 0.992188
vt 0.988281 0.855469
vt 0.960938 0.847656
vt 0.898438 0.964844
vt 0.976562 0.945312
vt 0.957031 0.937500
vt 0.964844 0.925781
vt 0.980469 0.929688
vt 0.960938 1.003906
vt 0.945312 1.007812
vt 0.851562 0.582031
vt 0.820312 0.558594
vt 0.875000 0.464844
vt 0.914062 0.468750
vt 0.753906 0.703125
vt 0.867188 0.601562
vt 0.906250 0.601562
vt 0.707031 0.667969
vt 0.929688 0.402344
vt 0.953125 0.406250
vt 0.441406 0.390625
vt 0.414062 0.378906
vt 0.925781 0.492188
vt 0.953125 0.500000
vt 0.433594 0.476562
vt 0.417969 0.484375
vt 0.410156 0.464844
vt 0.425781 0.464844
vt 0.960938 0.417969
vt 0.972656 0.421875
vt 0.378906 0.152344
vt 0.734375 0.636719
vt 0.714844 0.753906
vt 0.523438 0.441406
vt 0.558594 0.476562
vt 0.441406 0.476562
vt 0.476562 0.441406
vt 0.558594 0.523438
vt 0.441406 0.523438
vt 0.476562 0.558594
vt 0.527344 0.558594
s 1
usemtl Main
f 17/1/1 2/2/2 4/3/3 18/4/4
f 18/5/4 4/6/3 6/7/5 19/8/6
f 19/9/6 6/10/5 8/11/7 20/12/8
f 20/13/8 8/14/7 10/15/9 21/16/10
f 21/17/10 10/18/9 12/19/11 22/20/12
f 22/21/12 12/22/11 14/23/13 23/24/14
f 23/25/14 14/26/13 16/27/15 24/28/16
f 24/29/16 16/30/15 2/31/2 17/32/1
f 1/33/17 3/34/18 125/35/19 15/36/20
f 18/37/4 3/34/18 28/38/21 26/39/22
f 18/5/4 19/8/6 114/40/23 113/41/24
f 7/42/25 5/43/26 103/44/27 104/45/28
f 7/46/25 20/47/8 89/48/29 91/49/30
f 11/50/31 9/51/32 79/52/33 80/53/34
f 11/54/31 22/55/12 65/56/35 67/57/36
f 24/58/16 15/59/20 56/60/37 54/61/38
f 24/29/16 17/32/1 42/62/39 41/63/40
f 27/64/41 25/65/42 29/66/43 31/67/44
f 3/34/18 1/33/17 27/64/41 28/38/21
f 17/1/1 18/4/4 26/68/22 25/69/42
f 1/33/17 17/70/1 25/65/42 27/64/41
f 30/71/45 32/72/46 36/73/47 34/74/48
f 28/38/21 27/64/41 31/67/44 32/72/46
f 26/39/22 28/38/21 32/72/46 30/71/45
f 25/69/42 26/68/22 30/75/45 29/76/43
f 34/74/48 36/73/47 40/77/49 38/78/50
f 29/76/43 30/75/45 34/79/48 33/80/51
f 31/67/44 29/66/43 33/81/51 35/82/52
f 32/72/46 31/67/44 35/82/52 36/73/47
f 40/83/49 39/84/53 37/85/54 38/86/50
f 33/80/51 34/79/48 38/86/50 37/85/54
f 35/82/52 33/81/51 37/87/54 39/88/53
f 36/73/47 35/82/52 39/88/53 40/77/49
f 43/89/55 41/90/40 45/91/56 47/92/57
f 17/70/1 1/33/17 44/93/58 42/94/39
f 1/33/17 15/36/20 43/89/55 44/93/58
f 15/36/20 24/95/16 41/90/40 43/89/55
f 46/96/59 48/97/60 52/98/61 50/99/62
f 44/93/58 43/89/55 47/92/57 48/97/60
f 42/94/39 44/93/58 48/97/60 46/96/59
f 41/63/40 42/62/39 46/100/59 45/101/56
f 52/102/61 51/103/63 49/104/64 50/105/62
f 45/101/56 46/100/59 50/105/62 49/104/64
f 47/92/57 45/91/56 49/106/64 51/107/63
f 48/97/60 47/92/57 51/107/63 52/98/61
f 54/61/38 56/60/37 60/108/65 58/109/66
f 13/110/67 23/111/14 53/112/68 55/113/69
f 23/25/14 24/28/16 54/114/38 53/115/68
f 15/59/20 13/110/67 55/113/69 56/60/37
f 60/108/65 59/116/70 63/117/71 64/118/72
f 56/60/37 55/113/69 59/116/70 60/108/65
f 55/113/69 53/112/68 57/119/73 59/116/70
f 53/115/68 54/114/38 58/120/66 57/121/73
f 64/122/72 63/123/71 61/124/74 62/125/75
f 59/116/70 57/119/73 61/126/74 63/117/71
f 57/121/73 58/120/66 62/125/75 61/124/74
f 58/109/66 60/108/65 64/118/72 62/127/75
f 66/128/76 68/129/77 72/130/78 70/131/79
f 13/110/67 11/54/31 67/57/36 68/129/77
f 22/21/12 23/24/14 66/132/76 65/133/35
f 23/111/14 13/110/67 68/129/77 66/128/76
f 71/134/80 69/135/81 73/136/82 75/137/83
f 68/129/77 67/57/36 71/134/80 72/130/78
f 67/57/36 65/56/35 69/135/81 71/134/80
f 65/133/35 66/132/76 70/138/79 69/139/81
f 76/140/84 75/137/83 73/136/82 74/141/85
f 69/139/81 70/138/79 74/142/85 73/143/82
f 70/131/79 72/130/78 76/140/84 74/141/85
f 72/130/78 71/134/80 75/137/83 76/140/84
f 78/144/86 80/53/34 84/145/87 82/146/88
f 22/147/12 11/50/31 80/53/34 78/144/86
f 21/17/10 22/20/12 78/148/86 77/149/89
f 9/51/32 21/150/10 77/151/89 79/52/33
f 83/152/90 81/153/91 85/154/92 87/155/93
f 80/53/34 79/52/33 83/152/90 84/145/87
f 79/52/33 77/151/89 81/153/91 83/152/90
f 77/149/89 78/148/86 82/156/88 81/157/91
f 88/158/94 87/159/93 85/160/92 86/161/95
f 81/157/91 82/156/88 86/161/95 85/160/92
f 82/146/88 84/145/87 88/162/94 86/163/95
f 84/145/87 83/152/90 87/155/93 88/162/94
f 90/164/96 92/165/97 96/166/98 94/167/99
f 9/51/32 7/46/25 91/49/30 92/165/97
f 21/150/10 9/51/32 92/165/97 90/164/96
f 20/13/8 21/16/10 90/168/96 89/169/29
f 95/170/100 93/171/101 97/172/102 99/173/103
f 92/165/97 91/49/30 95/170/100 96/166/98
f 91/49/30 89/48/29 93/171/101 95/170/100
f 89/169/29 90/168/96 94/174/99 93/175/101
f 100/176/104 99/177/103 97/178/102 98/179/105
f 93/175/101 94/174/99 98/179/105 97/178/102
f 94/167/99 96/166/98 100/180/104 98/181/105
f 96/166/98 95/170/100 99/173/103 100/180/104
f 104/45/28 103/44/27 107/182/106 108/183/107
f 20/184/8 7/42/25 104/45/28 102/185/108
f 19/9/6 20/12/8 102/186/108 101/187/109
f 5/43/26 19/188/6 101/189/109 103/44/27
f 107/182/106 105/190/110 109/191/111 111/192/112
f 103/44/27 101/189/109 105/190/110 107/182/106
f 101/187/109 102/186/108 106/193/113 105/194/110
f 102/185/108 104/45/28 108/183/107 106/195/113
f 112/196/114 111/197/112 109/198/111 110/199/115
f 105/194/110 106/193/113 110/199/115 109/198/111
f 106/195/113 108/183/107 112/200/114 110/201/115
f 108/183/107 107/182/106 111/192/112 112/200/114
f 115/202/116 113/203/24 117/204/117 119/205/118
f 5/43/26 3/206/18 115/202/116 116/207/119
f 19/188/6 5/43/26 116/207/119 114/208/23
f 3/206/18 18/209/4 113/203/24 115/202/116
f 119/205/118 117/204/117 121/210/120 123/211/121
f 113/41/24 114/40/23 118/212/122 117/213/117
f 114/208/23 116/207/119 120/214/123 118/215/122
f 116/207/119 115/202/116 119/205/118 120/214/123
f 124/216/124 123/217/121 121/218/120 122/219/125
f 117/213/117 118/212/122 122/219/125 121/218/120
f 118/215/122 120/214/123 124/220/124 122/221/125
f 120/214/123 119/205/118 123/211/121 124/220/124
f 15/59/20 125/222/19 11/54/31 13/110/67
f 11/50/31 125/223/19 7/46/25 9/51/32
f 7/42/25 125/224/19 3/206/18 5/43/26
usemtl Center
f 12/225/126 10/226/126 16/227/126 14/228/126
f 10/226/126 8/229/126 2/230/126 16/227/126
f 4/231/126 2/230/126 8/229/126 6/232/126
