# Blender 4.4.3
# www.blender.org
mtllib CasementWindow.mtl
o Window
v -0.300000 0.200000 -0.000000
v -0.300000 1.800000 -0.000000
v -0.300000 0.200000 -0.100000
v -0.300000 1.800000 -0.100000
v 0.800000 0.200000 -0.000000
v 0.800000 1.800000 -0.000000
v 0.800000 0.200000 -0.100000
v 0.800000 1.800000 -0.100000
v -0.400000 0.100000 -0.000000
v -0.400000 1.900000 -0.000000
v -0.400000 1.900000 -0.100000
v -0.400000 0.100000 -0.100000
v 0.900000 0.100000 -0.100000
v 0.900000 1.900000 -0.100000
v 0.900000 1.900000 -0.000000
v 0.900000 0.100000 -0.000000
v -0.400000 1.100000 -0.000000
v -0.400000 1.200000 -0.000000
v -0.400000 1.200000 -0.100000
v -0.400000 1.100000 -0.100000
v 0.900000 1.200000 -0.100000
v 0.900000 1.100000 -0.100000
v 0.900000 1.200000 -0.000000
v 0.900000 1.100000 -0.000000
v -0.300000 1.100000 -0.000000
v -0.300000 1.200000 -0.000000
v -0.300000 1.200000 -0.100000
v -0.300000 1.100000 -0.100000
v 0.800000 1.200000 -0.100000
v 0.800000 1.100000 -0.100000
v 0.800000 1.200000 -0.000000
v 0.800000 1.100000 -0.000000
v 0.300000 0.100000 -0.100000
v 0.200000 0.100000 -0.100000
v 0.200000 1.900000 -0.100000
v 0.300000 1.900000 -0.100000
v 0.200000 0.100000 -0.000000
v 0.300000 0.100000 -0.000000
v 0.300000 1.900000 -0.000000
v 0.200000 1.900000 -0.000000
v 0.300000 0.200000 -0.100000
v 0.200000 0.200000 -0.100000
v 0.200000 1.800000 -0.100000
v 0.300000 1.800000 -0.100000
v 0.200000 0.200000 -0.000000
v 0.300000 0.200000 -0.000000
v 0.300000 1.800000 -0.000000
v 0.200000 1.800000 -0.000000
v 0.300000 1.100000 -0.000000
v 0.200000 1.100000 -0.000000
v 0.300000 1.200000 -0.000000
v 0.200000 1.200000 -0.000000
v 0.200000 1.100000 -0.100000
v 0.300000 1.100000 -0.100000
v 0.200000 1.200000 -0.100000
v 0.300000 1.200000 -0.100000
vn -1.0000 -0.0000 -0.0000
vn 1.0000 -0.0000 -0.0000
vn -0.0000 -1.0000 -0.0000
vn -0.0000 1.0000 -0.0000
vn -0.0000 -0.0000 1.0000
vn -0.0000 -0.0000 -1.0000
vt 0.275043 0.525004
vt 0.450070 0.525004
vt 0.450070 0.500000
vt 0.275043 0.500000
vt 0.000000 0.150004
vt 0.000000 0.125000
vt 0.225035 0.125000
vt 0.225035 0.150004
vt 0.275043 0.375000
vt 0.450070 0.375000
vt 0.450070 0.400004
vt 0.275043 0.400004
vt 0.875020 0.150004
vt 0.750000 0.150004
vt 0.750000 0.125000
vt 0.875020 0.125000
vt 0.675027 0.250000
vt 0.825051 0.250000
vt 0.825051 0.275004
vt 0.675027 0.275004
vt 0.650023 0.375000
vt 0.500000 0.375000
vt 0.500000 0.400004
vt 0.650023 0.400004
vt 0.400004 0.824973
vt 0.400004 0.974996
vt 0.375000 1.000000
vt 0.375000 0.824973
vt 0.175027 0.574934
vt 0.300047 0.574934
vt 0.325051 0.549930
vt 0.175027 0.549930
vt 0.150023 0.974996
vt 0.025004 0.974996
vt 0.000000 1.000000
vt 0.150023 1.000000
vt 0.300047 0.824973
vt 0.300047 0.974996
vt 0.325051 1.000000
vt 0.325051 0.824973
vt 0.525023 0.574934
vt 0.400004 0.574934
vt 0.375000 0.549930
vt 0.525023 0.549930
vt 0.550027 0.974996
vt 0.675047 0.974996
vt 0.700051 1.000000
vt 0.550027 1.000000
vt 0.675047 0.824973
vt 0.700051 0.824973
vt 0.675047 0.799969
vt 0.700051 0.799969
vt 0.675047 0.574934
vt 0.700051 0.549930
vt 0.300047 0.799969
vt 0.325051 0.799969
vt 0.025004 0.824973
vt 0.000000 0.824973
vt 0.025004 0.799969
vt 0.000000 0.799969
vt 0.025004 0.574934
vt 0.000000 0.549930
vt 0.400004 0.799969
vt 0.375000 0.799969
vt 0.250000 0.250000
vt 0.250000 0.275004
vt 0.475035 0.275004
vt 0.475035 0.250000
vt 0.525023 0.799969
vt 0.525023 0.824973
vt 0.000000 0.375000
vt 0.250039 0.375000
vt 0.250039 0.400004
vt 0.000000 0.400004
vt 0.175027 0.799969
vt 0.175027 0.824973
vt 0.000000 0.525004
vt 0.250039 0.525004
vt 0.250039 0.500000
vt 0.000000 0.500000
vt 0.150023 0.824973
vt 0.150023 0.799969
vt 0.150023 0.574934
vt 0.550027 0.824973
vt 0.550027 0.799969
vt 0.550027 0.574934
vt 0.525023 0.974996
vt 0.525023 1.000000
vt 0.550027 0.549930
vt 0.175027 0.974996
vt 0.175027 1.000000
vt 0.150023 0.549930
vt 0.825051 0.375000
vt 0.675027 0.375000
vt 0.675027 0.400004
vt 0.825051 0.400004
vt 0.500000 0.250000
vt 0.650023 0.250000
vt 0.650023 0.275004
vt 0.500000 0.275004
vt 0.875000 0.525004
vt 1.000020 0.525004
vt 1.000020 0.500000
vt 0.875000 0.500000
vt 0.750020 0.125000
vt 0.625000 0.125000
vt 0.625000 0.150004
vt 0.750020 0.150004
vt 0.000000 0.250000
vt 0.000000 0.275004
vt 0.225035 0.275004
vt 0.225035 0.250000
vt 0.750000 0.500000
vt 0.875020 0.500000
vt 0.875020 0.525004
vt 0.750000 0.525004
vt 0.250000 0.125000
vt 0.475035 0.125000
vt 0.475035 0.150004
vt 0.250000 0.150004
vt 0.875000 0.125000
vt 0.875000 0.150004
vt 1.000020 0.150004
vt 1.000020 0.125000
vt 0.250000 0.000000
vt 0.250000 0.025004
vt 0.400023 0.025004
vt 0.400023 0.000000
vt 0.625000 0.500000
vt 0.750020 0.500000
vt 0.750020 0.525004
vt 0.625000 0.525004
vt 0.000000 0.025004
vt 0.000000 0.000000
vt 0.150023 0.000000
vt 0.150023 0.025004
vt 0.625020 0.150004
vt 0.625020 0.125000
vt 0.500000 0.125000
vt 0.500000 0.150004
vt 0.500000 0.025004
vt 0.650023 0.025004
vt 0.650023 0.000000
vt 0.500000 0.000000
vt 0.625020 0.525004
vt 0.500000 0.525004
vt 0.500000 0.500000
vt 0.625020 0.500000
vt 0.750000 0.025004
vt 0.750000 0.000000
vt 0.900023 0.000000
vt 0.900023 0.025004
s 1
f 18/1/1 10/2/1 11/3/1 19/4/1
f 1/5/2 3/6/2 28/7/2 25/8/2
f 21/9/2 14/10/2 15/11/2 23/12/2
f 50/13/3 25/14/3 28/15/3 53/16/3
f 33/17/3 13/18/3 16/19/3 38/20/3
f 35/21/4 11/22/4 10/23/4 40/24/4
f 26/25/5 2/26/5 10/27/5 18/28/5
f 41/29/6 7/30/6 13/31/6 33/32/6
f 43/33/6 4/34/6 11/35/6 35/36/6
f 29/37/6 8/38/6 14/39/6 21/40/6
f 45/41/5 1/42/5 9/43/5 37/44/5
f 47/45/5 6/46/5 15/47/5 39/48/5
f 6/46/5 31/49/5 23/50/5 15/47/5
f 31/49/5 32/51/5 24/52/5 23/50/5
f 32/51/5 5/53/5 16/54/5 24/52/5
f 7/30/6 30/55/6 22/56/6 13/31/6
f 30/55/6 29/37/6 21/40/6 22/56/6
f 4/34/6 27/57/6 19/58/6 11/35/6
f 27/57/6 28/59/6 20/60/6 19/58/6
f 28/59/6 3/61/6 12/62/6 20/60/6
f 1/42/5 25/63/5 17/64/5 9/43/5
f 25/63/5 26/25/5 18/28/5 17/64/5
f 42/65/1 45/66/1 50/67/1 53/68/1
f 50/69/5 52/70/5 26/25/5 25/63/5
f 13/71/2 22/72/2 24/73/2 16/74/2
f 22/72/2 21/9/2 23/12/2 24/73/2
f 54/75/6 56/76/6 29/37/6 30/55/6
f 9/77/1 17/78/1 20/79/1 12/80/1
f 17/78/1 18/1/1 19/4/1 20/79/1
f 28/59/6 27/57/6 55/81/6 53/82/6
f 53/82/6 55/81/6 56/76/6 54/75/6
f 42/83/6 53/82/6 54/75/6 41/29/6
f 32/51/5 31/49/5 51/84/5 49/85/5
f 49/85/5 51/84/5 52/70/5 50/69/5
f 46/86/5 49/85/5 50/69/5 45/41/5
f 2/26/5 48/87/5 40/88/5 10/27/5
f 48/87/5 47/45/5 39/48/5 40/88/5
f 5/53/5 46/86/5 38/89/5 16/54/5
f 46/86/5 45/41/5 37/44/5 38/89/5
f 8/38/6 44/90/6 36/91/6 14/39/6
f 44/90/6 43/33/6 35/36/6 36/91/6
f 3/61/6 42/83/6 34/92/6 12/62/6
f 42/83/6 41/29/6 33/32/6 34/92/6
f 14/93/4 36/94/4 39/95/4 15/96/4
f 36/94/4 35/21/4 40/24/4 39/95/4
f 12/97/3 34/98/3 37/99/3 9/100/3
f 34/98/3 33/17/3 38/20/3 37/99/3
f 46/101/4 5/102/4 7/103/4 41/104/4
f 51/84/5 47/45/5 48/87/5 52/70/5
f 42/105/4 3/106/4 1/107/4 45/108/4
f 55/81/6 43/33/6 44/90/6 56/76/6
f 7/109/1 5/110/1 32/111/1 30/112/1
f 54/113/3 30/114/3 32/115/3 49/116/3
f 41/117/2 54/118/2 49/119/2 46/120/2
f 56/121/4 51/122/4 31/123/4 29/124/4
f 29/125/1 31/126/1 6/127/1 8/128/1
f 44/129/3 8/130/3 6/131/3 47/132/3
f 51/133/2 56/134/2 44/135/2 47/136/2
f 52/137/4 55/138/4 27/139/4 26/140/4
f 52/141/1 48/142/1 43/143/1 55/144/1
f 48/145/3 2/146/3 4/147/3 43/148/3
f 26/149/2 27/150/2 4/151/2 2/152/2
