# Blender 4.4.3
# www.blender.org
mtllib CasementWindowFrame.mtl
o Frame
v -0.400000 1.900000 0.100000
v -0.400000 1.900000 -0.100000
v 0.900000 1.900000 0.100000
v 0.900000 1.900000 -0.100000
v 0.900000 0.100000 -0.100000
v 1.000000 2.000000 0.100000
v 0.900000 0.100000 0.100000
v -0.400000 0.100000 -0.100000
v -0.500000 2.000000 0.100000
v -0.400000 0.100000 0.100000
v 1.000000 -0.000000 -0.100000
v -0.500000 -0.000000 -0.100000
v 1.000000 2.000000 -0.100000
v -0.500000 0.000000 0.100000
v 1.000000 0.000000 0.100000
v -0.500000 2.000000 -0.100000
vn -0.0000 -0.0000 1.0000
vn -0.0000 -1.0000 -0.0000
vn -0.0000 1.0000 -0.0000
vn -1.0000 -0.0000 -0.0000
vn 1.0000 -0.0000 -0.0000
vn -0.0000 -0.0000 -1.0000
vt 0.025000 0.975000
vt 0.350000 0.975000
vt 0.375000 1.000000
vt 0.000000 1.000000
vt 0.625000 0.450000
vt 0.950000 0.450000
vt 0.950000 0.500000
vt 0.625000 0.500000
vt 0.875000 0.200000
vt 0.500000 0.200000
vt 0.500000 0.250000
vt 0.875000 0.250000
vt 0.000000 0.500000
vt 0.500000 0.500000
vt 0.500000 0.450000
vt 0.000000 0.450000
vt 0.500000 0.075000
vt 0.875000 0.075000
vt 0.875000 0.125000
vt 0.500000 0.125000
vt 0.000000 0.325000
vt 0.500000 0.325000
vt 0.500000 0.375000
vt 0.000000 0.375000
vt 0.950000 0.325000
vt 0.625000 0.325000
vt 0.625000 0.375000
vt 0.950000 0.375000
vt 0.400000 0.525000
vt 0.725000 0.525000
vt 0.750000 0.500000
vt 0.375000 0.500000
vt 0.725000 0.975000
vt 0.750000 1.000000
vt 0.000000 0.250000
vt 0.450000 0.250000
vt 0.450000 0.200000
vt 0.000000 0.200000
vt 0.400000 0.975000
vt 0.350000 0.525000
vt 0.025000 0.525000
vt 0.450000 0.125000
vt 0.000000 0.125000
vt 0.000000 0.075000
vt 0.450000 0.075000
s 1
usemtl Material.001
f 1/1/1 3/2/1 6/3/1 9/4/1
f 2/5/2 4/6/2 3/7/2 1/8/2
f 13/9/3 16/10/3 9/11/3 6/12/3
f 14/13/4 9/14/4 16/15/4 12/16/4
f 12/17/2 11/18/2 15/19/2 14/20/2
f 11/21/5 13/22/5 6/23/5 15/24/5
f 5/25/3 8/26/3 10/27/3 7/28/3
f 8/29/6 5/30/6 11/31/6 12/32/6
f 5/30/6 4/33/6 13/34/6 11/31/6
f 7/35/4 3/36/4 4/37/4 5/38/4
f 2/39/6 8/29/6 12/32/6 16/3/6
f 7/40/1 10/41/1 14/13/1 15/32/1
f 4/33/6 2/39/6 16/3/6 13/34/6
f 9/4/1 14/13/1 10/41/1 1/1/1
f 1/42/5 10/43/5 8/44/5 2/45/5
f 3/2/1 7/40/1 15/32/1 6/3/1
