# Blender 4.1.1
# www.blender.org
mtllib CasementWindowFrame.mtl
o Frame
v -0.400000 1.900000 0.100000
v -0.400000 1.900000 -0.100000
v 0.900000 1.900000 0.100000
v 0.900000 1.900000 -0.100000
v 0.900000 0.100000 -0.100000
v 1.000000 2.000000 0.100000
v 0.900000 0.100000 0.100000
v -0.400000 0.100000 -0.100000
v -0.500000 2.000000 0.100000
v -0.400000 0.100000 0.100000
v 1.000000 0.000000 -0.100000
v -0.500000 0.000000 -0.100000
v 1.000000 2.000000 -0.100000
v -0.500000 0.000000 0.100000
v 1.000000 0.000000 0.100000
v -0.500000 2.000000 -0.100000
vn -0.0000 -0.0000 1.0000
vn -0.0000 -1.0000 -0.0000
vn -0.0000 1.0000 -0.0000
vn -1.0000 -0.0000 -0.0000
vn 1.0000 -0.0000 -0.0000
vn -0.0000 -0.0000 -1.0000
vt 0.610898 0.980475
vt 0.610898 0.769525
vt 0.625000 0.750000
vt 0.625000 1.000000
vt 0.610898 0.269525
vt 0.610898 0.480475
vt 0.000000 0.000000
vt 0.375000 0.750000
vt 0.389102 0.769525
vt 0.375000 1.000000
vt 0.125000 0.500000
s 0
usemtl Material
f 1/1/1 3/2/1 6/3/1 9/4/1
f 2/5/2 4/6/2 3/2/2 1/1/2
f 13/7/3 16/7/3 9/7/3 6/7/3
f 14/7/4 9/7/4 16/7/4 12/7/4
f 12/7/2 11/7/2 15/7/2 14/7/2
f 11/7/5 13/7/5 6/7/5 15/7/5
f 5/7/3 8/7/3 10/7/3 7/7/3
f 8/7/6 5/7/6 11/7/6 12/7/6
f 5/7/6 4/7/6 13/7/6 11/7/6
f 7/8/4 3/9/4 4/6/4 5/7/4
f 2/7/6 8/7/6 12/7/6 16/7/6
f 7/7/1 10/7/1 14/7/1 15/7/1
f 4/7/6 2/7/6 16/7/6 13/7/6
f 9/7/1 14/7/1 10/7/1 1/10/1
f 1/10/5 10/7/5 8/7/5 2/11/5
f 3/9/1 7/7/1 15/7/1 6/3/1
