# Blender 4.1.1
# www.blender.org
mtllib CasementWindow.mtl
o Window
v -0.300000 0.200000 0.000000
v -0.300000 1.800000 0.000000
v -0.300000 0.200000 -0.100000
v -0.300000 1.800000 -0.100000
v 0.800000 0.200000 0.000000
v 0.800000 1.800000 0.000000
v 0.800000 0.200000 -0.100000
v 0.800000 1.800000 -0.100000
v -0.400000 0.100000 0.000000
v -0.400000 1.900000 0.000000
v -0.400000 1.900000 -0.100000
v -0.400000 0.100000 -0.100000
v 0.900000 0.100000 -0.100000
v 0.900000 1.900000 -0.100000
v 0.900000 1.900000 0.000000
v 0.900000 0.100000 0.000000
v -0.400000 1.100000 0.000000
v -0.400000 1.200000 0.000000
v -0.400000 1.200000 -0.100000
v -0.400000 1.100000 -0.100000
v 0.900000 1.200000 -0.100000
v 0.900000 1.100000 -0.100000
v 0.900000 1.200000 0.000000
v 0.900000 1.100000 0.000000
v -0.300000 1.100000 0.000000
v -0.300000 1.200000 0.000000
v -0.300000 1.200000 -0.100000
v -0.300000 1.100000 -0.100000
v 0.800000 1.200000 -0.100000
v 0.800000 1.100000 -0.100000
v 0.800000 1.200000 0.000000
v 0.800000 1.100000 0.000000
v 0.300000 0.100000 -0.100000
v 0.200000 0.100000 -0.100000
v 0.200000 1.900000 -0.100000
v 0.300000 1.900000 -0.100000
v 0.200000 0.100000 0.000000
v 0.300000 0.100000 0.000000
v 0.300000 1.900000 0.000000
v 0.200000 1.900000 0.000000
v 0.300000 0.200000 -0.100000
v 0.200000 0.200000 -0.100000
v 0.200000 1.800000 -0.100000
v 0.300000 1.800000 -0.100000
v 0.200000 0.200000 0.000000
v 0.300000 0.200000 0.000000
v 0.300000 1.800000 0.000000
v 0.200000 1.800000 0.000000
v 0.300000 1.100000 0.000000
v 0.200000 1.100000 0.000000
v 0.300000 1.200000 0.000000
v 0.200000 1.200000 0.000000
v 0.200000 1.100000 -0.100000
v 0.300000 1.100000 -0.100000
v 0.200000 1.200000 -0.100000
v 0.300000 1.200000 -0.100000
vn -1.0000 -0.0000 -0.0000
vn 1.0000 -0.0000 -0.0000
vn -0.0000 -1.0000 -0.0000
vn -0.0000 1.0000 -0.0000
vn -0.0000 -0.0000 1.0000
vn -0.0000 -0.0000 -1.0000
vt 0.575000 0.000000
vt 0.625000 0.000000
vt 0.625000 0.250000
vt 0.575000 0.250000
vt 0.478205 0.977811
vt 0.478205 0.272189
vt 0.521795 0.272189
vt 0.521795 0.977811
vt 0.575000 0.500000
vt 0.625000 0.500000
vt 0.625000 0.750000
vt 0.575000 0.750000
vt 0.521795 0.909270
vt 0.521795 0.340730
vt 0.291667 0.500000
vt 0.375000 0.500000
vt 0.375000 0.750000
vt 0.291667 0.750000
vt 0.791667 0.500000
vt 0.875000 0.500000
vt 0.875000 0.750000
vt 0.791667 0.750000
vt 0.565385 0.977811
vt 0.608975 0.977811
vt 0.625000 1.000000
vt 0.575000 1.000000
vt 0.391025 0.409270
vt 0.391025 0.477811
vt 0.375000 0.416667
vt 0.608974 0.340730
vt 0.608975 0.272189
vt 0.625000 0.333333
vt 0.565385 0.477811
vt 0.608975 0.477811
vt 0.391025 0.909270
vt 0.391025 0.977811
vt 0.375000 1.000000
vt 0.375000 0.916667
vt 0.608974 0.840730
vt 0.608975 0.772189
vt 0.625000 0.833333
vt 0.565385 0.772189
vt 0.521795 0.772189
vt 0.525000 0.750000
vt 0.478205 0.772189
vt 0.475000 0.750000
vt 0.478205 0.477811
vt 0.521795 0.477811
vt 0.525000 0.500000
vt 0.475000 0.500000
vt 0.565385 0.272189
vt 0.525000 0.250000
vt 0.475000 0.250000
vt 0.525000 1.000000
vt 0.475000 1.000000
vt 0.478205 0.340730
vt 0.478205 0.909270
vt 0.565385 0.909270
vt 0.521795 0.409270
vt 0.565385 0.409270
vt 0.475000 0.000000
vt 0.525000 0.000000
vt 0.565385 0.340730
vt 0.478205 0.409270
vt 0.565385 0.840730
vt 0.521795 0.840730
vt 0.478205 0.840730
vt 0.608975 0.909270
vt 0.625000 0.916667
vt 0.391025 0.772189
vt 0.391025 0.840730
vt 0.375000 0.833333
vt 0.608974 0.409270
vt 0.625000 0.416667
vt 0.391025 0.272189
vt 0.391025 0.340730
vt 0.375000 0.333333
vt 0.375000 0.250000
vt 0.708333 0.500000
vt 0.708333 0.750000
vt 0.125000 0.500000
vt 0.208333 0.500000
vt 0.208333 0.750000
vt 0.125000 0.750000
s 0
f 18/1/1 10/2/1 11/3/1 19/4/1
f 1/5/2 3/6/2 28/7/2 25/8/2
f 21/9/2 14/10/2 15/11/2 23/12/2
f 50/13/3 25/8/3 28/7/3 53/14/3
f 33/15/3 13/16/3 16/17/3 38/18/3
f 35/19/4 11/20/4 10/21/4 40/22/4
f 26/23/5 2/24/5 10/25/5 18/26/5
f 41/27/6 7/28/6 13/16/6 33/29/6
f 43/30/6 4/31/6 11/3/6 35/32/6
f 29/33/6 8/34/6 14/10/6 21/9/6
f 45/35/5 1/36/5 9/37/5 37/38/5
f 47/39/5 6/40/5 15/11/5 39/41/5
f 6/40/5 31/42/5 23/12/5 15/11/5
f 31/42/5 32/43/5 24/44/5 23/12/5
f 32/43/5 5/45/5 16/46/5 24/44/5
f 7/47/6 30/48/6 22/49/6 13/50/6
f 30/48/6 29/33/6 21/9/6 22/49/6
f 4/31/6 27/51/6 19/4/6 11/3/6
f 27/51/6 28/7/6 20/52/6 19/4/6
f 28/7/6 3/6/6 12/53/6 20/52/6
f 1/5/5 25/8/5 17/54/5 9/55/5
f 25/8/5 26/23/5 18/26/5 17/54/5
f 42/56/1 45/57/1 50/13/1 53/14/1
f 50/13/5 52/58/5 26/23/5 25/8/5
f 13/50/2 22/49/2 24/44/2 16/46/2
f 22/49/2 21/9/2 23/12/2 24/44/2
f 54/59/6 56/60/6 29/33/6 30/48/6
f 9/61/1 17/62/1 20/52/1 12/53/1
f 17/62/1 18/1/1 19/4/1 20/52/1
f 28/7/6 27/51/6 55/63/6 53/14/6
f 53/14/6 55/63/6 56/60/6 54/59/6
f 42/56/6 53/14/6 54/59/6 41/64/6
f 32/43/5 31/42/5 51/65/5 49/66/5
f 49/66/5 51/65/5 52/58/5 50/13/5
f 46/67/5 49/66/5 50/13/5 45/57/5
f 2/24/5 48/68/5 40/69/5 10/25/5
f 48/68/5 47/39/5 39/41/5 40/69/5
f 5/70/5 46/71/5 38/72/5 16/17/5
f 46/71/5 45/35/5 37/38/5 38/72/5
f 8/34/6 44/73/6 36/74/6 14/10/6
f 44/73/6 43/30/6 35/32/6 36/74/6
f 3/75/6 42/76/6 34/77/6 12/78/6
f 42/76/6 41/27/6 33/29/6 34/77/6
f 14/10/4 36/79/4 39/80/4 15/11/4
f 36/79/4 35/19/4 40/22/4 39/80/4
f 12/81/3 34/82/3 37/83/3 9/84/3
f 34/82/3 33/15/3 38/18/3 37/83/3
f 46/71/4 5/70/4 7/28/4 41/27/4
f 51/65/5 47/39/5 48/68/5 52/58/5
f 42/76/4 3/75/4 1/36/4 45/35/4
f 55/63/6 43/30/6 44/73/6 56/60/6
f 7/47/1 5/45/1 32/43/1 30/48/1
f 54/59/3 30/48/3 32/43/3 49/66/3
f 41/64/2 54/59/2 49/66/2 46/67/2
f 56/60/4 51/65/4 31/42/4 29/33/4
f 29/33/1 31/42/1 6/40/1 8/34/1
f 44/73/3 8/34/3 6/40/3 47/39/3
f 51/65/2 56/60/2 44/73/2 47/39/2
f 52/58/4 55/63/4 27/51/4 26/23/4
f 52/58/1 48/68/1 43/30/1 55/63/1
f 48/68/3 2/24/3 4/31/3 43/30/3
f 26/23/2 27/51/2 4/31/2 2/24/2
