# Blender 4.0.2
# www.blender.org
mtllib Twig3.mtl
o Twig5
v 0.800000 -0.500000 -0.400000
v 0.800000 -0.500000 0.400000
v 0.800000 0.500000 0.400000
v 0.800000 0.500000 -0.400000
v 3.469036 0.617877 0.131252
v 3.488366 0.748322 -0.368383
v 3.237370 1.192895 -0.219295
v 3.209333 1.063279 0.294610
v 5.581069 1.614320 0.160760
v 5.623553 1.713021 -0.380676
v 5.437939 2.246678 -0.147517
v 5.392856 2.165417 0.432559
v 8.330469 1.933221 0.204198
v 8.363171 2.012616 -0.243696
v 8.229222 2.280484 -0.037872
v 8.182184 2.242072 0.381929
v 9.855392 2.381634 0.218145
v 9.847254 2.456643 -0.031833
v 9.741192 2.622479 0.067300
v 9.740537 2.549428 0.281282
v 6.690276 1.765149 0.229476
v 6.463754 2.270213 0.501163
v 6.736608 1.855551 -0.290665
v 6.505912 2.339223 -0.061591
v 5.736033 3.645274 0.180003
v 5.700261 3.606980 0.542324
v 6.118980 3.615319 0.596513
v 6.157442 3.654671 0.177915
v 5.684558 4.747678 0.453747
v 5.669273 4.697167 0.637759
v 5.895531 4.774423 0.694750
v 5.920250 4.837790 0.445447
vn -0.4323 -0.7348 0.5227
vn -0.4613 -0.6378 -0.6167
vn 0.2526 -0.5147 -0.8193
vn 0.3546 -0.7665 0.5355
vn -0.2779 0.7581 -0.5900
vn -0.4233 0.5583 -0.7135
vn 0.1603 -0.3947 -0.9047
vn -0.6059 0.4473 0.6579
vn -0.1580 0.5206 0.8390
vn -0.6355 0.5349 -0.5568
vn 0.3194 0.0673 0.9452
vn 0.0935 -0.8825 0.4609
vn 0.1805 -0.8817 0.4360
vn 0.0114 0.4320 0.9018
vn 0.2191 -0.8440 0.4895
vn -0.4642 0.1239 0.8770
vn -0.0676 0.8885 -0.4539
vn 0.3972 0.5324 0.7476
vn 0.2901 0.9152 -0.2798
vn 0.1130 -0.4348 -0.8934
vn 0.1529 -0.4121 -0.8982
vn 0.2950 0.6667 -0.6844
vn 0.7780 -0.4695 0.4174
vn 0.7753 -0.0470 -0.6298
vn -0.6374 0.2206 -0.7383
vn 0.7000 0.3086 -0.6441
vn 0.6066 0.0833 0.7906
vn 0.4319 0.8079 -0.4010
vn 0.3520 0.5858 0.7300
vn -0.7497 0.0049 0.6617
vn -0.6608 0.5861 -0.4688
vn -0.7384 0.3577 0.5716
vt 0.210938 0.191406
vt 0.261719 0.191406
vt 0.261719 0.382812
vt 0.230469 0.378906
vt 0.593750 0.382812
vt 0.628906 0.375000
vt 0.644531 0.531250
vt 0.605469 0.531250
vt 0.398438 0.785156
vt 0.339844 0.804688
vt 0.351562 0.617188
vt 0.386719 0.625000
vt 0.574219 0.191406
vt 0.632812 0.214844
vt 0.277344 0.191406
vt 0.328125 0.191406
vt 0.320312 0.351562
vt 0.289062 0.355469
vt 0.402344 0.402344
vt 0.359375 0.398438
vt 0.339844 0.292969
vt 0.367188 0.296875
vt 0.371094 0.468750
vt 0.410156 0.468750
vt 0.261719 0.531250
vt 0.226562 0.527344
vt 0.320312 0.507812
vt 0.285156 0.511719
vt 0.738281 0.324219
vt 0.765625 0.320312
vt 0.753906 0.421875
vt 0.742188 0.421875
vt 0.222656 0.597656
vt 0.253906 0.605469
vt 0.246094 0.710938
vt 0.218750 0.707031
vt 0.738281 0.210938
vt 0.773438 0.210938
vt 0.593750 0.605469
vt 0.632812 0.601562
vt 0.597656 0.703125
vt 0.574219 0.707031
vt 0.753906 0.437500
vt 0.738281 0.437500
vt 0.585938 0.804688
vt 0.574219 0.804688
vt 0.339844 0.191406
vt 0.351562 0.195312
vt 0.230469 0.808594
vt 0.214844 0.808594
vt 0.726562 0.578125
vt 0.718750 0.605469
vt 0.695312 0.421875
vt 0.667969 0.425781
vt 0.675781 0.343750
vt 0.695312 0.347656
vt 0.488281 0.402344
vt 0.496094 0.425781
vt 0.699219 0.511719
vt 0.660156 0.511719
vt 0.324219 0.601562
vt 0.300781 0.605469
vt 0.312500 0.675781
vt 0.324219 0.671875
vt 0.328125 0.687500
vt 0.312500 0.691406
vt 0.566406 0.394531
vt 0.566406 0.410156
vt 0.796875 0.597656
vt 0.800781 0.613281
vt 0.472656 0.531250
vt 0.472656 0.468750
vt 0.527344 0.468750
vt 0.527344 0.531250
s 1
usemtl Material.001
f 2/1/1 1/2/2 6/3/3 5/4/4
f 6/5/3 7/6/5 11/7/6 10/8/7
f 3/9/8 2/10/1 5/11/4 8/12/9
f 1/13/2 4/14/10 7/6/5 6/5/3
f 4/15/10 3/16/8 8/17/9 7/18/5
f 22/19/11 21/20/12 13/21/13 16/22/14
f 8/12/9 5/11/4 9/23/15 12/24/16
f 5/4/4 6/3/3 10/25/7 9/26/15
f 7/18/5 8/17/9 12/27/16 11/28/6
f 15/29/17 16/30/14 20/31/18 19/32/19
f 21/33/12 23/34/20 14/35/21 13/36/13
f 24/37/22 22/38/11 16/30/14 15/29/17
f 23/39/20 24/40/22 15/41/17 14/42/21
f 17/43/23 18/44/24 19/32/19 20/31/18
f 14/42/21 15/41/17 19/45/19 18/46/24
f 16/22/14 13/21/13 17/47/23 20/48/18
f 13/36/13 14/35/21 18/49/24 17/50/23
f 10/8/7 11/7/6 24/40/22 23/39/20
f 24/40/22 11/7/6 25/51/25 28/52/26
f 9/26/15 10/25/7 23/34/20 21/33/12
f 12/24/16 9/23/15 21/20/12 22/19/11
f 27/53/27 28/54/26 32/55/28 31/56/29
f 12/24/16 22/19/11 27/57/27 26/58/30
f 22/59/11 24/60/22 28/54/26 27/53/27
f 11/28/6 12/27/16 26/61/30 25/62/25
f 29/63/31 30/64/32 31/65/29 32/66/28
f 26/58/30 27/57/27 31/67/29 30/68/32
f 28/52/26 25/51/25 29/69/31 32/70/28
f 25/62/25 26/61/30 30/64/32 29/63/31
usemtl Material.002
f 2/71/1 3/72/8 4/73/10 1/74/2
