# Blender 4.0.2
# www.blender.org
mtllib Twig1.mtl
o Twig3
v 0.800000 -0.500000 0.400000
v 0.800000 -0.500000 -0.400000
v 0.800000 0.500000 -0.400000
v 0.800000 0.500000 0.400000
v 2.717475 0.481045 0.280479
v 2.530717 0.427736 -0.193427
v 2.410239 0.890438 -0.207172
v 2.591395 0.966145 0.292144
v 4.307220 1.623481 0.297011
v 4.217692 1.546779 -0.277169
v 3.948781 1.920772 -0.283544
v 4.015574 1.990505 0.307698
v 7.077108 3.550840 0.532696
v 6.930671 3.394128 0.199189
v 6.676543 3.607973 0.189239
v 6.766603 3.766097 0.538404
v 7.696251 4.345895 0.549911
v 7.601899 4.247796 0.374934
v 7.416196 4.319291 0.347420
v 7.484053 4.420249 0.531165
v 5.566196 2.547838 0.355388
v 5.258622 2.849874 0.360039
v 5.372815 2.377931 -0.148334
v 5.078509 2.706405 -0.177361
v 4.585280 2.369531 -0.881713
v 4.832808 2.076109 -0.917813
v 4.962916 2.600519 -0.642553
v 5.206756 2.297849 -0.684121
v 4.924805 2.851575 -1.686579
v 5.131950 2.656820 -1.698255
v 5.218510 2.992857 -1.401269
v 5.437446 2.773998 -1.461297
v 5.255823 3.126882 -2.287488
v 5.403401 3.040597 -2.258549
v 5.469599 3.200269 -2.154731
v 5.596738 3.089536 -2.170758
vn -0.4065 -0.6917 -0.5969
vn -0.5954 0.4912 -0.6358
vn -0.2274 0.6267 -0.7453
vn 0.3954 -0.6202 -0.6775
vn -0.2797 0.5937 0.7546
vn 0.4140 -0.6295 0.6575
vn 0.4034 -0.5962 0.6941
vn -0.4149 0.5729 0.7068
vn -0.6202 0.4966 0.6072
vn -0.4244 -0.7137 0.5572
vn -0.4243 0.6159 0.6639
vn 0.3421 -0.6010 0.7223
vn 0.5104 -0.5317 0.6758
vn -0.4841 0.5380 0.6900
vn 0.2864 -0.7592 -0.5845
vn -0.6167 0.5161 -0.5944
vn -0.2364 0.5867 -0.7745
vn -0.0474 0.9191 0.3911
vn -0.1849 0.6624 -0.7260
vn 0.7603 -0.4894 -0.4270
vn 0.5649 -0.5349 -0.6283
vn -0.1739 0.9006 -0.3984
vn 0.8727 0.3134 0.3746
vn 0.7359 0.0240 -0.6767
vn -0.8462 0.2960 -0.4430
vn 0.0771 -0.8275 -0.5562
vn 0.0154 0.9927 0.1198
vn 0.9453 -0.3104 -0.1007
vn 0.9791 -0.1475 0.1403
vn 0.0854 0.9065 0.4136
vn -0.9013 0.2395 -0.3610
vn 0.2836 0.9353 -0.2117
vn -0.5832 0.3550 -0.7306
vn -0.0279 -0.8306 -0.5562
vn 0.2091 -0.3831 -0.8997
vn 0.9473 0.0164 -0.3198
vt 0.535156 0.226562
vt 0.589844 0.261719
vt 0.554688 0.363281
vt 0.527344 0.351562
vt 0.441406 0.621094
vt 0.410156 0.628906
vt 0.421875 0.503906
vt 0.449219 0.507812
vt 0.472656 0.734375
vt 0.417969 0.769531
vt 0.226562 0.226562
vt 0.277344 0.226562
vt 0.265625 0.351562
vt 0.234375 0.367188
vt 0.644531 0.734375
vt 0.589844 0.730469
vt 0.601562 0.613281
vt 0.632812 0.625000
vt 0.457031 0.410156
vt 0.429688 0.402344
vt 0.437500 0.285156
vt 0.460938 0.296875
vt 0.273438 0.484375
vt 0.238281 0.492188
vt 0.601562 0.500000
vt 0.640625 0.507812
vt 0.558594 0.480469
vt 0.531250 0.484375
vt 0.617188 0.300781
vt 0.593750 0.289062
vt 0.589844 0.226562
vt 0.605469 0.234375
vt 0.234375 0.593750
vt 0.265625 0.574219
vt 0.250000 0.695312
vt 0.226562 0.707031
vt 0.636719 0.417969
vt 0.601562 0.402344
vt 0.511719 0.429688
vt 0.484375 0.433594
vt 0.496094 0.312500
vt 0.519531 0.308594
vt 0.496094 0.226562
vt 0.500000 0.238281
vt 0.488281 0.246094
vt 0.484375 0.234375
vt 0.460938 0.226562
vt 0.472656 0.234375
vt 0.238281 0.765625
vt 0.226562 0.773438
vt 0.566406 0.542969
vt 0.539062 0.550781
vt 0.507812 0.726562
vt 0.484375 0.726562
vt 0.492188 0.667969
vt 0.511719 0.667969
vt 0.511719 0.757812
vt 0.484375 0.761719
vt 0.316406 0.535156
vt 0.300781 0.562500
vt 0.664062 0.429688
vt 0.679688 0.457031
vt 0.734375 0.421875
vt 0.714844 0.402344
vt 0.765625 0.382812
vt 0.773438 0.398438
vt 0.371094 0.570312
vt 0.355469 0.589844
vt 0.582031 0.605469
vt 0.566406 0.609375
vt 0.503906 0.605469
vt 0.511719 0.601562
vt 0.507812 0.617188
vt 0.496094 0.617188
vt 0.410156 0.597656
vt 0.402344 0.609375
vt 0.589844 0.652344
vt 0.578125 0.656250
vt 0.472656 0.531250
vt 0.472656 0.468750
vt 0.527344 0.468750
vt 0.527344 0.531250
s 1
usemtl Material.001
f 2/1/1 3/2/2 7/3/3 6/4/4
f 8/5/5 5/6/6 9/7/7 12/8/8
f 4/9/9 1/10/10 5/6/6 8/5/5
f 1/11/10 2/12/1 6/13/4 5/14/6
f 3/15/2 4/16/9 8/17/5 7/18/3
f 22/19/11 21/20/12 13/21/13 16/22/14
f 5/14/6 6/13/4 10/23/15 9/24/7
f 7/18/3 8/17/5 12/25/8 11/26/16
f 6/4/4 7/3/3 11/27/16 10/28/15
f 15/29/17 16/30/14 20/31/18 19/32/19
f 21/33/12 23/34/20 14/35/21 13/36/13
f 24/37/22 22/38/11 16/30/14 15/29/17
f 23/39/20 24/40/22 15/41/17 14/42/21
f 17/43/23 18/44/24 19/45/19 20/46/18
f 14/42/21 15/41/17 19/45/19 18/44/24
f 16/22/14 13/21/13 17/47/23 20/48/18
f 13/36/13 14/35/21 18/49/24 17/50/23
f 10/28/15 11/27/16 25/51/25 26/52/26
f 11/26/16 12/25/8 22/38/11 24/37/22
f 9/24/7 10/23/15 23/34/20 21/33/12
f 12/8/8 9/7/7 21/20/12 22/19/11
f 27/53/27 28/54/28 32/55/29 31/56/30
f 24/57/22 23/58/20 28/54/28 27/53/27
f 23/34/20 10/23/15 26/59/26 28/60/28
f 11/26/16 24/37/22 27/61/27 25/62/25
f 29/63/31 31/64/30 35/65/32 33/66/33
f 25/62/25 27/61/27 31/64/30 29/63/31
f 28/60/28 26/59/26 30/67/34 32/68/29
f 26/52/26 25/51/25 29/69/31 30/70/34
f 34/71/35 33/72/33 35/73/32 36/74/36
f 32/68/29 30/67/34 34/75/35 36/76/36
f 30/70/34 29/69/31 33/77/33 34/78/35
f 31/56/30 32/55/29 36/74/36 35/73/32
usemtl Material.002
f 1/79/10 4/80/9 3/81/2 2/82/1
