# Blender 4.4.3
# www.blender.org
mtllib Arch.mtl
o ArchTop2
v 1.530733 3.695518 0.000000
v 1.530733 3.695518 1.000001
v 1.913417 4.619399 0.000001
v 1.913417 4.619399 1.000001
v 2.828427 2.828427 0.000000
v 2.828427 2.828427 1.000000
v 3.535533 3.535534 0.000000
v 3.535533 3.535534 1.000001
v 3.695518 1.530734 0.000000
v 3.695518 1.530734 1.000000
v 4.000000 0.000000 0.000000
v 4.000000 -3.000000 -0.000000
v 4.000000 -0.000000 1.000000
v 4.000000 -3.000001 1.000000
v 4.619398 1.913417 0.000000
v 4.619398 1.913417 1.000000
v 5.000000 0.000000 0.000000
v 5.000000 -3.000000 -0.000000
v 5.000000 -0.000000 1.000000
v 5.000000 -3.000001 1.000000
v -0.000001 4.000000 0.000001
v -0.000001 5.000000 0.000001
v -0.000001 4.000000 1.000001
v -0.000001 5.000000 1.000001
v -1.530734 3.695518 0.000000
v -1.530734 3.695518 1.000001
v -1.913418 4.619398 0.000001
v -1.913418 4.619398 1.000001
v -2.828428 2.828426 0.000000
v -2.828428 2.828426 1.000000
v -3.535535 3.535533 0.000000
v -3.535535 3.535533 1.000001
v -3.695518 1.530733 0.000000
v -3.695518 1.530733 1.000000
v -4.000000 -0.000002 -0.000000
v -4.000000 -3.000000 -0.000000
v -4.000000 -0.000002 1.000000
v -4.000000 -3.000001 1.000000
v -4.619398 1.913416 0.000000
v -4.619398 1.913416 1.000000
v -5.000000 -0.000002 -0.000000
v -5.000000 -3.000000 -0.000000
v -5.000000 -0.000002 1.000000
v -5.000000 -3.000001 1.000000
vn 0.1952 0.9808 -0.0001
vn 0.5555 0.8315 -0.0000
vn 0.1950 0.9808 -0.0000
vn -0.1950 0.9808 -0.0000
vn -0.0000 -0.0000 -1.0000
vn 0.5555 -0.8315 -0.0000
vn 0.1952 -0.9808 -0.0000
vn 0.5557 -0.8314 -0.0000
vn 0.8314 -0.5557 -0.0000
vn -0.5555 0.8315 0.0001
vn -0.1952 0.9808 0.0001
vn -0.5556 0.8314 -0.0000
vn -0.8314 0.5556 -0.0000
vn -0.9808 -0.1951 -0.0000
vn -0.9808 -0.1952 -0.0000
vn -0.8315 -0.5555 -0.0000
vn -0.0000 -0.0000 1.0000
vn -1.0000 -0.0000 -0.0000
vn 0.5556 0.8314 -0.0001
vn 0.8314 0.5556 -0.0000
vn -0.0000 -1.0000 -0.0000
vn 0.9808 0.1951 -0.0000
vn 0.9808 0.1952 -0.0000
vn 0.8315 0.5555 -0.0000
vn -0.8314 -0.5557 -0.0000
vn -0.5557 -0.8314 -0.0000
vn 0.1950 -0.9808 -0.0000
vn -0.1950 -0.9808 -0.0000
vn -0.5555 -0.8315 -0.0000
vn -0.1952 -0.9808 -0.0000
vn -0.8315 0.5555 -0.0001
vn -0.9808 0.1952 0.0001
vn 0.9808 -0.1952 -0.0000
vn 0.8315 -0.5555 -0.0000
vn 0.9808 -0.1951 -0.0000
vn -0.9808 0.1951 -0.0000
vn 1.0000 -0.0000 -0.0000
vt 0.750000 0.250000
vt 0.750000 0.000000
vt 1.000000 0.000000
vt 1.000000 0.250000
vt 0.000000 1.000000
vt 0.000000 0.750000
vt 0.250000 0.750000
vt 0.250000 1.000000
vt 0.500000 1.000000
vt 0.500000 0.750000
vt 0.750000 0.750000
vt 0.750000 1.000000
vt 1.000000 0.750000
vt 1.000000 1.000000
vt 0.250000 0.250000
vt 0.250000 0.000000
vt 0.500000 0.000000
vt 0.500000 0.250000
vt 0.250000 0.500000
vt 0.500000 0.500000
vt 0.000000 0.500000
vt 0.000000 0.250000
vt 0.750000 0.250000
vt 1.000000 0.250000
vt 0.000000 0.250000
vt 0.750000 0.500000
vt 0.750000 0.250000
vt 0.500000 0.250001
vt 0.250000 0.250001
vt 1.000000 0.500000
vt 0.000000 0.000000
vt 0.500000 0.250000
vt 0.000000 0.250001
vt 0.000000 -0.000000
vt 0.750000 -0.000000
vt 0.749999 0.500000
vt 0.749999 0.750000
vt 0.000000 0.500000
vt 0.250000 -0.000000
vt 0.000000 0.750000
vt 0.749999 1.000000
vt 0.749999 0.750000
s 1
usemtl YellowStoneBricks
f 4/1/1 3/2/2 22/3/3 24/4/4
s 0
f 17/5/5 11/6/5 9/7/5 15/8/5
f 7/9/5 5/10/5 1/11/5 3/12/5
f 3/12/5 1/11/5 21/13/5 22/14/5
s 1
f 25/15/6 26/16/7 30/17/8 29/18/9
s 0
f 15/8/5 9/7/5 5/10/5 7/9/5
s 1
f 28/19/10 27/15/11 31/18/12 32/20/13
f 11/21/14 13/22/14 10/15/15 9/19/16
s 0
f 26/12/17 28/11/17 32/13/17 30/14/17
f 13/12/17 14/23/17 20/24/17 19/14/17
f 27/7/5 25/19/5 29/20/5 31/10/5
f 12/25/18 14/21/18 13/26/18 11/27/18
f 30/5/17 32/6/17 40/7/17 34/8/17
s 1
f 8/18/19 7/17/20 3/2/2 4/1/1
s 0
f 2/7/17 4/19/17 24/20/17 23/10/17
f 35/9/5 36/28/5 42/29/5 41/8/5
f 10/11/17 16/26/17 8/30/17 6/13/17
f 20/4/21 14/1/21 12/2/21 18/3/21
f 23/9/17 24/10/17 28/11/17 26/12/17
s 1
f 19/22/22 17/31/22 15/16/23 16/15/24
s 0
f 34/8/17 40/7/17 43/10/17 37/9/17
s 1
f 9/19/16 10/15/15 6/18/25 5/20/26
s 0
f 6/6/17 8/21/17 4/19/17 2/7/17
s 1
f 21/22/27 23/31/28 26/16/7 25/15/6
s 0
f 31/10/5 29/20/5 33/26/5 39/11/5
s 1
f 5/20/26 6/18/25 2/1/29 1/26/30
s 0
f 22/6/5 21/21/5 25/19/5 27/7/5
f 17/12/5 18/23/5 12/32/5 11/9/5
f 35/30/5 41/13/5 39/11/5 33/26/5
s 1
f 32/20/13 31/18/12 39/1/31 40/26/32
s 0
f 13/10/17 19/20/17 16/26/17 10/11/17
f 43/5/17 44/33/17 38/29/17 37/8/17
s 1
f 1/26/30 2/1/29 23/4/28 21/30/27
f 33/1/33 34/2/34 37/3/35 35/4/35
f 40/26/32 39/1/31 41/4/36 43/30/36
f 29/18/9 30/17/8 34/2/34 33/1/33
f 16/15/24 15/16/23 7/17/20 8/18/19
s 0
f 20/22/37 18/34/37 17/35/37 19/1/37
f 35/36/37 37/37/37 38/6/37 36/38/37
s 1
f 24/21/4 22/22/3 27/15/11 28/19/10
s 0
f 38/15/21 44/22/21 42/34/21 36/39/21
f 42/40/18 44/5/18 43/41/18 41/42/18
