# Blender 5.0.1
# www.blender.org
mtllib Stair.mtl
o SideStairsPart
v 0.500000 4.000000 4.900000
v 0.500000 4.000000 3.000000
v 0.500000 4.000000 3.700000
v 0.500000 3.800000 3.000000
v 0.500000 3.800000 4.900000
v 0.500000 3.800000 3.700000
v -0.500000 4.000000 4.900000
v -0.500000 0.200000 -2.600000
v -0.500000 4.000000 3.000000
v -0.500000 -0.200000 -2.600000
v -0.500000 0.200000 -4.900000
v -0.500000 4.000000 3.700000
v -0.500000 3.800000 3.000000
v -3.400000 0.200000 -4.900000
v -3.400000 4.000000 3.700000
v -3.400000 3.800000 3.700000
v -3.400000 0.200000 -2.600000
v -0.500000 2.000000 -0.500000
v -3.400000 2.000000 -0.500000
v -3.400000 4.000000 3.000000
v -3.400000 3.600000 3.000000
v -3.400000 3.600000 2.300000
v -0.500000 3.600000 3.000000
v -0.500000 3.600000 2.300000
v -3.400000 2.800000 0.900000
v -0.500000 2.800000 0.900000
v -3.400000 3.200000 1.600000
v -0.500000 3.200000 1.600000
v -3.400000 2.400000 0.900000
v -3.400000 2.400000 0.200000
v -3.400000 2.000000 0.200000
v -3.400000 3.200000 2.300000
v -3.400000 2.800000 1.600000
v -0.500000 3.200000 2.300000
v -0.500000 2.800000 1.600000
v -0.500000 2.400000 0.900000
v -0.500000 2.400000 0.200000
v -0.500000 2.000000 0.200000
v -0.500000 3.800000 4.900000
v -3.400000 1.600000 -1.200000
v -3.400000 3.800000 4.900000
v -3.400000 4.000000 4.900000
v -3.400000 1.200000 -1.200000
v -3.400000 1.600000 -0.500000
v -0.500000 1.600000 -0.500000
v -0.500000 1.600000 -1.200000
v -0.500000 1.200000 -1.200000
v -3.400000 1.200000 -1.900000
v -3.400000 0.800000 -1.900000
v -3.400000 0.800000 -2.600000
v -3.400000 0.400000 -2.600000
v -3.400000 0.400000 -4.900000
v -0.500000 1.200000 -1.900000
v -0.500000 0.800000 -1.900000
v -0.500000 0.800000 -2.600000
v -0.500000 0.400000 -2.600000
v -0.500000 0.400000 -4.900000
v -3.400000 3.800000 3.000000
v -0.500000 3.800000 3.700000
v -3.400000 -0.200000 -2.600000
v -3.400000 -0.200000 -4.900000
v -0.500000 0.600000 -1.900000
v -0.500000 1.000000 -1.200000
v -0.500000 1.400000 -0.500000
v -0.500000 1.800000 0.200000
v -0.500000 2.200000 0.900000
v -0.500000 2.600000 1.600000
v -0.500000 3.000000 2.300000
v -0.500000 3.400000 3.000000
v -3.400000 0.600000 -1.900000
v -3.400000 1.000000 -1.200000
v -3.400000 1.400000 -0.500000
v -3.400000 1.800000 0.200000
v -3.400000 2.200000 0.900000
v -3.400000 2.600000 1.600000
v -3.400000 3.000000 2.300000
v -3.400000 3.400000 3.000000
v 3.400000 4.000000 4.900000
v 3.400000 3.800000 4.900000
v -0.500000 -0.200000 -4.900000
v 3.400000 3.800000 3.700000
v 3.400000 4.000000 3.700000
v -0.500000 3.800000 -3.000000
v 0.500000 4.000000 -4.900000
v 0.500000 4.000000 -3.000000
v 3.400000 4.000000 3.000000
v 0.500000 3.800000 -4.900000
v 0.500000 3.800000 -3.000000
v 3.400000 3.800000 3.000000
v 3.400000 4.000000 -4.900000
v 3.400000 3.800000 -4.900000
v 3.400000 4.000000 -3.000000
v 3.400000 3.800000 -3.000000
v -0.500000 4.000000 -4.900000
v -0.500000 3.800000 -4.900000
v -0.500000 4.000000 -3.000000
vn -0.0000 -0.0000 -1.0000
vn -0.0000 -1.0000 -0.0000
vn -0.0000 -0.0000 1.0000
vn -0.0000 1.0000 -0.0000
vn 1.0000 -0.0000 -0.0000
vn -0.0000 -0.8682 0.4961
vn -1.0000 -0.0000 -0.0000
vt 2.000000 3.546875
vt 1.750000 3.546875
vt 1.750000 3.601562
vt 2.000000 3.601562
vt 1.000000 0.500000
vt 1.000000 0.320312
vt 0.750000 0.320312
vt 0.750000 0.500000
vt 1.000000 0.023438
vt 0.750000 0.023438
vt 3.265625 3.671875
vt 3.015625 3.671875
vt 3.015625 3.625000
vt 3.265625 3.625000
vt 2.750000 0.023438
vt 2.750000 0.320312
vt 2.500000 0.320312
vt 2.500000 0.023438
vt 2.750000 0.500000
vt 2.500000 0.500000
vt 1.015625 3.546875
vt 1.750000 3.500000
vt 1.015625 3.500000
vt 1.015625 3.601562
vt 2.500000 2.351562
vt 1.921875 2.351562
vt 1.921875 2.250000
vt 2.500000 2.250000
vt 0.015625 0.320312
vt 0.015625 0.500000
vt 1.765625 0.320312
vt 1.765625 0.500000
vt 2.515625 2.625000
vt 3.250000 2.625000
vt 3.250000 2.804688
vt 2.515625 2.804688
vt 2.515625 2.601562
vt 3.250000 2.601562
vt 3.250000 2.500000
vt 2.515625 2.500000
vt 3.250000 2.703125
vt 3.984375 2.703125
vt 3.984375 2.601562
vt 1.765625 2.101562
vt 2.500000 2.101562
vt 2.500000 2.000000
vt 1.765625 2.000000
vt 0.007812 2.671875
vt 0.734375 2.671875
vt 0.734375 2.843750
vt 0.007812 2.843750
vt 2.515625 2.875000
vt 3.250000 2.875000
vt 3.250000 3.054688
vt 2.515625 3.054688
vt 0.007812 2.851562
vt 0.734375 2.851562
vt 0.734375 3.031250
vt 0.007812 3.031250
vt 3.250000 2.851562
vt 3.984375 2.851562
vt 3.984375 2.750000
vt 3.250000 2.750000
vt 2.515625 3.125000
vt 3.250000 3.125000
vt 3.250000 3.304688
vt 2.515625 3.304688
vt 0.015625 0.023438
vt 1.765625 0.023438
vt 2.000000 3.625000
vt 1.265625 3.625000
vt 1.265625 3.726562
vt 2.000000 3.726562
vt 0.734375 2.664062
vt 0.007812 2.664062
vt 0.007812 2.484375
vt 0.734375 2.484375
vt 2.000000 3.750000
vt 1.265625 3.750000
vt 1.265625 3.851562
vt 2.000000 3.851562
vt 2.500000 1.078125
vt 1.765625 1.078125
vt 1.476562 2.484375
vt 0.742188 2.484375
vt 0.742188 2.585938
vt 1.476562 2.585938
vt 2.500000 1.929688
vt 1.765625 1.929688
vt 1.765625 1.750000
vt 2.500000 1.750000
vt 3.984375 3.500000
vt 3.250000 3.500000
vt 3.250000 3.601562
vt 3.984375 3.601562
vt 3.984375 3.304688
vt 3.984375 3.125000
vt 2.500000 2.398438
vt 1.921875 2.398438
vt 0.328125 3.507812
vt 0.023438 3.507812
vt 0.023438 3.562500
vt 0.328125 3.562500
vt 2.281250 3.625000
vt 2.281250 3.671875
vt 0.507812 3.257812
vt 0.328125 3.257812
vt 0.507812 3.156250
vt 0.507812 3.210938
vt 3.984375 2.976562
vt 3.984375 2.875000
vt 3.250000 2.976562
vt 1.765625 1.125000
vt 1.765625 1.703125
vt 2.500000 1.703125
vt 2.500000 1.125000
vt 2.500000 2.601562
vt 2.500000 2.500000
vt 1.921875 2.500000
vt 1.921875 2.601562
vt 3.984375 3.023438
vt 3.250000 3.023438
vt 1.328125 3.375000
vt 1.328125 3.421875
vt 1.023438 3.421875
vt 1.023438 3.375000
vt 2.500000 2.648438
vt 1.921875 2.648438
vt 0.507812 3.562500
vt 0.507812 3.507812
vt 1.570312 2.953125
vt 1.570312 2.851562
vt 1.570312 2.804688
vt 1.390625 2.906250
vt 1.390625 2.953125
vt 0.679688 3.054688
vt 0.679688 3.109375
vt 0.679688 3.210938
vt 0.859375 2.953125
vt 0.859375 3.007812
vt 0.859375 3.109375
vt 1.039062 2.859375
vt 1.039062 2.906250
vt 1.039062 3.007812
vt 1.210938 2.757812
vt 1.210938 2.804688
vt 1.210938 2.906250
vt 1.390625 2.656250
vt 1.390625 2.703125
vt 1.390625 2.804688
vt 1.570312 2.554688
vt 1.570312 2.601562
vt 1.570312 2.703125
vt 1.742188 2.453125
vt 1.742188 2.500000
vt 1.742188 2.601562
vt 1.210938 3.007812
vt 1.210938 3.054688
vt 1.390625 3.054688
vt 1.039062 3.109375
vt 1.039062 3.156250
vt 1.210938 3.156250
vt 0.859375 3.203125
vt 0.859375 3.257812
vt 1.039062 3.257812
vt 0.679688 3.304688
vt 0.679688 3.359375
vt 0.859375 3.359375
vt 0.507812 3.406250
vt 0.507812 3.460938
vt 0.679688 3.460938
vt 1.742188 2.851562
vt 1.742188 2.750000
vt 1.742188 2.703125
vt 1.921875 2.750000
vt 0.015625 0.679688
vt 0.750000 0.679688
vt 0.015625 0.851562
vt 0.750000 0.851562
vt 0.015625 1.031250
vt 0.750000 1.031250
vt 0.015625 1.203125
vt 0.750000 1.203125
vt 0.015625 1.382812
vt 0.750000 1.382812
vt 0.015625 1.562500
vt 0.750000 1.562500
vt 0.015625 1.734375
vt 0.750000 1.734375
vt 0.015625 1.914062
vt 0.750000 1.914062
vt 1.734375 0.320312
vt 1.734375 0.023438
vt 3.484375 0.320312
vt 3.484375 0.023438
vt 2.515625 3.601562
vt 2.515625 3.500000
vt 1.734375 0.500000
vt 1.507812 3.375000
vt 1.507812 3.421875
vt 4.000000 3.625000
vt 4.000000 3.671875
vt 0.476562 1.953125
vt 0.000000 1.953125
vt 0.000000 2.000000
vt 0.476562 2.000000
vt 3.500000 3.375000
vt 3.500000 3.421875
vt 5.015625 3.421875
vt 5.015625 3.375000
vt 3.484375 2.492188
vt 2.750000 2.492188
vt 2.750000 2.015625
vt 3.484375 2.015625
vt 1.000000 2.015625
vt 1.000000 2.492188
vt 1.734375 2.492188
vt 1.734375 2.015625
vt 0.265625 3.671875
vt 1.000000 3.671875
vt 1.000000 3.625000
vt 0.265625 3.625000
vt 3.023438 3.421875
vt 3.023438 3.375000
vt 3.484375 0.500000
vt 0.750000 2.015625
vt 0.750000 2.492188
vt 2.500000 2.492188
vt 2.500000 2.015625
vt 0.015625 3.625000
vt 0.015625 3.671875
vt 0.750000 2.000000
vt 0.500000 2.000000
vt 0.500000 1.953125
vt 0.750000 1.953125
s 0
usemtl Concrete
f 4/1/1 13/2/1 9/3/1 2/4/1
f 4/5/2 6/6/2 59/7/2 13/8/2
f 6/6/2 5/9/2 39/10/2 59/7/2
f 1/11/3 7/12/3 39/13/3 5/14/3
f 1/15/4 3/16/4 12/17/4 7/18/4
f 2/19/4 9/20/4 12/17/4 3/16/4
f 58/21/1 13/2/1 23/22/1 21/23/1
f 20/24/1 9/3/1 13/2/1 58/21/1
f 11/25/5 8/26/5 10/27/5 80/28/5
f 59/7/6 16/29/6 77/30/6 69/8/6
f 15/31/4 12/17/4 9/20/4 20/32/4
f 21/33/4 23/34/4 24/35/4 22/36/4
f 22/37/1 24/38/1 34/39/1 32/40/1
f 25/41/1 26/42/1 36/43/1 29/38/1
f 27/44/1 28/45/1 35/46/1 33/47/1
f 33/48/4 35/49/4 26/50/4 25/51/4
f 32/52/4 34/53/4 28/54/4 27/55/4
f 29/56/4 36/57/4 37/58/4 30/59/4
f 30/60/1 37/61/1 38/62/1 31/63/1
f 31/64/4 38/65/4 18/66/4 19/67/4
f 16/29/2 59/7/2 39/10/2 41/68/2
f 15/31/4 42/69/4 7/18/4 12/17/4
f 47/70/1 43/71/1 40/72/1 46/73/1
f 46/74/4 40/75/4 44/76/4 45/77/4
f 45/78/1 44/79/1 19/80/1 18/81/1
f 57/82/4 52/83/4 51/32/4 56/20/4
f 56/84/1 51/85/1 50/86/1 55/87/1
f 55/88/4 50/89/4 49/90/4 54/91/4
f 54/92/1 49/93/1 48/94/1 53/95/1
f 53/96/4 48/66/4 43/65/4 47/97/4
f 11/25/5 57/98/5 56/99/5 8/26/5
f 16/100/7 41/101/7 42/102/7 15/103/7
f 41/104/3 39/13/3 7/12/3 42/105/3
f 13/106/5 59/107/5 69/108/5 23/109/5
f 11/110/1 80/111/1 61/53/1 14/112/1
f 60/113/2 61/114/2 80/115/2 10/116/2
f 14/117/7 61/118/7 60/119/7 17/120/7
f 57/121/1 11/110/1 14/112/1 52/122/1
f 81/123/5 82/124/5 78/125/5 79/126/5
f 52/127/7 14/117/7 17/120/7 51/128/7
f 20/129/7 58/130/7 16/100/7 15/103/7
f 40/131/7 43/132/7 71/133/7 72/134/7 44/135/7
f 23/109/5 69/108/5 68/136/5 34/137/5 24/138/5
f 34/137/5 68/136/5 67/139/5 35/140/5 28/141/5
f 35/140/5 67/139/5 66/142/5 36/143/5 26/144/5
f 36/143/5 66/142/5 65/145/5 38/146/5 37/147/5
f 38/146/5 65/145/5 64/148/5 45/149/5 18/150/5
f 45/149/5 64/148/5 63/151/5 47/152/5 46/153/5
f 47/152/5 63/151/5 62/154/5 54/155/5 53/156/5
f 54/155/5 62/154/5 8/26/5 56/99/5 55/119/5
f 44/135/7 72/134/7 73/157/7 31/158/7 19/159/7
f 31/158/7 73/157/7 74/160/7 29/161/7 30/162/7
f 29/161/7 74/160/7 75/163/7 33/164/7 25/165/7
f 33/164/7 75/163/7 76/166/7 32/167/7 27/168/7
f 32/167/7 76/166/7 77/169/7 21/170/7 22/171/7
f 21/170/7 77/169/7 16/100/7 58/130/7
f 71/133/7 43/132/7 48/172/7 49/173/7 70/174/7
f 70/174/7 49/173/7 50/175/7 51/128/7 17/120/7
f 69/8/6 77/30/6 76/176/6 68/177/6
f 68/177/6 76/176/6 75/178/6 67/179/6
f 67/179/6 75/178/6 74/180/6 66/181/6
f 66/181/6 74/180/6 73/182/6 65/183/6
f 65/183/6 73/182/6 72/184/6 64/185/6
f 64/185/6 72/184/6 71/186/6 63/187/6
f 63/187/6 71/186/6 70/188/6 62/189/6
f 62/189/6 70/188/6 17/190/6 8/191/6
f 6/6/2 81/192/2 79/193/2 5/9/2
f 82/194/4 3/16/4 1/15/4 78/195/4
f 17/196/3 60/197/3 10/93/3 8/94/3
f 4/5/2 89/198/2 81/192/2 6/6/2
f 89/199/5 86/200/5 82/124/5 81/123/5
f 5/14/3 79/201/3 78/202/3 1/11/3
f 95/203/7 83/204/7 96/205/7 94/206/7
f 4/207/7 2/208/7 85/209/7 88/210/7
f 90/211/4 84/212/4 85/213/4 92/214/4
f 88/215/2 87/216/2 91/217/2 93/218/2
f 84/219/1 90/220/1 91/221/1 87/222/1
f 90/208/5 92/223/5 93/224/5 91/207/5
f 88/215/2 93/218/2 89/198/2 4/5/2
f 86/225/4 2/19/4 3/16/4 82/194/4
f 87/216/2 88/215/2 83/226/2 95/227/2
f 85/213/4 2/19/4 86/225/4 92/214/4
f 85/213/4 84/212/4 94/228/4 96/229/4
f 84/219/1 87/222/1 95/230/1 94/231/1
f 85/232/3 96/233/3 83/234/3 88/235/3
f 89/199/5 93/224/5 92/223/5 86/200/5
