# Blender 4.5.4 LTS
# www.blender.org
mtllib Sheet.mtl
o Sheet
v -0.939580 0.360183 -0.779850
v 0.843168 0.411210 -0.800959
v -0.866735 0.438689 2.105263
v -0.832666 0.456289 2.073291
v -0.817528 0.444742 1.949654
v 0.817859 0.455797 1.983721
v 0.884003 0.350224 2.009014
v 0.949936 0.456530 -0.643689
v 0.827852 0.624573 -0.903101
v 0.840783 0.562546 -0.766265
v -0.802533 0.580109 -0.785495
v -0.920651 0.362738 -0.786671
v 1.026984 0.620790 1.936350
v 0.939160 0.454506 -0.062703
v -1.079269 0.458990 -0.706061
v -1.043751 0.463708 -0.630131
v -0.950939 0.455338 1.826189
v -1.105793 0.479022 1.949056
v -1.069781 0.438862 2.010468
v -0.933053 0.327815 1.991771
v -0.867147 0.440953 1.965522
v 0.931055 0.297925 1.954128
v 0.961010 0.316093 1.948555
v 1.106084 0.445216 1.965838
v 0.831115 0.429496 -0.816254
v 0.641785 0.564081 -0.744061
v -0.733528 0.568096 -0.746270
v -0.806088 0.636010 -0.872577
v -0.846530 0.608451 -0.884679
v -0.834056 0.526139 -0.828892
v -0.883778 0.618829 2.010634
v 0.856134 0.478081 2.127938
v 0.800976 0.494206 2.095686
v 0.930375 0.407930 1.987089
v 0.937973 0.668709 1.965074
v 0.866911 0.727736 1.944219
v -0.930127 0.589564 2.049628
v -1.004715 0.616510 2.000823
v 0.897489 0.748306 1.958766
v -0.922617 0.756028 1.947064
v -0.794250 0.780433 1.939179
v 0.902877 0.824138 1.925238
v -0.916937 0.825841 1.919560
v 0.931512 0.805223 1.885773
v 0.948980 0.673843 1.836687
v 0.980484 0.453203 1.822921
v 0.946697 0.447853 1.750156
v -0.944093 0.765419 1.880375
v 0.939058 0.746537 -0.618769
v 0.940544 0.762336 -0.714662
v -0.934751 0.799825 -0.649939
v 0.990350 0.596640 -0.731655
v -0.902730 0.831110 -0.715607
v 0.897214 0.834069 -0.713727
v 1.011926 0.454112 -0.719696
v 0.790588 0.793291 -0.739114
v -0.932185 0.717924 -0.728561
v 0.875486 0.739169 -0.766233
v -0.866800 0.760715 -0.738461
v 0.976639 0.436869 -0.783881
v -1.046938 0.433075 -0.779400
v 0.913233 0.692889 -0.815940
v 0.742606 0.570294 -0.788513
v -0.874470 0.691884 1.937524
v -0.738901 0.458416 2.023065
v 0.719443 0.448543 1.937303
v 1.095175 0.474593 1.869263
v -0.533196 0.445669 1.939389
v 0.988204 0.460591 -0.491774
v -0.925407 0.794537 -0.713487
v 0.810670 0.614093 -0.853329
v -0.960918 0.447160 -0.525129
vn -0.2661 -0.3864 -0.8831
vn 0.2085 -0.5430 -0.8134
vn -0.3707 0.1645 0.9141
vn 0.8169 0.4123 0.4033
vn -0.2048 0.0996 0.9737
vn -0.8398 0.2234 0.4948
vn 0.7135 -0.1428 0.6860
vn 0.9775 0.0874 0.1920
vn 0.3241 0.2822 -0.9029
vn -0.5349 0.3343 -0.7760
vn 0.7890 0.4018 -0.4648
vn -0.2423 -0.0131 -0.9701
vn 0.8678 0.4469 0.2170
vn 0.9990 0.0406 0.0196
vn -0.9053 0.3976 -0.1493
vn -0.8126 0.2932 0.5037
vn -0.9184 0.0903 -0.3851
vn -0.9261 0.3736 0.0529
vn -0.2272 0.1356 0.9644
vn -0.4421 -0.0921 0.8922
vn 0.8602 0.1752 0.4790
vn 0.4553 -0.2530 0.8537
vn 0.2718 -0.2938 0.9164
vn 0.5673 0.2060 0.7973
vn 0.3423 -0.2925 -0.8929
vn -0.1321 0.1079 -0.9853
vn 0.1602 0.1504 -0.9756
vn 0.4420 0.7155 -0.5410
vn -0.7735 0.1207 -0.6222
vn -0.7542 -0.0431 -0.6552
vn 0.7666 0.3492 0.5389
vn 0.5932 0.2530 0.7643
vn -0.7445 0.4751 0.4691
vn 0.3115 -0.0757 0.9472
vn 0.5594 0.3274 0.7615
vn -0.4010 0.3230 0.8573
vn -0.1754 0.2777 0.9445
vn -0.6396 0.3835 0.6662
vn 0.0819 0.5112 0.8556
vn -0.3696 0.4472 0.8145
vn -0.0036 0.2327 0.9725
vn 0.3848 0.7153 0.5834
vn -0.4830 0.7318 0.4808
vn 0.8259 0.5435 0.1496
vn 0.3698 0.3400 -0.8647
vn 0.6819 0.1421 -0.7175
vn 0.9790 0.0930 -0.1815
vn -0.9450 0.3239 0.0451
vn 0.9978 0.0473 0.0453
vn 0.8321 0.4438 -0.3325
vn -0.8716 0.4902 -0.0025
vn 0.9843 0.1430 -0.1034
vn -0.3864 0.7400 -0.5505
vn 0.4112 0.7673 -0.4921
vn 0.9872 0.1531 0.0438
vn 0.0388 0.3137 -0.9487
vn -0.6510 0.1715 -0.7395
vn -0.5887 0.6882 -0.4239
vn 0.1524 0.4859 -0.8606
vn 0.5853 -0.0083 -0.8108
vn -0.3608 0.2799 -0.8897
vn 0.5266 0.4478 -0.7226
vn -0.1259 0.2403 -0.9625
vn 0.3909 0.1678 0.9050
vn -0.1282 0.2293 0.9649
vn -0.1492 0.0543 0.9873
vn 0.8208 0.3806 -0.4259
vn 0.1098 0.0845 0.9904
vn 0.9867 0.1611 -0.0190
vn -0.7099 0.4263 -0.5606
vn -0.9087 0.4073 0.0914
vn -0.9510 0.1634 0.2624
vt 0.773438 0.843750
vt 0.796875 0.882812
vt 0.789062 0.882812
vt 0.312500 0.875000
vt 0.281250 0.875000
vt 0.304688 0.804688
vt 0.789062 0.843750
vt 0.757812 0.820312
vt 0.765625 0.796875
vt 0.664062 0.882812
vt 0.734375 0.796875
vt 0.343750 0.875000
vt 0.773438 0.781250
vt 0.804688 0.828125
vt 0.757812 0.781250
vt 0.296875 0.796875
vt 0.304688 0.781250
vt 0.273438 0.804688
vt 0.296875 0.773438
vt 0.250000 0.796875
vt 0.203125 0.796875
vt 0.257812 0.765625
vt 0.203125 0.765625
vt 0.203125 0.742188
vt 0.195312 0.296875
vt 0.265625 0.156250
vt 0.851562 0.773438
vt 0.757812 0.164062
vt 0.851562 0.187500
vt 0.265625 0.132812
vt 0.281250 0.140625
vt 0.750000 0.156250
vt 0.851562 0.156250
vt 0.851562 0.132812
vt 0.757812 0.148438
vt 0.226562 0.125000
vt 0.312500 0.125000
vt 0.750000 0.132812
vt 0.273438 0.117188
vt 0.257812 0.109375
vt 0.773438 0.140625
vt 0.851562 0.109375
vt 0.289062 0.062500
vt 0.343750 0.062500
vt 0.187500 0.109375
vt 0.195312 0.070312
vt 0.843750 0.078125
vt 0.710938 0.085938
vt 0.312500 0.062500
vt 0.250000 0.070312
vt 0.265625 0.070312
vt 0.265625 0.875000
vt 0.203125 0.875000
vt 0.226562 0.859375
vt 0.226562 0.875000
vt 0.203125 0.820312
vt 0.187500 0.156250
vt 0.187500 0.125000
vt 0.187500 0.070312
vt 0.734375 0.085938
vt 0.757812 0.085938
vt 0.773438 0.078125
vt 0.796875 0.078125
vt 0.843750 0.890625
vt 0.757812 0.882812
vt 0.203125 0.867188
vt 0.843750 0.843750
vt 0.750000 0.882812
vt 0.851562 0.820312
vt 0.195312 0.195312
vt 0.718750 0.882812
s 1
usemtl SmoothCotton
f 31/1/31 3/2/3 4/3/4
f 6/4/6 33/5/33 36/6/36
f 31/1/31 37/7/37 3/2/3
f 64/8/64 40/9/40 31/1/31
f 68/10/68 36/6/36 41/11/41
f 66/12/66 36/6/36 68/10/68
f 40/9/40 48/13/48 38/14/38
f 64/8/64 41/11/41 40/9/40
f 40/9/40 41/11/41 43/15/43
f 39/16/39 42/17/42 36/6/36
f 39/16/39 35/18/35 44/19/44
f 35/18/35 13/20/13 44/19/44
f 43/15/43 48/13/48 40/9/40
f 41/11/41 42/17/42 43/15/43
f 39/16/39 44/19/44 42/17/42
f 44/19/44 67/21/67 45/22/45
f 46/23/46 47/24/47 45/22/45
f 14/25/14 49/26/49 44/19/44
f 17/27/17 51/28/51 72/29/72
f 44/19/44 49/26/49 50/30/50
f 44/19/44 50/30/50 54/31/54
f 42/17/42 54/31/54 53/32/53
f 16/33/16 51/28/51 15/34/15
f 51/28/51 70/35/70 15/34/15
f 51/28/51 53/32/53 70/35/70
f 52/36/52 50/30/50 49/26/49
f 53/32/53 56/37/56 59/38/59
f 50/30/50 58/39/58 54/31/54
f 52/36/52 62/40/62 50/30/50
f 15/34/15 57/41/57 61/42/61
f 56/37/56 54/31/54 10/43/10
f 56/37/56 26/44/26 59/38/59
f 54/31/54 58/39/58 10/43/10
f 60/45/60 25/46/25 62/40/62
f 61/42/61 12/47/12 1/47/1
f 26/44/26 27/48/27 59/38/59
f 56/37/56 63/49/63 26/44/26
f 58/39/58 9/50/9 71/51/71
f 32/52/32 35/18/35 39/16/39
f 22/53/22 34/54/34 7/55/7
f 24/56/24 67/21/67 44/19/44
f 46/23/46 45/22/45 67/21/67
f 8/57/8 55/58/55 52/36/52
f 60/45/60 2/59/2 25/46/25
f 25/46/25 9/50/9 62/40/62
f 59/38/59 11/60/11 28/61/28
f 70/35/70 28/61/28 29/62/29
f 57/41/57 30/63/30 12/47/12
f 36/6/36 33/5/33 39/16/39
f 32/52/32 7/55/7 35/18/35
f 35/18/35 7/55/7 34/54/34
f 20/64/20 37/7/37 38/14/38
f 21/65/21 64/8/64 31/1/31
f 34/54/34 23/66/23 24/56/24
f 20/64/20 38/14/38 19/67/19
f 5/68/5 41/11/41 64/8/64
f 37/7/37 40/9/40 38/14/38
f 31/1/31 40/9/40 37/7/37
f 34/54/34 24/56/24 35/18/35
f 41/11/41 36/6/36 42/17/42
f 35/18/35 24/56/24 13/20/13
f 13/20/13 24/56/24 44/19/44
f 38/14/38 48/13/48 18/69/18
f 45/22/45 47/24/47 44/19/44
f 43/15/43 42/17/42 53/32/53
f 47/24/47 14/25/14 44/19/44
f 43/15/43 51/28/51 48/13/48
f 17/27/17 48/13/48 51/28/51
f 43/15/43 53/32/53 51/28/51
f 42/17/42 44/19/44 54/31/54
f 49/26/49 14/25/14 69/70/69
f 69/70/69 8/57/8 49/26/49
f 49/26/49 8/57/8 52/36/52
f 15/34/15 70/35/70 57/41/57
f 70/35/70 53/32/53 59/38/59
f 53/32/53 54/31/54 56/37/56
f 50/30/50 62/40/62 58/39/58
f 52/36/52 60/45/60 62/40/62
f 55/58/55 60/45/60 52/36/52
f 61/42/61 57/41/57 12/47/12
f 57/41/57 70/35/70 29/62/29
f 62/40/62 9/50/9 58/39/58
f 30/63/30 57/41/57 29/62/29
f 59/38/59 27/48/27 11/60/11
f 3/2/3 37/7/37 20/64/20
f 4/3/4 21/65/21 31/1/31
f 21/65/21 5/68/5 64/8/64
f 5/68/5 65/71/65 41/11/41
f 65/71/65 68/10/68 41/11/41
f 6/4/6 36/6/36 66/12/66
f 33/5/33 32/52/32 39/16/39
f 22/53/22 23/66/23 34/54/34
f 10/43/10 58/39/58 71/51/71
f 63/49/63 56/37/56 10/43/10
f 70/35/70 59/38/59 28/61/28
f 72/29/72 51/28/51 16/33/16
f 18/69/18 48/13/48 17/27/17
f 19/67/19 38/14/38 18/69/18
