<?xml version="1.0" encoding="utf-8"?>
<!-- Generator: Adobe Illustrator 26.1.0, SVG Export Plug-In . SVG Version: 6.00 Build 0)  -->
<svg version="1.2" baseProfile="tiny" id="图层_1"
	 xmlns="http://www.w3.org/2000/svg" xmlns:xlink="http://www.w3.org/1999/xlink" x="0px" y="0px" viewBox="0 0 50 50"
	 overflow="visible" xml:space="preserve">
<polygon fill="#FFFFFF" stroke="#000000" stroke-width="2" stroke-miterlimit="10" points="36,21 25,32 25,36 27,38 25,40 23,38 
	25,36 25,32 23,30 31.5,21.5 31.5,20.5 25,14 16,23 14,21 25,10 26,7 25,6 6.5,24.5 6.5,25.5 25,44 43.5,25.5 43.5,24.5 25,6 24,7 
	25,10 "/>
<polygon fill="#FFFFFF" points="36,20 25,31 25,35 27,37 25,39 23,37 25,35 25,31 23,29 32,20 25,13 16,22 14,20 25,9 25,5 6,24 
	25,43 44,24 25,5 25,9 "/>
</svg>
