<?xml version="1.0" encoding="utf-8"?>
<!-- Generator: Adobe Illustrator 26.1.0, SVG Export Plug-In . SVG Version: 6.00 Build 0)  -->
<svg version="1.1" xmlns="http://www.w3.org/2000/svg" xmlns:xlink="http://www.w3.org/1999/xlink" x="0px" y="0px"
	 viewBox="0 0 16 16" style="enable-background:new 0 0 16 16;" xml:space="preserve">
<style type="text/css">
	.st0{fill:#FFFF3F;}
	.st1{fill:#7F7F7F;}
	.st2{fill:#3F3FFF;}
	.st3{fill:#FF3F3F;}
</style>
<g id="图层_2">
	<polygon class="st0" points="1,5 1,10 8,13 15,10 15,5 8,8 	"/>
	<polygon class="st0" points="1,5 8,2 15,5 15,6 8,3 1,6 	"/>
	<rect x="9.3" y="12.3" transform="matrix(0.7071 -0.7071 0.7071 0.7071 -6.2635 10.8787)" class="st1" width="1.4" height="1.4"/>
	<polygon class="st1" points="9,10 8,10 8,9 7,9 7,10 6,10 6,11 8,13 7,13 6,12 6,14 7,14 7,15 8,15 8,14 9,14 9,13 7,11 8,11 9,12 
			"/>
	<rect x="11.3" y="12.3" transform="matrix(0.7071 -0.7071 0.7071 0.7071 -5.6777 12.2929)" class="st1" width="1.4" height="1.4"/>
	<rect x="13.3" y="12.3" transform="matrix(0.7071 -0.7071 0.7071 0.7071 -5.0919 13.7071)" class="st1" width="1.4" height="1.4"/>
</g>
<g id="图层_3">
	<rect x="2" y="11" class="st0" width="3" height="4"/>
	<rect x="1" y="10" class="st2" width="3" height="4"/>
	<rect y="12" class="st3" width="3" height="4"/>
</g>
</svg>
