<?xml version="1.0" encoding="utf-8"?>
<!-- Generator: Adobe Illustrator 26.1.0, SVG Export Plug-In . SVG Version: 6.00 Build 0)  -->
<svg version="1.1" xmlns="http://www.w3.org/2000/svg" xmlns:xlink="http://www.w3.org/1999/xlink" x="0px" y="0px"
	 viewBox="0 0 16 16" style="enable-background:new 0 0 16 16;" xml:space="preserve">
<style type="text/css">
	.st0{fill:#FFFF3F;}
	.st1{fill:#7F7F7F;}
	.st2{fill:#3F3FFF;}
	.st3{fill:#FF3F3F;}
</style>
<g id="图层_2">
	<polygon class="st0" points="1,11 8,8 15,11 15,12 8,9 1,12 	"/>
	<polygon class="st0" points="1,11 8,14 15,11 15,12 8,15 1,12 	"/>
	<polygon class="st0" points="8,1 1,4 1,5 8,2 	"/>
	<rect x="1" y="4" class="st0" width="1" height="7"/>
	<rect x="7" y="2" class="st0" width="1" height="7"/>
	<polygon class="st1" points="11,7 10,8 10,14 11,15 12,14 12,8 	"/>
	<rect x="9.6" y="2.6" transform="matrix(0.7071 -0.7071 0.7071 0.7071 0.3934 8.9497)" class="st1" width="2.8" height="2.8"/>
</g>
<g id="图层_3">
	<rect x="2" y="11" class="st0" width="3" height="4"/>
	<rect x="1" y="10" class="st2" width="3" height="4"/>
	<rect y="12" class="st3" width="3" height="4"/>
</g>
</svg>
