<?xml version="1.0" encoding="utf-8"?>
<!-- Generator: Adobe Illustrator 26.1.0, SVG Export Plug-In . SVG Version: 6.00 Build 0)  -->
<svg version="1.1" xmlns="http://www.w3.org/2000/svg" xmlns:xlink="http://www.w3.org/1999/xlink" x="0px" y="0px"
	 viewBox="0 0 16 16" style="enable-background:new 0 0 16 16;" xml:space="preserve">
<style type="text/css">
	.st0{fill:#FF3F3F;}
	.st1{fill:#FFFF3F;}
	.st2{fill:#3F3FFF;}
</style>
<g id="图层_2">
	<polygon class="st0" points="1,5 8,8 15,5 15,4 15,4 8,1 1,4 	"/>
	<polygon class="st0" points="1,6 1,11 8,14 15,11 15,6 8,9 	"/>
	<polygon class="st0" points="1,4 1,6 2,7 2,5 	"/>
	<path class="st0" d="M3,5v2c0,0,0,0,0,0l1,1V6c0,0,0,0,0,0L3,5z"/>
	<polygon class="st0" points="5,6 5,8 6,9 6,7 	"/>
	<polygon class="st0" points="7,7 7,9 8,10 8,8 	"/>
</g>
<g id="图层_3">
	<rect x="2" y="11" class="st1" width="3" height="4"/>
	<rect x="1" y="10" class="st2" width="3" height="4"/>
	<rect y="12" class="st0" width="3" height="4"/>
</g>
</svg>
