# Blender 4.2.3 LTS
# www.blender.org
mtllib TravelAgencyStairPart.mtl
o SideStairsPart
v 2.900000 4.100000 9.900001
v 2.900000 0.300000 1.800000
v 2.900000 4.100000 8.200001
v 2.900000 -0.100000 1.800000
v 2.900000 0.300000 0.100000
v 2.900000 4.100000 9.000000
v 2.900000 3.900000 8.200001
v 5.800000 4.100000 0.100001
v 0.000000 0.300000 0.100000
v 0.000000 4.100000 9.000000
v 0.000000 3.900000 9.000000
v 0.000000 0.300000 1.800000
v 2.900000 2.100000 4.200000
v 0.000000 2.100000 4.200000
v 0.000000 4.100000 8.200001
v 0.000000 3.700000 8.200000
v 0.000000 3.700000 7.400001
v 2.900000 3.700000 8.200000
v 2.900000 3.700000 7.400001
v 0.000000 2.900000 5.800001
v 2.900000 2.900000 5.800001
v 0.000000 3.300000 6.600000
v 2.900000 3.300000 6.600000
v 0.000000 2.500000 5.800000
v 0.000000 2.500000 5.000000
v 0.000000 2.100000 5.000000
v 0.000000 3.300000 7.400000
v 0.000000 2.900000 6.600000
v 2.900000 3.300000 7.400000
v 2.900000 2.900000 6.600000
v 2.900000 2.500000 5.800000
v 2.900000 2.500000 5.000000
v 2.900000 2.100000 5.000000
v 2.900000 3.900000 9.900001
v 0.000000 1.700000 3.400000
v 0.000000 3.900000 9.900001
v 0.000000 4.100000 9.900001
v 0.000000 1.300000 3.400000
v 0.000000 1.700000 4.200000
v 2.900000 1.700000 4.200000
v 2.900000 1.700000 3.400000
v 2.900000 1.300000 3.400000
v 0.000000 1.300000 2.600000
v 0.000000 0.900000 2.600000
v 0.000000 0.900000 1.800000
v 0.000000 0.500000 1.800000
v 0.000000 0.500000 0.100000
v 2.900000 1.300000 2.600000
v 2.900000 0.900000 2.600000
v 2.900000 0.900000 1.800000
v 2.900000 0.500000 1.800000
v 2.900000 0.500000 0.100000
v 0.000000 3.900000 8.200001
v 2.900000 3.900000 9.000000
v 0.000000 -0.100000 1.800000
v 2.900000 3.900000 0.100001
v 2.900000 4.100000 0.100001
v 5.800000 3.900000 0.100001
v 5.800000 4.100000 8.200001
v 5.800000 4.100000 9.900001
v 5.800000 3.900000 9.900001
v 5.800000 3.900000 8.200001
v 5.800000 4.100000 9.000000
v 5.800000 3.900000 9.000000
v 2.900000 -0.100000 0.100000
v 0.000000 -0.100000 0.100000
v 2.900000 0.700000 2.600000
v 2.900000 1.100000 3.400000
v 2.900000 1.500000 4.200000
v 2.900000 1.900000 5.000000
v 2.900000 2.300000 5.800000
v 2.900000 2.700000 6.600000
v 2.900000 3.100000 7.400000
v 2.900000 3.500000 8.200000
v 0.000000 0.700000 2.600000
v 0.000000 1.100000 3.400000
v 0.000000 1.500000 4.200000
v 0.000000 1.900000 5.000000
v 0.000000 2.300000 5.800000
v 0.000000 2.700000 6.600000
v 0.000000 3.100000 7.400000
v 0.000000 3.500000 8.200000
vn -0.0000 -0.0000 -1.0000
vn -0.0000 -0.0000 1.0000
vn -0.0000 -0.8944 0.4472
vn -0.0000 1.0000 -0.0000
vn -0.0000 -1.0000 -0.0000
vn 1.0000 -0.0000 -0.0000
vn -1.0000 -0.0000 -0.0000
vt 2.953125 0.367188
vt 3.679688 0.367188
vt 3.679688 0.320312
vt 2.953125 0.320312
vt 2.953125 0.421875
vt 3.679688 0.421875
vt 2.953125 0.632812
vt 2.953125 0.531250
vt 3.679688 0.531250
vt 3.679688 0.632812
vt 0.742188 0.226562
vt -0.000000 0.226562
vt -0.000000 0.437500
vt 0.742188 0.437500
vt 1.492188 0.226562
vt 2.218750 0.226562
vt 2.218750 0.421875
vt 1.492188 0.421875
vt 1.484375 0.437500
vt 1.484375 0.226562
vt 0.406250 3.406250
vt 1.132812 3.406250
vt 1.132812 3.601562
vt 0.406250 3.601562
vt 2.953125 0.312500
vt 3.679688 0.312500
vt 3.679688 0.210938
vt 2.953125 0.210938
vt 1.875000 3.585938
vt 2.601562 3.585938
vt 2.601562 3.484375
vt 1.875000 3.484375
vt 2.953125 0.742188
vt 3.679688 0.742188
vt 3.679688 0.640625
vt 2.953125 0.640625
vt 1.140625 3.421875
vt 1.867188 3.421875
vt 1.867188 3.625000
vt 1.140625 3.625000
vt 1.570312 3.210938
vt 2.296875 3.210938
vt 2.296875 3.414062
vt 1.570312 3.414062
vt 1.968750 3.007812
vt 2.695312 3.007812
vt 2.695312 3.210938
vt 1.968750 3.210938
vt 0.273438 3.109375
vt 1.000000 3.109375
vt 1.000000 3.007812
vt 0.273438 3.007812
vt 2.304688 3.210938
vt 3.031250 3.210938
vt 3.031250 3.414062
vt 2.304688 3.414062
vt 0.742188 0.000000
vt 0.000000 0.000000
vt 1.492188 -0.000000
vt 2.218750 -0.000000
vt 3.679688 0.109375
vt 2.953125 0.109375
vt 3.101562 3.007812
vt 2.375000 3.007812
vt 2.375000 2.804688
vt 3.101562 2.804688
vt 3.679688 0.007812
vt 2.953125 0.007812
vt 2.953125 0.101562
vt 3.679688 0.101562
vt 0.726562 2.500000
vt -0.000000 2.500000
vt -0.000000 2.078125
vt 0.726562 2.078125
vt 3.679688 0.429688
vt 2.953125 0.429688
vt 1.460938 2.710938
vt 0.734375 2.710938
vt 0.734375 2.507812
vt 1.460938 2.507812
vt 3.335938 3.484375
vt 2.609375 3.484375
vt 2.609375 3.585938
vt 3.335938 3.585938
vt 3.437500 3.210938
vt 2.710938 3.210938
vt 2.710938 3.007812
vt 3.437500 3.007812
vt 2.226562 2.554688
vt 2.226562 2.609375
vt 1.796875 2.609375
vt 1.796875 2.554688
vt 1.164062 3.351562
vt 0.937500 3.351562
vt 0.937500 3.398438
vt 1.164062 3.398438
vt 1.875000 3.429688
vt 2.601562 3.429688
vt 2.601562 3.476562
vt 1.875000 3.476562
vt 2.945312 -0.000000
vt 2.945312 0.226562
vt 1.484375 0.000000
vt 2.945312 0.421875
vt 2.945312 2.453125
vt 2.218750 2.453125
vt 0.742188 2.507812
vt 1.484375 2.507812
vt 0.195312 3.453125
vt -0.000000 3.453125
vt 0.195312 3.359375
vt 0.195312 3.406250
vt 2.023438 3.703125
vt -0.000000 3.703125
vt -0.000000 3.750000
vt 2.023438 3.750000
vt 2.226562 2.453125
vt 1.796875 2.453125
vt -0.000000 2.507812
vt -0.000000 2.929688
vt 0.726562 2.929688
vt 0.726562 2.507812
vt 3.328125 3.429688
vt 3.328125 3.476562
vt -0.000000 3.687500
vt -0.000000 3.640625
vt 0.226562 3.640625
vt 0.226562 3.687500
vt 0.421875 3.687500
vt 0.421875 3.640625
vt 2.445312 3.640625
vt 2.445312 3.687500
vt -0.000000 2.945312
vt -0.000000 2.992188
vt 0.726562 2.992188
vt 0.726562 2.945312
vt 3.500000 2.703125
vt 3.500000 2.601562
vt 2.773438 2.601562
vt 2.773438 2.703125
vt 3.500000 2.750000
vt 2.773438 2.750000
vt 2.960938 2.445312
vt 3.390625 2.445312
vt 3.390625 2.351562
vt 2.960938 2.351562
vt 3.390625 2.500000
vt 2.960938 2.500000
vt 1.367188 3.398438
vt 1.367188 3.351562
vt 2.562500 2.796875
vt 2.562500 2.695312
vt 2.562500 2.648438
vt 2.359375 2.750000
vt 2.359375 2.796875
vt 0.398438 3.257812
vt 0.398438 3.304688
vt 0.398438 3.406250
vt 0.601562 3.156250
vt 0.601562 3.203125
vt 0.601562 3.304688
vt 0.796875 3.054688
vt 0.796875 3.109375
vt 0.796875 3.203125
vt 1.000000 2.953125
vt 1.195312 2.859375
vt 1.195312 2.906250
vt 1.195312 3.007812
vt 1.398438 2.757812
vt 1.398438 2.804688
vt 1.398438 2.906250
vt 1.601562 2.656250
vt 1.601562 2.703125
vt 1.601562 2.804688
vt 1.796875 2.703125
vt 2.164062 2.851562
vt 2.164062 2.898438
vt 2.359375 2.898438
vt 1.960938 2.945312
vt 1.960938 3.000000
vt 2.164062 3.000000
vt 1.765625 3.046875
vt 1.765625 3.101562
vt 1.960938 3.101562
vt 1.562500 3.148438
vt 1.562500 3.195312
vt 1.765625 3.195312
vt 1.367188 3.250000
vt 1.367188 3.296875
vt 1.562500 3.296875
vt 2.765625 2.695312
vt 2.765625 2.601562
vt 2.765625 2.546875
vt 2.960938 2.601562
vt -0.000000 0.640625
vt 0.742188 0.640625
vt -0.000000 0.843750
vt 0.742188 0.843750
vt -0.000000 1.046875
vt 0.742188 1.046875
vt -0.000000 1.250000
vt 0.742188 1.250000
vt -0.000000 1.460938
vt 0.742188 1.460938
vt -0.000000 1.664062
vt 0.742188 1.664062
vt -0.000000 1.867188
vt 0.742188 1.867188
vt 0.000000 2.070312
vt 0.742188 2.070312
s 0
usemtl Concrete
f 53/1/1 7/2/1 18/3/1 16/4/1
f 15/5/1 3/6/1 7/2/1 53/1/1
f 12/7/2 55/8/2 4/9/2 2/10/2
f 54/11/3 11/12/3 82/13/3 74/14/3
f 10/15/4 6/16/4 3/17/4 15/18/4
f 62/19/5 64/20/5 54/11/5 7/14/5
f 16/21/4 18/22/4 19/23/4 17/24/4
f 17/25/1 19/26/1 29/27/1 27/28/1
f 20/29/1 21/30/1 31/31/1 24/32/1
f 22/33/1 23/34/1 30/35/1 28/36/1
f 28/37/4 30/38/4 21/39/4 20/40/4
f 27/41/4 29/42/4 23/43/4 22/44/4
f 24/45/4 31/46/4 32/47/4 25/48/4
f 25/49/1 32/50/1 33/51/1 26/52/1
f 26/53/4 33/54/4 13/55/4 14/56/4
f 11/12/5 54/11/5 34/57/5 36/58/5
f 10/15/4 37/59/4 1/60/4 6/16/4
f 42/61/1 38/62/1 35/28/1 41/27/1
f 41/63/4 35/64/4 39/65/4 40/66/4
f 40/67/1 39/68/1 14/69/1 13/70/1
f 52/71/4 47/72/4 46/73/4 51/74/4
f 51/75/1 46/76/1 45/8/1 50/9/1
f 50/77/4 45/78/4 44/79/4 49/80/4
f 49/81/1 44/82/1 43/83/1 48/84/1
f 48/85/4 43/86/4 38/87/4 42/88/4
f 5/89/6 52/90/6 51/91/6 2/92/6
f 11/93/7 36/94/7 37/95/7 10/96/7
f 36/97/2 34/98/2 1/99/2 37/100/2
f 60/101/4 63/102/4 6/16/4 1/60/4
f 54/11/5 64/20/5 61/103/5 34/57/5
f 6/16/4 63/102/4 59/104/4 3/17/4
f 3/17/4 59/104/4 8/105/4 57/106/4
f 56/107/5 58/108/5 62/19/5 7/14/5
f 7/109/6 54/110/6 74/111/6 18/112/6
f 56/113/7 7/114/7 3/115/7 57/116/7
f 65/117/6 5/89/6 2/92/6 4/118/6
f 55/119/5 66/120/5 65/121/5 4/122/5
f 1/99/2 34/98/2 61/123/2 60/124/2
f 60/125/6 61/126/6 64/127/6 63/128/6
f 59/129/6 63/128/6 64/127/6 62/130/6
f 62/130/6 58/131/6 8/132/6 59/129/6
f 56/133/1 57/134/1 8/135/1 58/136/1
f 5/137/1 65/138/1 66/139/1 9/140/1
f 52/141/1 5/137/1 9/140/1 47/142/1
f 12/143/7 9/144/7 66/145/7 55/146/7
f 47/147/7 9/144/7 12/143/7 46/148/7
f 15/149/7 53/150/7 11/93/7 10/96/7
f 35/151/7 38/152/7 76/153/7 77/154/7 39/155/7
f 18/112/6 74/111/6 73/156/6 29/157/6 19/158/6
f 29/157/6 73/156/6 72/159/6 30/160/6 23/161/6
f 30/160/6 72/159/6 71/162/6 31/163/6 21/164/6
f 31/163/6 71/162/6 70/165/6 33/51/6 32/50/6
f 33/51/6 70/165/6 69/166/6 40/167/6 13/168/6
f 40/167/6 69/166/6 68/169/6 42/170/6 41/171/6
f 42/170/6 68/169/6 67/172/6 49/173/6 48/174/6
f 49/173/6 67/172/6 2/92/6 51/91/6 50/175/6
f 39/155/7 77/154/7 78/176/7 26/177/7 14/178/7
f 26/177/7 78/176/7 79/179/7 24/180/7 25/181/7
f 24/180/7 79/179/7 80/182/7 28/183/7 20/184/7
f 28/183/7 80/182/7 81/185/7 27/186/7 22/187/7
f 27/186/7 81/185/7 82/188/7 16/189/7 17/190/7
f 16/189/7 82/188/7 11/93/7 53/150/7
f 76/153/7 38/152/7 43/191/7 44/192/7 75/193/7
f 75/193/7 44/192/7 45/194/7 46/148/7 12/143/7
f 74/14/3 82/13/3 81/195/3 73/196/3
f 73/196/3 81/195/3 80/197/3 72/198/3
f 72/198/3 80/197/3 79/199/3 71/200/3
f 71/200/3 79/199/3 78/201/3 70/202/3
f 70/202/3 78/201/3 77/203/3 69/204/3
f 69/204/3 77/203/3 76/205/3 68/206/3
f 68/206/3 76/205/3 75/207/3 67/208/3
f 67/208/3 75/207/3 12/209/3 2/210/3
